G04 #@! TF.GenerationSoftware,KiCad,Pcbnew,7.0.2-0*
G04 #@! TF.CreationDate,2023-09-13T20:41:22+02:00*
G04 #@! TF.ProjectId,storre_plate,73746f72-7265-45f7-906c-6174652e6b69,rev?*
G04 #@! TF.SameCoordinates,Original*
G04 #@! TF.FileFunction,Legend,Bot*
G04 #@! TF.FilePolarity,Positive*
%FSLAX46Y46*%
G04 Gerber Fmt 4.6, Leading zero omitted, Abs format (unit mm)*
G04 Created by KiCad (PCBNEW 7.0.2-0) date 2023-09-13 20:41:22*
%MOMM*%
%LPD*%
G01*
G04 APERTURE LIST*
%ADD10C,0.150000*%
%ADD11C,2.200000*%
G04 APERTURE END LIST*
D10*
X215450596Y-126142500D02*
X215307739Y-126190119D01*
X215307739Y-126190119D02*
X215069644Y-126190119D01*
X215069644Y-126190119D02*
X214974406Y-126142500D01*
X214974406Y-126142500D02*
X214926787Y-126094880D01*
X214926787Y-126094880D02*
X214879168Y-125999642D01*
X214879168Y-125999642D02*
X214879168Y-125904404D01*
X214879168Y-125904404D02*
X214926787Y-125809166D01*
X214926787Y-125809166D02*
X214974406Y-125761547D01*
X214974406Y-125761547D02*
X215069644Y-125713928D01*
X215069644Y-125713928D02*
X215260120Y-125666309D01*
X215260120Y-125666309D02*
X215355358Y-125618690D01*
X215355358Y-125618690D02*
X215402977Y-125571071D01*
X215402977Y-125571071D02*
X215450596Y-125475833D01*
X215450596Y-125475833D02*
X215450596Y-125380595D01*
X215450596Y-125380595D02*
X215402977Y-125285357D01*
X215402977Y-125285357D02*
X215355358Y-125237738D01*
X215355358Y-125237738D02*
X215260120Y-125190119D01*
X215260120Y-125190119D02*
X215022025Y-125190119D01*
X215022025Y-125190119D02*
X214879168Y-125237738D01*
X214593453Y-125190119D02*
X214022025Y-125190119D01*
X214307739Y-126190119D02*
X214307739Y-125190119D01*
X213688691Y-126190119D02*
X213688691Y-125190119D01*
X213688691Y-125666309D02*
X213117263Y-125666309D01*
X213117263Y-126190119D02*
X213117263Y-125190119D01*
X212164882Y-126190119D02*
X212641072Y-126190119D01*
X212641072Y-126190119D02*
X212641072Y-125190119D01*
X211831548Y-126190119D02*
X211831548Y-125190119D01*
X211831548Y-125190119D02*
X211498215Y-125904404D01*
X211498215Y-125904404D02*
X211164882Y-125190119D01*
X211164882Y-125190119D02*
X211164882Y-126190119D01*
X209926786Y-126190119D02*
X209926786Y-125190119D01*
X209355358Y-126190119D02*
X209783929Y-125618690D01*
X209355358Y-125190119D02*
X209926786Y-125761547D01*
X208593453Y-125666309D02*
X208450596Y-125713928D01*
X208450596Y-125713928D02*
X208402977Y-125761547D01*
X208402977Y-125761547D02*
X208355358Y-125856785D01*
X208355358Y-125856785D02*
X208355358Y-125999642D01*
X208355358Y-125999642D02*
X208402977Y-126094880D01*
X208402977Y-126094880D02*
X208450596Y-126142500D01*
X208450596Y-126142500D02*
X208545834Y-126190119D01*
X208545834Y-126190119D02*
X208926786Y-126190119D01*
X208926786Y-126190119D02*
X208926786Y-125190119D01*
X208926786Y-125190119D02*
X208593453Y-125190119D01*
X208593453Y-125190119D02*
X208498215Y-125237738D01*
X208498215Y-125237738D02*
X208450596Y-125285357D01*
X208450596Y-125285357D02*
X208402977Y-125380595D01*
X208402977Y-125380595D02*
X208402977Y-125475833D01*
X208402977Y-125475833D02*
X208450596Y-125571071D01*
X208450596Y-125571071D02*
X208498215Y-125618690D01*
X208498215Y-125618690D02*
X208593453Y-125666309D01*
X208593453Y-125666309D02*
X208926786Y-125666309D01*
X207212500Y-126142500D02*
X207117262Y-126190119D01*
X207117262Y-126190119D02*
X206926786Y-126190119D01*
X206926786Y-126190119D02*
X206831548Y-126142500D01*
X206831548Y-126142500D02*
X206783929Y-126047261D01*
X206783929Y-126047261D02*
X206783929Y-125999642D01*
X206783929Y-125999642D02*
X206831548Y-125904404D01*
X206831548Y-125904404D02*
X206926786Y-125856785D01*
X206926786Y-125856785D02*
X207069643Y-125856785D01*
X207069643Y-125856785D02*
X207164881Y-125809166D01*
X207164881Y-125809166D02*
X207212500Y-125713928D01*
X207212500Y-125713928D02*
X207212500Y-125666309D01*
X207212500Y-125666309D02*
X207164881Y-125571071D01*
X207164881Y-125571071D02*
X207069643Y-125523452D01*
X207069643Y-125523452D02*
X206926786Y-125523452D01*
X206926786Y-125523452D02*
X206831548Y-125571071D01*
X206498214Y-125523452D02*
X206117262Y-125523452D01*
X206355357Y-125190119D02*
X206355357Y-126047261D01*
X206355357Y-126047261D02*
X206307738Y-126142500D01*
X206307738Y-126142500D02*
X206212500Y-126190119D01*
X206212500Y-126190119D02*
X206117262Y-126190119D01*
X205641071Y-126190119D02*
X205736309Y-126142500D01*
X205736309Y-126142500D02*
X205783928Y-126094880D01*
X205783928Y-126094880D02*
X205831547Y-125999642D01*
X205831547Y-125999642D02*
X205831547Y-125713928D01*
X205831547Y-125713928D02*
X205783928Y-125618690D01*
X205783928Y-125618690D02*
X205736309Y-125571071D01*
X205736309Y-125571071D02*
X205641071Y-125523452D01*
X205641071Y-125523452D02*
X205498214Y-125523452D01*
X205498214Y-125523452D02*
X205402976Y-125571071D01*
X205402976Y-125571071D02*
X205355357Y-125618690D01*
X205355357Y-125618690D02*
X205307738Y-125713928D01*
X205307738Y-125713928D02*
X205307738Y-125999642D01*
X205307738Y-125999642D02*
X205355357Y-126094880D01*
X205355357Y-126094880D02*
X205402976Y-126142500D01*
X205402976Y-126142500D02*
X205498214Y-126190119D01*
X205498214Y-126190119D02*
X205641071Y-126190119D01*
X204879166Y-126190119D02*
X204879166Y-125523452D01*
X204879166Y-125713928D02*
X204831547Y-125618690D01*
X204831547Y-125618690D02*
X204783928Y-125571071D01*
X204783928Y-125571071D02*
X204688690Y-125523452D01*
X204688690Y-125523452D02*
X204593452Y-125523452D01*
X204260118Y-126190119D02*
X204260118Y-125523452D01*
X204260118Y-125713928D02*
X204212499Y-125618690D01*
X204212499Y-125618690D02*
X204164880Y-125571071D01*
X204164880Y-125571071D02*
X204069642Y-125523452D01*
X204069642Y-125523452D02*
X203974404Y-125523452D01*
X203260118Y-126142500D02*
X203355356Y-126190119D01*
X203355356Y-126190119D02*
X203545832Y-126190119D01*
X203545832Y-126190119D02*
X203641070Y-126142500D01*
X203641070Y-126142500D02*
X203688689Y-126047261D01*
X203688689Y-126047261D02*
X203688689Y-125666309D01*
X203688689Y-125666309D02*
X203641070Y-125571071D01*
X203641070Y-125571071D02*
X203545832Y-125523452D01*
X203545832Y-125523452D02*
X203355356Y-125523452D01*
X203355356Y-125523452D02*
X203260118Y-125571071D01*
X203260118Y-125571071D02*
X203212499Y-125666309D01*
X203212499Y-125666309D02*
X203212499Y-125761547D01*
X203212499Y-125761547D02*
X203688689Y-125856785D01*
X202117260Y-125523452D02*
X201879165Y-126190119D01*
X201879165Y-126190119D02*
X201641070Y-125523452D01*
X200736308Y-126190119D02*
X201307736Y-126190119D01*
X201022022Y-126190119D02*
X201022022Y-125190119D01*
X201022022Y-125190119D02*
X201117260Y-125332976D01*
X201117260Y-125332976D02*
X201212498Y-125428214D01*
X201212498Y-125428214D02*
X201307736Y-125475833D01*
X213760119Y-127810119D02*
X213760119Y-126810119D01*
X213760119Y-127762500D02*
X213855357Y-127810119D01*
X213855357Y-127810119D02*
X214045833Y-127810119D01*
X214045833Y-127810119D02*
X214141071Y-127762500D01*
X214141071Y-127762500D02*
X214188690Y-127714880D01*
X214188690Y-127714880D02*
X214236309Y-127619642D01*
X214236309Y-127619642D02*
X214236309Y-127333928D01*
X214236309Y-127333928D02*
X214188690Y-127238690D01*
X214188690Y-127238690D02*
X214141071Y-127191071D01*
X214141071Y-127191071D02*
X214045833Y-127143452D01*
X214045833Y-127143452D02*
X213855357Y-127143452D01*
X213855357Y-127143452D02*
X213760119Y-127191071D01*
X212902976Y-127762500D02*
X212998214Y-127810119D01*
X212998214Y-127810119D02*
X213188690Y-127810119D01*
X213188690Y-127810119D02*
X213283928Y-127762500D01*
X213283928Y-127762500D02*
X213331547Y-127667261D01*
X213331547Y-127667261D02*
X213331547Y-127286309D01*
X213331547Y-127286309D02*
X213283928Y-127191071D01*
X213283928Y-127191071D02*
X213188690Y-127143452D01*
X213188690Y-127143452D02*
X212998214Y-127143452D01*
X212998214Y-127143452D02*
X212902976Y-127191071D01*
X212902976Y-127191071D02*
X212855357Y-127286309D01*
X212855357Y-127286309D02*
X212855357Y-127381547D01*
X212855357Y-127381547D02*
X213331547Y-127476785D01*
X212474404Y-127762500D02*
X212379166Y-127810119D01*
X212379166Y-127810119D02*
X212188690Y-127810119D01*
X212188690Y-127810119D02*
X212093452Y-127762500D01*
X212093452Y-127762500D02*
X212045833Y-127667261D01*
X212045833Y-127667261D02*
X212045833Y-127619642D01*
X212045833Y-127619642D02*
X212093452Y-127524404D01*
X212093452Y-127524404D02*
X212188690Y-127476785D01*
X212188690Y-127476785D02*
X212331547Y-127476785D01*
X212331547Y-127476785D02*
X212426785Y-127429166D01*
X212426785Y-127429166D02*
X212474404Y-127333928D01*
X212474404Y-127333928D02*
X212474404Y-127286309D01*
X212474404Y-127286309D02*
X212426785Y-127191071D01*
X212426785Y-127191071D02*
X212331547Y-127143452D01*
X212331547Y-127143452D02*
X212188690Y-127143452D01*
X212188690Y-127143452D02*
X212093452Y-127191071D01*
X211617261Y-127810119D02*
X211617261Y-127143452D01*
X211617261Y-126810119D02*
X211664880Y-126857738D01*
X211664880Y-126857738D02*
X211617261Y-126905357D01*
X211617261Y-126905357D02*
X211569642Y-126857738D01*
X211569642Y-126857738D02*
X211617261Y-126810119D01*
X211617261Y-126810119D02*
X211617261Y-126905357D01*
X210712500Y-127143452D02*
X210712500Y-127952976D01*
X210712500Y-127952976D02*
X210760119Y-128048214D01*
X210760119Y-128048214D02*
X210807738Y-128095833D01*
X210807738Y-128095833D02*
X210902976Y-128143452D01*
X210902976Y-128143452D02*
X211045833Y-128143452D01*
X211045833Y-128143452D02*
X211141071Y-128095833D01*
X210712500Y-127762500D02*
X210807738Y-127810119D01*
X210807738Y-127810119D02*
X210998214Y-127810119D01*
X210998214Y-127810119D02*
X211093452Y-127762500D01*
X211093452Y-127762500D02*
X211141071Y-127714880D01*
X211141071Y-127714880D02*
X211188690Y-127619642D01*
X211188690Y-127619642D02*
X211188690Y-127333928D01*
X211188690Y-127333928D02*
X211141071Y-127238690D01*
X211141071Y-127238690D02*
X211093452Y-127191071D01*
X211093452Y-127191071D02*
X210998214Y-127143452D01*
X210998214Y-127143452D02*
X210807738Y-127143452D01*
X210807738Y-127143452D02*
X210712500Y-127191071D01*
X210236309Y-127143452D02*
X210236309Y-127810119D01*
X210236309Y-127238690D02*
X210188690Y-127191071D01*
X210188690Y-127191071D02*
X210093452Y-127143452D01*
X210093452Y-127143452D02*
X209950595Y-127143452D01*
X209950595Y-127143452D02*
X209855357Y-127191071D01*
X209855357Y-127191071D02*
X209807738Y-127286309D01*
X209807738Y-127286309D02*
X209807738Y-127810119D01*
X208569642Y-127810119D02*
X208569642Y-126810119D01*
X208569642Y-127191071D02*
X208474404Y-127143452D01*
X208474404Y-127143452D02*
X208283928Y-127143452D01*
X208283928Y-127143452D02*
X208188690Y-127191071D01*
X208188690Y-127191071D02*
X208141071Y-127238690D01*
X208141071Y-127238690D02*
X208093452Y-127333928D01*
X208093452Y-127333928D02*
X208093452Y-127619642D01*
X208093452Y-127619642D02*
X208141071Y-127714880D01*
X208141071Y-127714880D02*
X208188690Y-127762500D01*
X208188690Y-127762500D02*
X208283928Y-127810119D01*
X208283928Y-127810119D02*
X208474404Y-127810119D01*
X208474404Y-127810119D02*
X208569642Y-127762500D01*
X207760118Y-127143452D02*
X207522023Y-127810119D01*
X207283928Y-127143452D02*
X207522023Y-127810119D01*
X207522023Y-127810119D02*
X207617261Y-128048214D01*
X207617261Y-128048214D02*
X207664880Y-128095833D01*
X207664880Y-128095833D02*
X207760118Y-128143452D01*
X206141070Y-127810119D02*
X206141070Y-127143452D01*
X206141070Y-127238690D02*
X206093451Y-127191071D01*
X206093451Y-127191071D02*
X205998213Y-127143452D01*
X205998213Y-127143452D02*
X205855356Y-127143452D01*
X205855356Y-127143452D02*
X205760118Y-127191071D01*
X205760118Y-127191071D02*
X205712499Y-127286309D01*
X205712499Y-127286309D02*
X205712499Y-127810119D01*
X205712499Y-127286309D02*
X205664880Y-127191071D01*
X205664880Y-127191071D02*
X205569642Y-127143452D01*
X205569642Y-127143452D02*
X205426785Y-127143452D01*
X205426785Y-127143452D02*
X205331546Y-127191071D01*
X205331546Y-127191071D02*
X205283927Y-127286309D01*
X205283927Y-127286309D02*
X205283927Y-127810119D01*
X204664880Y-127810119D02*
X204760118Y-127762500D01*
X204760118Y-127762500D02*
X204807737Y-127714880D01*
X204807737Y-127714880D02*
X204855356Y-127619642D01*
X204855356Y-127619642D02*
X204855356Y-127333928D01*
X204855356Y-127333928D02*
X204807737Y-127238690D01*
X204807737Y-127238690D02*
X204760118Y-127191071D01*
X204760118Y-127191071D02*
X204664880Y-127143452D01*
X204664880Y-127143452D02*
X204522023Y-127143452D01*
X204522023Y-127143452D02*
X204426785Y-127191071D01*
X204426785Y-127191071D02*
X204379166Y-127238690D01*
X204379166Y-127238690D02*
X204331547Y-127333928D01*
X204331547Y-127333928D02*
X204331547Y-127619642D01*
X204331547Y-127619642D02*
X204379166Y-127714880D01*
X204379166Y-127714880D02*
X204426785Y-127762500D01*
X204426785Y-127762500D02*
X204522023Y-127810119D01*
X204522023Y-127810119D02*
X204664880Y-127810119D01*
X203902975Y-127810119D02*
X203902975Y-126810119D01*
X203474404Y-127810119D02*
X203474404Y-127286309D01*
X203474404Y-127286309D02*
X203522023Y-127191071D01*
X203522023Y-127191071D02*
X203617261Y-127143452D01*
X203617261Y-127143452D02*
X203760118Y-127143452D01*
X203760118Y-127143452D02*
X203855356Y-127191071D01*
X203855356Y-127191071D02*
X203902975Y-127238690D01*
X202855356Y-127810119D02*
X202950594Y-127762500D01*
X202950594Y-127762500D02*
X202998213Y-127714880D01*
X202998213Y-127714880D02*
X203045832Y-127619642D01*
X203045832Y-127619642D02*
X203045832Y-127333928D01*
X203045832Y-127333928D02*
X202998213Y-127238690D01*
X202998213Y-127238690D02*
X202950594Y-127191071D01*
X202950594Y-127191071D02*
X202855356Y-127143452D01*
X202855356Y-127143452D02*
X202712499Y-127143452D01*
X202712499Y-127143452D02*
X202617261Y-127191071D01*
X202617261Y-127191071D02*
X202569642Y-127238690D01*
X202569642Y-127238690D02*
X202522023Y-127333928D01*
X202522023Y-127333928D02*
X202522023Y-127619642D01*
X202522023Y-127619642D02*
X202569642Y-127714880D01*
X202569642Y-127714880D02*
X202617261Y-127762500D01*
X202617261Y-127762500D02*
X202712499Y-127810119D01*
X202712499Y-127810119D02*
X202855356Y-127810119D01*
X202188689Y-127143452D02*
X201950594Y-127810119D01*
X201712499Y-127143452D02*
X201950594Y-127810119D01*
X201950594Y-127810119D02*
X202045832Y-128048214D01*
X202045832Y-128048214D02*
X202093451Y-128095833D01*
X202093451Y-128095833D02*
X202188689Y-128143452D01*
X201474403Y-127143452D02*
X201093451Y-127143452D01*
X201331546Y-126810119D02*
X201331546Y-127667261D01*
X201331546Y-127667261D02*
X201283927Y-127762500D01*
X201283927Y-127762500D02*
X201188689Y-127810119D01*
X201188689Y-127810119D02*
X201093451Y-127810119D01*
X334094048Y-145100119D02*
X334094048Y-145814404D01*
X334094048Y-145814404D02*
X334141667Y-145957261D01*
X334141667Y-145957261D02*
X334236905Y-146052500D01*
X334236905Y-146052500D02*
X334379762Y-146100119D01*
X334379762Y-146100119D02*
X334475000Y-146100119D01*
X333141667Y-146100119D02*
X333617857Y-146100119D01*
X333617857Y-146100119D02*
X333617857Y-145100119D01*
X332236905Y-146004880D02*
X332284524Y-146052500D01*
X332284524Y-146052500D02*
X332427381Y-146100119D01*
X332427381Y-146100119D02*
X332522619Y-146100119D01*
X332522619Y-146100119D02*
X332665476Y-146052500D01*
X332665476Y-146052500D02*
X332760714Y-145957261D01*
X332760714Y-145957261D02*
X332808333Y-145862023D01*
X332808333Y-145862023D02*
X332855952Y-145671547D01*
X332855952Y-145671547D02*
X332855952Y-145528690D01*
X332855952Y-145528690D02*
X332808333Y-145338214D01*
X332808333Y-145338214D02*
X332760714Y-145242976D01*
X332760714Y-145242976D02*
X332665476Y-145147738D01*
X332665476Y-145147738D02*
X332522619Y-145100119D01*
X332522619Y-145100119D02*
X332427381Y-145100119D01*
X332427381Y-145100119D02*
X332284524Y-145147738D01*
X332284524Y-145147738D02*
X332236905Y-145195357D01*
X331522619Y-145100119D02*
X331522619Y-145814404D01*
X331522619Y-145814404D02*
X331570238Y-145957261D01*
X331570238Y-145957261D02*
X331665476Y-146052500D01*
X331665476Y-146052500D02*
X331808333Y-146100119D01*
X331808333Y-146100119D02*
X331903571Y-146100119D01*
X330570238Y-146100119D02*
X331046428Y-146100119D01*
X331046428Y-146100119D02*
X331046428Y-145100119D01*
X329665476Y-146004880D02*
X329713095Y-146052500D01*
X329713095Y-146052500D02*
X329855952Y-146100119D01*
X329855952Y-146100119D02*
X329951190Y-146100119D01*
X329951190Y-146100119D02*
X330094047Y-146052500D01*
X330094047Y-146052500D02*
X330189285Y-145957261D01*
X330189285Y-145957261D02*
X330236904Y-145862023D01*
X330236904Y-145862023D02*
X330284523Y-145671547D01*
X330284523Y-145671547D02*
X330284523Y-145528690D01*
X330284523Y-145528690D02*
X330236904Y-145338214D01*
X330236904Y-145338214D02*
X330189285Y-145242976D01*
X330189285Y-145242976D02*
X330094047Y-145147738D01*
X330094047Y-145147738D02*
X329951190Y-145100119D01*
X329951190Y-145100119D02*
X329855952Y-145100119D01*
X329855952Y-145100119D02*
X329713095Y-145147738D01*
X329713095Y-145147738D02*
X329665476Y-145195357D01*
X328951190Y-145100119D02*
X328951190Y-145814404D01*
X328951190Y-145814404D02*
X328998809Y-145957261D01*
X328998809Y-145957261D02*
X329094047Y-146052500D01*
X329094047Y-146052500D02*
X329236904Y-146100119D01*
X329236904Y-146100119D02*
X329332142Y-146100119D01*
X327998809Y-146100119D02*
X328474999Y-146100119D01*
X328474999Y-146100119D02*
X328474999Y-145100119D01*
X327094047Y-146004880D02*
X327141666Y-146052500D01*
X327141666Y-146052500D02*
X327284523Y-146100119D01*
X327284523Y-146100119D02*
X327379761Y-146100119D01*
X327379761Y-146100119D02*
X327522618Y-146052500D01*
X327522618Y-146052500D02*
X327617856Y-145957261D01*
X327617856Y-145957261D02*
X327665475Y-145862023D01*
X327665475Y-145862023D02*
X327713094Y-145671547D01*
X327713094Y-145671547D02*
X327713094Y-145528690D01*
X327713094Y-145528690D02*
X327665475Y-145338214D01*
X327665475Y-145338214D02*
X327617856Y-145242976D01*
X327617856Y-145242976D02*
X327522618Y-145147738D01*
X327522618Y-145147738D02*
X327379761Y-145100119D01*
X327379761Y-145100119D02*
X327284523Y-145100119D01*
X327284523Y-145100119D02*
X327141666Y-145147738D01*
X327141666Y-145147738D02*
X327094047Y-145195357D01*
X326379761Y-145100119D02*
X326379761Y-145814404D01*
X326379761Y-145814404D02*
X326427380Y-145957261D01*
X326427380Y-145957261D02*
X326522618Y-146052500D01*
X326522618Y-146052500D02*
X326665475Y-146100119D01*
X326665475Y-146100119D02*
X326760713Y-146100119D01*
X325427380Y-146100119D02*
X325903570Y-146100119D01*
X325903570Y-146100119D02*
X325903570Y-145100119D01*
X324522618Y-146004880D02*
X324570237Y-146052500D01*
X324570237Y-146052500D02*
X324713094Y-146100119D01*
X324713094Y-146100119D02*
X324808332Y-146100119D01*
X324808332Y-146100119D02*
X324951189Y-146052500D01*
X324951189Y-146052500D02*
X325046427Y-145957261D01*
X325046427Y-145957261D02*
X325094046Y-145862023D01*
X325094046Y-145862023D02*
X325141665Y-145671547D01*
X325141665Y-145671547D02*
X325141665Y-145528690D01*
X325141665Y-145528690D02*
X325094046Y-145338214D01*
X325094046Y-145338214D02*
X325046427Y-145242976D01*
X325046427Y-145242976D02*
X324951189Y-145147738D01*
X324951189Y-145147738D02*
X324808332Y-145100119D01*
X324808332Y-145100119D02*
X324713094Y-145100119D01*
X324713094Y-145100119D02*
X324570237Y-145147738D01*
X324570237Y-145147738D02*
X324522618Y-145195357D01*
%LPC*%
D11*
X50137500Y-167125000D03*
X128925000Y-167125000D03*
X360512500Y-167125000D03*
X50137500Y-108737000D03*
X360512500Y-50349250D03*
X360512500Y-108737000D03*
X50137500Y-50349250D03*
X205325000Y-167125000D03*
X281725000Y-167125000D03*
%LPD*%
M02*
