%TF.GenerationSoftware,KiCad,Pcbnew,7.0.2-0*%
%TF.CreationDate,2023-09-13T20:41:26+02:00*%
%TF.ProjectId,storre_plate,73746f72-7265-45f7-906c-6174652e6b69,rev?*%
%TF.SameCoordinates,Original*%
%TF.FileFunction,Drillmap*%
%TF.FilePolarity,Positive*%
%FSLAX45Y45*%
G04 Gerber Fmt 4.5, Leading zero omitted, Abs format (unit mm)*
G04 Created by KiCad (PCBNEW 7.0.2-0) date 2023-09-13 20:41:26*
%MOMM*%
%LPD*%
G01*
G04 APERTURE LIST*
%ADD10C,0.200000*%
%ADD11C,0.050000*%
%ADD12C,0.150000*%
%ADD13C,0.040000*%
G04 APERTURE END LIST*
D10*
X29792640Y-8598110D02*
G75*
G03*
X29842640Y-8548110I0J50000D01*
G01*
X19870140Y-10453110D02*
G75*
G03*
X19920140Y-10503110I50010J10D01*
G01*
X27063890Y-14818110D02*
G75*
G03*
X27013890Y-14868110I0J-50000D01*
G01*
X23651390Y-11058110D02*
X23651390Y-12358110D01*
X27966390Y-12358110D02*
G75*
G03*
X28016390Y-12408110I50010J10D01*
G01*
X31697640Y-16218110D02*
G75*
G03*
X31747640Y-16168110I0J50000D01*
G01*
X29683265Y-12913110D02*
X30983265Y-12913110D01*
X34157640Y-12358110D02*
G75*
G03*
X34207640Y-12408110I50010J10D01*
G01*
X17410140Y-10503110D02*
G75*
G03*
X17460140Y-10453110I0J50000D01*
G01*
X25506390Y-12408110D02*
G75*
G03*
X25556390Y-12358110I0J50000D01*
G01*
X17062640Y-4816860D02*
X18362640Y-4816860D01*
X29871800Y-12357080D02*
G75*
G03*
X29921795Y-12407080I50000J0D01*
G01*
X33364920Y-11454580D02*
G75*
G03*
X33414920Y-11404580I0J50000D01*
G01*
X25982640Y-8598110D02*
G75*
G03*
X26032640Y-8548110I0J50000D01*
G01*
X16110815Y-14618110D02*
X15510815Y-14618110D01*
X21825140Y-10503110D02*
X23125140Y-10503110D01*
X12300140Y-9103110D02*
X13600140Y-9103110D01*
D11*
X31674020Y-2617250D02*
X27849020Y-2617250D01*
D10*
X32893940Y-8798110D02*
X33493940Y-8798110D01*
X12250140Y-6166860D02*
G75*
G03*
X12300140Y-6216860I50000J0D01*
G01*
X29633270Y-14263110D02*
G75*
G03*
X29683265Y-14313110I50010J10D01*
G01*
X18441390Y-12358110D02*
G75*
G03*
X18491390Y-12408110I50010J10D01*
G01*
X19315140Y-10503110D02*
G75*
G03*
X19365140Y-10453110I0J50000D01*
G01*
X33424490Y-9260780D02*
G75*
G03*
X33374484Y-9210780I-50010J-10D01*
G01*
X6932640Y-8598110D02*
G75*
G03*
X6982640Y-8548110I0J50000D01*
G01*
X32650140Y-6216860D02*
G75*
G03*
X32700140Y-6166860I0J50000D01*
G01*
X14076390Y-12408110D02*
G75*
G03*
X14126390Y-12358110I0J50000D01*
G01*
X30918620Y-12407080D02*
X30918620Y-12557080D01*
X13650140Y-4866860D02*
G75*
G03*
X13600140Y-4816860I-50000J0D01*
G01*
X5632640Y-7198110D02*
G75*
G03*
X5582640Y-7248110I0J-50000D01*
G01*
X35507640Y-16218110D02*
G75*
G03*
X35557640Y-16168110I0J50000D01*
G01*
X11347640Y-7198110D02*
G75*
G03*
X11297640Y-7248110I0J-50000D01*
G01*
X22698890Y-12963110D02*
X22698890Y-14263110D01*
X15157640Y-8598110D02*
X16457640Y-8598110D01*
X27540140Y-4816860D02*
X28840140Y-4816860D01*
X14155140Y-6166860D02*
G75*
G03*
X14205140Y-6216860I50000J0D01*
G01*
X11268890Y-12963110D02*
G75*
G03*
X11218890Y-12913110I-50000J0D01*
G01*
X30347640Y-16168110D02*
G75*
G03*
X30397640Y-16218110I50010J10D01*
G01*
X5632640Y-4816860D02*
X6932640Y-4816860D01*
X34207640Y-11008110D02*
X35507640Y-11008110D01*
X11745140Y-4866860D02*
X11745140Y-6166860D01*
X30347640Y-8548110D02*
G75*
G03*
X30397640Y-8598110I50010J10D01*
G01*
X21110765Y-14818105D02*
G75*
G03*
X21060765Y-14868110I5J-50005D01*
G01*
X30983265Y-14313115D02*
G75*
G03*
X31033265Y-14263110I-5J50005D01*
G01*
X30397640Y-16218110D02*
X31697640Y-16218110D01*
X6058890Y-10453110D02*
G75*
G03*
X6108890Y-10503110I50000J0D01*
G01*
X30456340Y-8598110D02*
X30456340Y-8748110D01*
X23175140Y-9153110D02*
G75*
G03*
X23125140Y-9103110I-50010J-10D01*
G01*
X29445140Y-4816860D02*
G75*
G03*
X29395140Y-4866860I0J-50000D01*
G01*
D12*
X5013940Y-4556740D02*
X26501440Y-4556740D01*
D10*
X8916390Y-12358110D02*
G75*
G03*
X8966390Y-12408110I50000J0D01*
G01*
X8252015Y-14818110D02*
X9790140Y-14818110D01*
X33646280Y-2639750D02*
X33646280Y-3939750D01*
X15157640Y-7198110D02*
X16457640Y-7198110D01*
X5582640Y-8548110D02*
G75*
G03*
X5632640Y-8598110I50000J0D01*
G01*
X27461390Y-11058110D02*
G75*
G03*
X27411390Y-11008110I-50010J-10D01*
G01*
X5820360Y-11058110D02*
X5820360Y-12358110D01*
X24127640Y-7248110D02*
G75*
G03*
X24077640Y-7198110I-50010J-10D01*
G01*
X19443890Y-14313110D02*
X20743890Y-14313110D01*
X18441390Y-11058110D02*
X18441390Y-12358110D01*
X20793890Y-12963110D02*
X20793890Y-14263110D01*
X25030140Y-10503110D02*
G75*
G03*
X25080140Y-10453110I0J50000D01*
G01*
X27490140Y-9153110D02*
X27490140Y-10453110D01*
X21775140Y-10453110D02*
G75*
G03*
X21825140Y-10503110I50010J10D01*
G01*
X17300765Y-16218110D02*
X20866965Y-16218110D01*
X12726390Y-11058110D02*
X12726390Y-12358110D01*
X16586390Y-11008110D02*
X17886390Y-11008110D01*
X8916390Y-11058110D02*
X8916390Y-12358110D01*
X21220140Y-10503110D02*
G75*
G03*
X21270140Y-10453110I0J50000D01*
G01*
X27540140Y-9103110D02*
X28840140Y-9103110D01*
X25556390Y-11058110D02*
G75*
G03*
X25506390Y-11008110I-50010J-10D01*
G01*
X32412420Y-12407080D02*
G75*
G03*
X32462420Y-12357080I0J50000D01*
G01*
X9840140Y-14868110D02*
X9840140Y-16168110D01*
X29445140Y-6216860D02*
X30745140Y-6216860D01*
X31033265Y-12963110D02*
X31033265Y-14263110D01*
X23727015Y-16118110D02*
X22654565Y-16118110D01*
X25080140Y-9153110D02*
G75*
G03*
X25030140Y-9103110I-50010J-10D01*
G01*
X25080140Y-9153110D02*
X25080140Y-10453110D01*
X22727640Y-8548110D02*
G75*
G03*
X22777640Y-8598110I50010J10D01*
G01*
X9790140Y-10503110D02*
G75*
G03*
X9840140Y-10453110I0J50000D01*
G01*
X5870360Y-11008110D02*
X7647015Y-11008110D01*
X34207640Y-16218110D02*
X35507640Y-16218110D01*
X28890140Y-4866860D02*
G75*
G03*
X28840140Y-4816860I-50010J-10D01*
G01*
X6982640Y-7248110D02*
X6982640Y-8548110D01*
D11*
X27749020Y-4092250D02*
G75*
G03*
X27849020Y-4192250I100000J0D01*
G01*
D10*
X15028890Y-14313110D02*
G75*
G03*
X15078890Y-14263110I0J50000D01*
G01*
X25635140Y-9103110D02*
G75*
G03*
X25585140Y-9153110I0J-50000D01*
G01*
X32252640Y-16168110D02*
G75*
G03*
X32302640Y-16218110I50010J10D01*
G01*
X33652640Y-14868110D02*
X33652640Y-16168110D01*
X17300765Y-14818110D02*
X20216965Y-14818110D01*
X13073210Y-16168110D02*
G75*
G03*
X13123215Y-16218110I50010J10D01*
G01*
X14631390Y-12358110D02*
G75*
G03*
X14681390Y-12408110I50000J0D01*
G01*
X15267015Y-16218105D02*
G75*
G03*
X15317015Y-16168110I5J49995D01*
G01*
X30347640Y-14868110D02*
X30347640Y-16168110D01*
X8440140Y-4866860D02*
X8440140Y-6166860D01*
X35557640Y-9153110D02*
G75*
G03*
X35507640Y-9103110I-50010J-10D01*
G01*
X30795140Y-4866860D02*
X30795140Y-6166860D01*
X9918890Y-14313110D02*
X11218890Y-14313110D01*
X9392640Y-7248110D02*
X9392640Y-8548110D01*
X5820360Y-12358110D02*
G75*
G03*
X5870360Y-12408110I50000J0D01*
G01*
X18015140Y-10503110D02*
X19315140Y-10503110D01*
X33602640Y-14313110D02*
G75*
G03*
X33652640Y-14263110I0J50000D01*
G01*
X25556390Y-11058110D02*
X25556390Y-12358110D01*
X32252640Y-14868110D02*
X32252640Y-16168110D01*
X31826795Y-10502080D02*
X32014920Y-10502080D01*
X30795140Y-9153110D02*
G75*
G03*
X30745140Y-9103110I-50010J-10D01*
G01*
X33306220Y-12298380D02*
X33306220Y-12557080D01*
X8966390Y-11008110D02*
X10266390Y-11008110D01*
X27937640Y-7248110D02*
X27937640Y-8548110D01*
X29395140Y-6166860D02*
G75*
G03*
X29445140Y-6216860I50010J10D01*
G01*
X28652015Y-14868110D02*
X28652015Y-16168110D01*
X24206390Y-11008110D02*
G75*
G03*
X24156390Y-11058110I0J-50000D01*
G01*
X17250765Y-14868110D02*
X17250765Y-16168110D01*
X14681390Y-11008110D02*
G75*
G03*
X14631390Y-11058110I0J-50000D01*
G01*
X23727015Y-16118115D02*
G75*
G03*
X23777015Y-16068110I-5J50005D01*
G01*
X27013890Y-12963110D02*
X27013890Y-14263110D01*
X34157640Y-4866860D02*
X34157640Y-6166860D01*
X15078890Y-12963110D02*
X15078890Y-14263110D01*
X5632640Y-4816860D02*
G75*
G03*
X5582640Y-4866860I0J-50000D01*
G01*
X25585140Y-4866860D02*
X25585140Y-6166860D01*
X20317640Y-4866860D02*
G75*
G03*
X20267640Y-4816860I-50010J-10D01*
G01*
D12*
X26978940Y-4079240D02*
X26978940Y-2259550D01*
D10*
X5582640Y-6166860D02*
G75*
G03*
X5632640Y-6216860I50000J0D01*
G01*
X5820770Y-16168110D02*
G75*
G03*
X5870765Y-16218110I50000J0D01*
G01*
X33652640Y-14868110D02*
G75*
G03*
X33602640Y-14818110I-50010J-10D01*
G01*
X9918890Y-12913110D02*
G75*
G03*
X9868890Y-12963110I0J-50000D01*
G01*
X21110765Y-16218110D02*
X22410765Y-16218110D01*
X30397640Y-14818110D02*
G75*
G03*
X30347640Y-14868110I0J-50000D01*
G01*
X22301390Y-12408110D02*
X23601390Y-12408110D01*
X34207640Y-7198110D02*
G75*
G03*
X34157640Y-7248110I0J-50000D01*
G01*
X20872640Y-6216860D02*
X22172640Y-6216860D01*
X32302640Y-14818110D02*
G75*
G03*
X32252640Y-14868110I0J-50000D01*
G01*
X21270140Y-9153110D02*
G75*
G03*
X21220140Y-9103110I-50010J-10D01*
G01*
X21825140Y-9103110D02*
X23125140Y-9103110D01*
X13202640Y-7248110D02*
X13202640Y-8548110D01*
X20317640Y-7248110D02*
G75*
G03*
X20267640Y-7198110I-50010J-10D01*
G01*
X8967065Y-14513105D02*
G75*
G03*
X9017065Y-14463110I5J49995D01*
G01*
X25635140Y-9103110D02*
X26935140Y-9103110D01*
X8887640Y-7248110D02*
G75*
G03*
X8837640Y-7198110I-50000J0D01*
G01*
X23253890Y-12913110D02*
G75*
G03*
X23203890Y-12963110I0J-50000D01*
G01*
X27063890Y-14818110D02*
X28602015Y-14818110D01*
X33652640Y-12963110D02*
G75*
G03*
X33602640Y-12913110I-50010J-10D01*
G01*
X21746390Y-11058110D02*
X21746390Y-12358110D01*
X13600140Y-6216860D02*
G75*
G03*
X13650140Y-6166860I0J50000D01*
G01*
X23175140Y-9153110D02*
X23175140Y-10453110D01*
X21298890Y-14263110D02*
G75*
G03*
X21348890Y-14313110I50010J10D01*
G01*
X18491390Y-11008110D02*
G75*
G03*
X18441390Y-11058110I0J-50000D01*
G01*
X26537640Y-8548110D02*
G75*
G03*
X26587640Y-8598110I50010J10D01*
G01*
X16507640Y-7248110D02*
G75*
G03*
X16457640Y-7198110I-50000J0D01*
G01*
X8252015Y-16218110D02*
X9790140Y-16218110D01*
X18362640Y-6216860D02*
G75*
G03*
X18412640Y-6166860I0J50000D01*
G01*
X33602640Y-8598110D02*
G75*
G03*
X33652640Y-8548110I0J50000D01*
G01*
X16983890Y-12963110D02*
X16983890Y-14263110D01*
X29445140Y-9103110D02*
G75*
G03*
X29395140Y-9153110I0J-50000D01*
G01*
X33425080Y-11648380D02*
X33425080Y-12248380D01*
X15633890Y-12913110D02*
X16933890Y-12913110D01*
X22648890Y-14313110D02*
G75*
G03*
X22698890Y-14263110I0J50000D01*
G01*
X25585140Y-10453110D02*
G75*
G03*
X25635140Y-10503110I50010J10D01*
G01*
X19791390Y-12408110D02*
G75*
G03*
X19841390Y-12358110I0J50000D01*
G01*
X27411390Y-12408110D02*
G75*
G03*
X27461390Y-12358110I0J50000D01*
G01*
X29842640Y-7248110D02*
G75*
G03*
X29792640Y-7198110I-50010J-10D01*
G01*
X5870765Y-16218110D02*
X7408890Y-16218110D01*
X17062640Y-6216860D02*
X18362640Y-6216860D01*
X11745140Y-4866860D02*
G75*
G03*
X11695140Y-4816860I-50000J0D01*
G01*
X22251390Y-11058110D02*
X22251390Y-12358110D01*
X18917640Y-8548110D02*
G75*
G03*
X18967640Y-8598110I50010J10D01*
G01*
X30397640Y-8598110D02*
X30456340Y-8598110D01*
X17965140Y-10453110D02*
G75*
G03*
X18015140Y-10503110I50000J0D01*
G01*
X21110765Y-14818110D02*
X22410765Y-14818110D01*
X33652640Y-7248110D02*
X33652640Y-8548110D01*
X23777015Y-16068110D02*
X23777015Y-14668110D01*
X6982640Y-4866860D02*
X6982640Y-6166860D01*
X8490140Y-9103110D02*
G75*
G03*
X8440140Y-9153110I0J-50000D01*
G01*
X20872640Y-4816860D02*
G75*
G03*
X20822640Y-4866860I0J-50000D01*
G01*
X13728890Y-12913110D02*
X15028890Y-12913110D01*
X14202640Y-14618110D02*
X13123215Y-14618110D01*
X12221390Y-11058110D02*
G75*
G03*
X12171390Y-11008110I-50000J0D01*
G01*
X15633890Y-14313110D02*
X16933890Y-14313110D01*
X34207640Y-14818110D02*
X35507640Y-14818110D01*
X29921795Y-11007075D02*
G75*
G03*
X29871795Y-11057080I5J-50005D01*
G01*
X34207640Y-10503110D02*
X35507640Y-10503110D01*
X31350140Y-6216860D02*
X32650140Y-6216860D01*
X12300140Y-10503110D02*
X13600140Y-10503110D01*
X28413890Y-12963110D02*
G75*
G03*
X28363890Y-12913110I-50010J-10D01*
G01*
X34157640Y-2639750D02*
X34157640Y-3939750D01*
X28016390Y-12408110D02*
X29316390Y-12408110D01*
X27887640Y-8598110D02*
G75*
G03*
X27937640Y-8548110I0J50000D01*
G01*
X30347640Y-7248110D02*
X30347640Y-8548110D01*
X15583890Y-12963110D02*
X15583890Y-14263110D01*
X26061390Y-11058110D02*
X26061390Y-12358110D01*
X33375080Y-12298380D02*
G75*
G03*
X33425080Y-12248380I0J50000D01*
G01*
X11297640Y-7248110D02*
X11297640Y-8548110D01*
X19365140Y-9153110D02*
X19365140Y-10453110D01*
X27540140Y-6216860D02*
X28840140Y-6216860D01*
X28016390Y-11008110D02*
X29316390Y-11008110D01*
X14126390Y-11058110D02*
G75*
G03*
X14076390Y-11008110I-50000J0D01*
G01*
X17936390Y-11058110D02*
G75*
G03*
X17886390Y-11008110I-50000J0D01*
G01*
X20743890Y-14313110D02*
G75*
G03*
X20793890Y-14263110I0J50000D01*
G01*
X34207640Y-4816860D02*
G75*
G03*
X34157640Y-4866860I0J-50000D01*
G01*
X5632640Y-8598110D02*
X6932640Y-8598110D01*
X26270760Y-14868110D02*
G75*
G03*
X26220765Y-14818110I-50010J-10D01*
G01*
X19393890Y-12963110D02*
X19393890Y-14263110D01*
X27490140Y-4866860D02*
X27490140Y-6166860D01*
X35557640Y-4866860D02*
X35557640Y-6166860D01*
X11297640Y-8548110D02*
G75*
G03*
X11347640Y-8598110I50000J0D01*
G01*
X19870140Y-9153110D02*
X19870140Y-10453110D01*
X10742640Y-8598110D02*
G75*
G03*
X10792640Y-8548110I0J50000D01*
G01*
X11823890Y-12913110D02*
G75*
G03*
X11773890Y-12963110I0J-50000D01*
G01*
X15555140Y-9153110D02*
G75*
G03*
X15505140Y-9103110I-50000J0D01*
G01*
X27461390Y-11058110D02*
X27461390Y-12358110D01*
X32606220Y-12298380D02*
X32462420Y-12298380D01*
X26985140Y-4866860D02*
X26985140Y-6166860D01*
X18412640Y-4866860D02*
X18412640Y-6166860D01*
X34207640Y-4816860D02*
X35507640Y-4816860D01*
X21298890Y-12963110D02*
X21298890Y-14263110D01*
X13650140Y-9153110D02*
X13650140Y-10453110D01*
X16060140Y-9153110D02*
X16060140Y-10453110D01*
D12*
X36051440Y-1782050D02*
X27456440Y-1782050D01*
D10*
X18412640Y-7248110D02*
X18412640Y-8548110D01*
X34207640Y-9103110D02*
X35507640Y-9103110D01*
X35557640Y-14868110D02*
G75*
G03*
X35507640Y-14818110I-50010J-10D01*
G01*
X9840140Y-4866860D02*
X9840140Y-6166860D01*
X6932640Y-6216860D02*
G75*
G03*
X6982640Y-6166860I0J50000D01*
G01*
X16110140Y-9103110D02*
G75*
G03*
X16060140Y-9153110I0J-50000D01*
G01*
X24632640Y-7248110D02*
X24632640Y-8548110D01*
X10395140Y-9103110D02*
X11695140Y-9103110D01*
X7537640Y-7198110D02*
X8837640Y-7198110D01*
X35507640Y-3989750D02*
G75*
G03*
X35557640Y-3939750I0J50000D01*
G01*
X8966390Y-12408110D02*
X10266390Y-12408110D01*
X6108890Y-9103110D02*
G75*
G03*
X6058890Y-9153110I0J-50000D01*
G01*
X22172640Y-8598110D02*
G75*
G03*
X22222640Y-8548110I0J50000D01*
G01*
X34157640Y-7248110D02*
X34157640Y-8548110D01*
X8440140Y-6166860D02*
G75*
G03*
X8490140Y-6216860I50000J0D01*
G01*
X16110815Y-16215345D02*
G75*
G03*
X16160815Y-16165340I-5J50005D01*
G01*
X15460820Y-16165340D02*
G75*
G03*
X15510815Y-16215340I50000J0D01*
G01*
X17965140Y-9153110D02*
X17965140Y-10453110D01*
X18917640Y-7248110D02*
X18917640Y-8548110D01*
X22777640Y-7198110D02*
X24077640Y-7198110D01*
X30268620Y-12607080D02*
X30868620Y-12607080D01*
X23651390Y-11058110D02*
G75*
G03*
X23601390Y-11008110I-50010J-10D01*
G01*
X35507640Y-10503110D02*
G75*
G03*
X35557640Y-10453110I0J50000D01*
G01*
X30506340Y-8798110D02*
X31106340Y-8798110D01*
X13123890Y-14313110D02*
G75*
G03*
X13173890Y-14263110I0J50000D01*
G01*
X33543940Y-8598110D02*
X33602640Y-8598110D01*
X6579465Y-14513105D02*
G75*
G03*
X6629465Y-14463110I5J49995D01*
G01*
X13252640Y-7198110D02*
X14552640Y-7198110D01*
D12*
X36051440Y-17190700D02*
X5013940Y-17190700D01*
D10*
X13678890Y-14263110D02*
G75*
G03*
X13728890Y-14313110I50000J0D01*
G01*
X10266390Y-12408110D02*
G75*
G03*
X10316390Y-12358110I0J50000D01*
G01*
X15460815Y-16165340D02*
X15460815Y-14668110D01*
X10583265Y-14868110D02*
X10583265Y-16168110D01*
X21270140Y-9153110D02*
X21270140Y-10453110D01*
X14205140Y-4816860D02*
X15505140Y-4816860D01*
X20216965Y-14818110D02*
X20216965Y-14668110D01*
X6982640Y-4866860D02*
G75*
G03*
X6932640Y-4816860I-50000J0D01*
G01*
X16933890Y-14313110D02*
G75*
G03*
X16983890Y-14263110I0J50000D01*
G01*
X31826795Y-9102075D02*
G75*
G03*
X31776795Y-9152080I5J-50005D01*
G01*
D12*
X4536440Y-16713200D02*
G75*
G03*
X5013940Y-17190700I477500J0D01*
G01*
D10*
X24127640Y-7248110D02*
X24127640Y-8548110D01*
X34207640Y-12913110D02*
X35507640Y-12913110D01*
X14681390Y-11008110D02*
X15981390Y-11008110D01*
X13252640Y-7198110D02*
G75*
G03*
X13202640Y-7248110I0J-50000D01*
G01*
X28442640Y-7248110D02*
X28442640Y-8548110D01*
X29366390Y-11058110D02*
X29366390Y-12358110D01*
X26587640Y-7198110D02*
X27887640Y-7198110D01*
X35557640Y-7248110D02*
G75*
G03*
X35507640Y-7198110I-50010J-10D01*
G01*
X17538890Y-14313110D02*
X18838890Y-14313110D01*
X13173890Y-12963110D02*
X13173890Y-14263110D01*
X15505140Y-6216860D02*
G75*
G03*
X15555140Y-6166860I0J50000D01*
G01*
X14205140Y-6216860D02*
X15505140Y-6216860D01*
X14602640Y-7248110D02*
G75*
G03*
X14552640Y-7198110I-50000J0D01*
G01*
X18888890Y-12963110D02*
G75*
G03*
X18838890Y-12913110I-50010J-10D01*
G01*
X21348890Y-12913110D02*
G75*
G03*
X21298890Y-12963110I0J-50000D01*
G01*
X10345140Y-9153110D02*
X10345140Y-10453110D01*
X12697640Y-7248110D02*
G75*
G03*
X12647640Y-7198110I-50000J0D01*
G01*
X34157640Y-16168110D02*
G75*
G03*
X34207640Y-16218110I50010J10D01*
G01*
X33176795Y-9152080D02*
X33176795Y-9210780D01*
X5870765Y-12913105D02*
G75*
G03*
X5820765Y-12963110I5J-50005D01*
G01*
X23680140Y-10453110D02*
G75*
G03*
X23730140Y-10503110I50010J10D01*
G01*
X28413890Y-12963110D02*
X28413890Y-14263110D01*
D12*
X26501440Y-4556740D02*
G75*
G03*
X26978940Y-4079240I0J477500D01*
G01*
D10*
X28890140Y-9153110D02*
G75*
G03*
X28840140Y-9103110I-50010J-10D01*
G01*
X19841390Y-11058110D02*
X19841390Y-12358110D01*
X17012640Y-8548110D02*
G75*
G03*
X17062640Y-8598110I50000J0D01*
G01*
X29683265Y-14313110D02*
X30983265Y-14313110D01*
X11268890Y-12963110D02*
X11268890Y-14263110D01*
X9868890Y-12963110D02*
X9868890Y-14263110D01*
X5632640Y-7198110D02*
X6932640Y-7198110D01*
X21825140Y-9103110D02*
G75*
G03*
X21775140Y-9153110I0J-50000D01*
G01*
X7647015Y-12408105D02*
G75*
G03*
X7697015Y-12358110I5J49995D01*
G01*
X18491390Y-11008110D02*
X19791390Y-11008110D01*
X33256220Y-12607080D02*
G75*
G03*
X33306220Y-12557080I0J50000D01*
G01*
X8440140Y-10453110D02*
G75*
G03*
X8490140Y-10503110I50000J0D01*
G01*
X19920140Y-10503110D02*
X21220140Y-10503110D01*
X16110140Y-10503110D02*
X17410140Y-10503110D01*
X8887640Y-7248110D02*
X8887640Y-8548110D01*
X17488890Y-14263110D02*
G75*
G03*
X17538890Y-14313110I50000J0D01*
G01*
X34207640Y-14313110D02*
X35507640Y-14313110D01*
X7697020Y-11058110D02*
G75*
G03*
X7647015Y-11008110I-50010J-10D01*
G01*
X5582640Y-4866860D02*
X5582640Y-6166860D01*
X14252640Y-14668110D02*
G75*
G03*
X14202640Y-14618110I-50000J0D01*
G01*
X12776390Y-11008110D02*
G75*
G03*
X12726390Y-11058110I0J-50000D01*
G01*
X32252640Y-12963110D02*
X32252640Y-14263110D01*
X32302640Y-14313110D02*
X33602640Y-14313110D01*
X34157640Y-6166860D02*
G75*
G03*
X34207640Y-6216860I50010J10D01*
G01*
X35557640Y-4866860D02*
G75*
G03*
X35507640Y-4816860I-50010J-10D01*
G01*
X26508890Y-12963110D02*
X26508890Y-14263110D01*
D11*
X31749020Y-2692250D02*
G75*
G03*
X31674020Y-2617250I-75000J0D01*
G01*
D10*
X23203890Y-14263110D02*
G75*
G03*
X23253890Y-14313110I50010J10D01*
G01*
X29316390Y-12408110D02*
G75*
G03*
X29366390Y-12358110I0J50000D01*
G01*
X18888890Y-12963110D02*
X18888890Y-14263110D01*
X8490140Y-4816860D02*
G75*
G03*
X8440140Y-4866860I0J-50000D01*
G01*
X7458890Y-14868110D02*
X7458890Y-16168110D01*
X20346390Y-12358110D02*
G75*
G03*
X20396390Y-12408110I50010J10D01*
G01*
X16031390Y-11058110D02*
G75*
G03*
X15981390Y-11008110I-50000J0D01*
G01*
X31033260Y-12963110D02*
G75*
G03*
X30983265Y-12913110I-50010J-10D01*
G01*
X30795140Y-9153110D02*
X30795140Y-10453110D01*
X32700140Y-4866860D02*
X32700140Y-6166860D01*
X10871390Y-11008110D02*
X12171390Y-11008110D01*
X8440140Y-9153110D02*
X8440140Y-10453110D01*
X18491390Y-12408110D02*
X19791390Y-12408110D01*
X30745140Y-10503110D02*
G75*
G03*
X30795140Y-10453110I0J50000D01*
G01*
X31300140Y-4866860D02*
X31300140Y-6166860D01*
X7537640Y-8598110D02*
X8837640Y-8598110D01*
X30218620Y-12557080D02*
G75*
G03*
X30268620Y-12607080I50020J20D01*
G01*
X35507640Y-8598110D02*
G75*
G03*
X35557640Y-8548110I0J50000D01*
G01*
X5979465Y-14513110D02*
X6579465Y-14513110D01*
X24603890Y-12963110D02*
X24603890Y-14263110D01*
X35557640Y-12963110D02*
X35557640Y-14263110D01*
X35557640Y-11058110D02*
G75*
G03*
X35507640Y-11008110I-50010J-10D01*
G01*
X17250760Y-16168110D02*
G75*
G03*
X17300765Y-16218110I50010J10D01*
G01*
X24077640Y-6216860D02*
G75*
G03*
X24127640Y-6166860I0J50000D01*
G01*
X10395140Y-9103110D02*
G75*
G03*
X10345140Y-9153110I0J-50000D01*
G01*
X17488890Y-12963110D02*
X17488890Y-14263110D01*
X34207640Y-6216860D02*
X35507640Y-6216860D01*
X26935140Y-6216860D02*
G75*
G03*
X26985140Y-6166860I0J50000D01*
G01*
X14681390Y-12408110D02*
X15981390Y-12408110D01*
X26458890Y-14313110D02*
G75*
G03*
X26508890Y-14263110I0J50000D01*
G01*
X25585140Y-6166860D02*
G75*
G03*
X25635140Y-6216860I50010J10D01*
G01*
X33425080Y-11648380D02*
G75*
G03*
X33375080Y-11598380I-50020J-20D01*
G01*
X30397640Y-14818110D02*
X31697640Y-14818110D01*
X15633890Y-12913110D02*
G75*
G03*
X15583890Y-12963110I0J-50000D01*
G01*
X27966390Y-11058110D02*
X27966390Y-12358110D01*
X27490140Y-10453110D02*
G75*
G03*
X27540140Y-10503110I50010J10D01*
G01*
X28363890Y-14313110D02*
G75*
G03*
X28413890Y-14263110I0J50000D01*
G01*
X27540140Y-4816860D02*
G75*
G03*
X27490140Y-4866860I0J-50000D01*
G01*
X31776800Y-10452080D02*
G75*
G03*
X31826795Y-10502080I50000J0D01*
G01*
X19920140Y-9103110D02*
G75*
G03*
X19870140Y-9153110I0J-50000D01*
G01*
D12*
X36051440Y-17190700D02*
G75*
G03*
X36528940Y-16713200I0J477500D01*
G01*
X36528940Y-16713200D02*
X36528940Y-2259550D01*
D10*
X18412640Y-4866860D02*
G75*
G03*
X18362640Y-4816860I-50010J-10D01*
G01*
X16110140Y-9103110D02*
X17410140Y-9103110D01*
X22727640Y-6166860D02*
G75*
G03*
X22777640Y-6216860I50010J10D01*
G01*
X31747640Y-14868110D02*
G75*
G03*
X31697640Y-14818110I-50010J-10D01*
G01*
X12300140Y-9103110D02*
G75*
G03*
X12250140Y-9153110I0J-50000D01*
G01*
X22777640Y-4816860D02*
G75*
G03*
X22727640Y-4866860I0J-50000D01*
G01*
X24077640Y-8598110D02*
G75*
G03*
X24127640Y-8548110I0J50000D01*
G01*
X5870765Y-14818105D02*
G75*
G03*
X5820765Y-14868110I5J-50005D01*
G01*
X29633265Y-12963110D02*
X29633265Y-14263110D01*
X17936390Y-11058110D02*
X17936390Y-12358110D01*
X20396390Y-11008110D02*
G75*
G03*
X20346390Y-11058110I0J-50000D01*
G01*
X15078890Y-12963110D02*
G75*
G03*
X15028890Y-12913110I-50000J0D01*
G01*
X26537640Y-7248110D02*
X26537640Y-8548110D01*
X5582640Y-7248110D02*
X5582640Y-8548110D01*
X14602640Y-7248110D02*
X14602640Y-8548110D01*
X32246280Y-3939750D02*
G75*
G03*
X32296280Y-3989750I50010J10D01*
G01*
X22172640Y-6216860D02*
G75*
G03*
X22222640Y-6166860I0J50000D01*
G01*
X32302640Y-12913110D02*
G75*
G03*
X32252640Y-12963110I0J-50000D01*
G01*
X33375080Y-11598380D02*
X33306220Y-11598380D01*
X16536390Y-11058110D02*
X16536390Y-12358110D01*
X17460140Y-9153110D02*
G75*
G03*
X17410140Y-9103110I-50000J0D01*
G01*
X17012640Y-4866860D02*
X17012640Y-6166860D01*
X23125140Y-10503110D02*
G75*
G03*
X23175140Y-10453110I0J50000D01*
G01*
X26985140Y-4866860D02*
G75*
G03*
X26935140Y-4816860I-50010J-10D01*
G01*
X25108890Y-12963110D02*
X25108890Y-14263110D01*
X27540140Y-10503110D02*
X28840140Y-10503110D01*
X29871795Y-11057080D02*
X29871795Y-12357080D01*
X10792640Y-7248110D02*
G75*
G03*
X10742640Y-7198110I-50000J0D01*
G01*
X10633265Y-14818110D02*
X12171390Y-14818110D01*
X14155140Y-4866860D02*
X14155140Y-6166860D01*
X22222640Y-4866860D02*
G75*
G03*
X22172640Y-4816860I-50010J-10D01*
G01*
X33374484Y-9910784D02*
G75*
G03*
X33424484Y-9860780I6J49994D01*
G01*
X13678890Y-12963110D02*
X13678890Y-14263110D01*
X26111390Y-11008110D02*
G75*
G03*
X26061390Y-11058110I0J-50000D01*
G01*
X29445140Y-9103110D02*
X30745140Y-9103110D01*
X19841390Y-11058110D02*
G75*
G03*
X19791390Y-11008110I-50010J-10D01*
G01*
X5870765Y-14313110D02*
X5929465Y-14313110D01*
X34157640Y-8548110D02*
G75*
G03*
X34207640Y-8598110I50010J10D01*
G01*
X26587640Y-8598110D02*
X27887640Y-8598110D01*
X6629465Y-14313110D02*
X6629465Y-14463110D01*
X17012640Y-7248110D02*
X17012640Y-8548110D01*
X24603890Y-12963110D02*
G75*
G03*
X24553890Y-12913110I-50010J-10D01*
G01*
X14155140Y-9153110D02*
X14155140Y-10453110D01*
X10395140Y-4816860D02*
X11695140Y-4816860D01*
X20317640Y-7248110D02*
X20317640Y-8548110D01*
X12250140Y-4866860D02*
X12250140Y-6166860D01*
X18362640Y-8598110D02*
G75*
G03*
X18412640Y-8548110I0J50000D01*
G01*
X12171390Y-16218110D02*
G75*
G03*
X12221390Y-16168110I0J50000D01*
G01*
X17062640Y-8598110D02*
X18362640Y-8598110D01*
X29395140Y-10453110D02*
G75*
G03*
X29445140Y-10503110I50010J10D01*
G01*
X6629465Y-14313110D02*
X8317065Y-14313110D01*
X22777640Y-4816860D02*
X24077640Y-4816860D01*
X29445140Y-10503110D02*
X30745140Y-10503110D01*
X30218620Y-12407080D02*
X30218620Y-12557080D01*
X12250140Y-10453110D02*
G75*
G03*
X12300140Y-10503110I50000J0D01*
G01*
X22251390Y-12358110D02*
G75*
G03*
X22301390Y-12408110I50010J10D01*
G01*
X21060765Y-14868110D02*
X21060765Y-16168110D01*
X14205140Y-9103110D02*
G75*
G03*
X14155140Y-9153110I0J-50000D01*
G01*
X18917640Y-6166860D02*
G75*
G03*
X18967640Y-6216860I50010J10D01*
G01*
X34207640Y-11008110D02*
G75*
G03*
X34157640Y-11058110I0J-50000D01*
G01*
X20822640Y-6166860D02*
G75*
G03*
X20872640Y-6216860I50010J10D01*
G01*
X33375080Y-12298380D02*
X33306220Y-12298380D01*
X24632640Y-8548110D02*
G75*
G03*
X24682640Y-8598110I50010J10D01*
G01*
X25158890Y-14313110D02*
X26458890Y-14313110D01*
X27063890Y-12913110D02*
G75*
G03*
X27013890Y-12963110I0J-50000D01*
G01*
X24127640Y-4866860D02*
G75*
G03*
X24077640Y-4816860I-50010J-10D01*
G01*
X10583260Y-16168110D02*
G75*
G03*
X10633265Y-16218110I50010J10D01*
G01*
X32606220Y-12298380D02*
X32606220Y-12557080D01*
X11745140Y-9153110D02*
G75*
G03*
X11695140Y-9103110I-50000J0D01*
G01*
X20396390Y-11008110D02*
X21696390Y-11008110D01*
X26985140Y-9153110D02*
X26985140Y-10453110D01*
X25032640Y-14618110D02*
G75*
G03*
X24982640Y-14668110I0J-50000D01*
G01*
X25632640Y-14618110D02*
X25032640Y-14618110D01*
X17460140Y-9153110D02*
X17460140Y-10453110D01*
X25585140Y-9153110D02*
X25585140Y-10453110D01*
X12697640Y-7248110D02*
X12697640Y-8548110D01*
D12*
X36528940Y-2259550D02*
G75*
G03*
X36051440Y-1782050I-477500J0D01*
G01*
D10*
X22777640Y-7198110D02*
G75*
G03*
X22727640Y-7248110I0J-50000D01*
G01*
X5929470Y-14463110D02*
G75*
G03*
X5979465Y-14513110I50000J0D01*
G01*
X28840140Y-6216860D02*
G75*
G03*
X28890140Y-6166860I0J50000D01*
G01*
X30397640Y-7198110D02*
G75*
G03*
X30347640Y-7248110I0J-50000D01*
G01*
X28602015Y-16218115D02*
G75*
G03*
X28652015Y-16168110I-5J50005D01*
G01*
X30745140Y-6216860D02*
G75*
G03*
X30795140Y-6166860I0J50000D01*
G01*
X9790140Y-6216860D02*
G75*
G03*
X9840140Y-6166860I0J50000D01*
G01*
X22777640Y-6216860D02*
X24077640Y-6216860D01*
X13600140Y-10503110D02*
G75*
G03*
X13650140Y-10453110I0J50000D01*
G01*
X16060140Y-10453110D02*
G75*
G03*
X16110140Y-10503110I50000J0D01*
G01*
X5929465Y-14313110D02*
X5929465Y-14463110D01*
X33652640Y-7248110D02*
G75*
G03*
X33602640Y-7198110I-50010J-10D01*
G01*
X32296280Y-2589750D02*
X33596280Y-2589750D01*
X18838890Y-14313110D02*
G75*
G03*
X18888890Y-14263110I0J50000D01*
G01*
X17538890Y-12913110D02*
X18838890Y-12913110D01*
X22460760Y-14868110D02*
G75*
G03*
X22410765Y-14818110I-50010J-10D01*
G01*
D11*
X27849020Y-4192250D02*
X31674020Y-4192250D01*
D10*
X10316390Y-11058110D02*
G75*
G03*
X10266390Y-11008110I-50000J0D01*
G01*
X27013890Y-14263110D02*
G75*
G03*
X27063890Y-14313110I50010J10D01*
G01*
X32606220Y-12557080D02*
G75*
G03*
X32656220Y-12607080I50020J20D01*
G01*
X18412640Y-7248110D02*
G75*
G03*
X18362640Y-7198110I-50010J-10D01*
G01*
X20872640Y-7198110D02*
X22172640Y-7198110D01*
X17538890Y-12913110D02*
G75*
G03*
X17488890Y-12963110I0J-50000D01*
G01*
X10792640Y-7248110D02*
X10792640Y-8548110D01*
X24127640Y-4866860D02*
X24127640Y-6166860D01*
X13252640Y-8598110D02*
X14552640Y-8598110D01*
X32302640Y-12913110D02*
X33602640Y-12913110D01*
X8490140Y-9103110D02*
X9790140Y-9103110D01*
X7458890Y-9153110D02*
G75*
G03*
X7408890Y-9103110I-50000J0D01*
G01*
X27063890Y-12913110D02*
X28363890Y-12913110D01*
X12171390Y-12408110D02*
G75*
G03*
X12221390Y-12358110I0J50000D01*
G01*
X33414920Y-10104580D02*
X33414920Y-11404580D01*
X22654565Y-14618105D02*
G75*
G03*
X22604565Y-14668110I5J-50005D01*
G01*
X16586390Y-11008110D02*
G75*
G03*
X16536390Y-11058110I0J-50000D01*
G01*
X20317640Y-4866860D02*
X20317640Y-6166860D01*
X22727640Y-4866860D02*
X22727640Y-6166860D01*
X5870765Y-12913110D02*
X9313890Y-12913110D01*
X25635140Y-4816860D02*
G75*
G03*
X25585140Y-4866860I0J-50000D01*
G01*
X20267640Y-8598110D02*
G75*
G03*
X20317640Y-8548110I0J50000D01*
G01*
X32700140Y-4866860D02*
G75*
G03*
X32650140Y-4816860I-50010J-10D01*
G01*
X14126390Y-11058110D02*
X14126390Y-12358110D01*
X34207640Y-9103110D02*
G75*
G03*
X34157640Y-9153110I0J-50000D01*
G01*
D11*
X27849020Y-2617250D02*
G75*
G03*
X27749020Y-2717250I0J-100000D01*
G01*
D10*
X27063890Y-14313110D02*
X28363890Y-14313110D01*
X23601390Y-12408110D02*
G75*
G03*
X23651390Y-12358110I0J50000D01*
G01*
X9840140Y-4866860D02*
G75*
G03*
X9790140Y-4816860I-50000J0D01*
G01*
X33176790Y-9152080D02*
G75*
G03*
X33126795Y-9102080I-50000J0D01*
G01*
X5870765Y-14818110D02*
X7408890Y-14818110D01*
X8966390Y-11008110D02*
G75*
G03*
X8916390Y-11058110I0J-50000D01*
G01*
X19393890Y-14263110D02*
G75*
G03*
X19443890Y-14313110I50010J10D01*
G01*
X16160820Y-14668110D02*
G75*
G03*
X16110815Y-14618110I-50010J-10D01*
G01*
X23203890Y-12963110D02*
X23203890Y-14263110D01*
X5820765Y-14868110D02*
X5820765Y-16168110D01*
X28492640Y-7198110D02*
G75*
G03*
X28442640Y-7248110I0J-50000D01*
G01*
X33543940Y-8598110D02*
X33543940Y-8748110D01*
X15505140Y-10503110D02*
G75*
G03*
X15555140Y-10453110I0J50000D01*
G01*
X10316390Y-11058110D02*
X10316390Y-12358110D01*
X33364920Y-10054580D02*
X33176795Y-10054580D01*
X17062640Y-4816860D02*
G75*
G03*
X17012640Y-4866860I0J-50000D01*
G01*
X9840140Y-14868110D02*
G75*
G03*
X9790140Y-14818110I-50000J0D01*
G01*
X31350140Y-4816860D02*
G75*
G03*
X31300140Y-4866860I0J-50000D01*
G01*
X35557640Y-2639750D02*
X35557640Y-3939750D01*
X7408890Y-16218110D02*
G75*
G03*
X7458890Y-16168110I0J50000D01*
G01*
X9017065Y-14313110D02*
X9017065Y-14463110D01*
X15981390Y-12408110D02*
G75*
G03*
X16031390Y-12358110I0J50000D01*
G01*
X17062640Y-7198110D02*
G75*
G03*
X17012640Y-7248110I0J-50000D01*
G01*
X34157640Y-14868110D02*
X34157640Y-16168110D01*
X10871390Y-11008110D02*
G75*
G03*
X10821390Y-11058110I0J-50000D01*
G01*
X25635140Y-4816860D02*
X26935140Y-4816860D01*
X26061390Y-12358110D02*
G75*
G03*
X26111390Y-12408110I50010J10D01*
G01*
X11347640Y-8598110D02*
X12647640Y-8598110D01*
X14155140Y-10453110D02*
G75*
G03*
X14205140Y-10503110I50000J0D01*
G01*
X19443890Y-12913110D02*
X20743890Y-12913110D01*
X22222640Y-7248110D02*
X22222640Y-8548110D01*
X8367065Y-14513110D02*
X8967065Y-14513110D01*
X14631390Y-11058110D02*
X14631390Y-12358110D01*
X30868620Y-12607080D02*
G75*
G03*
X30918620Y-12557080I0J50000D01*
G01*
X18967640Y-7198110D02*
X20267640Y-7198110D01*
X12300140Y-4816860D02*
X13600140Y-4816860D01*
X23730140Y-9103110D02*
X25030140Y-9103110D01*
X31156340Y-8598110D02*
X31156340Y-8748110D01*
X9363890Y-12963110D02*
X9363890Y-14263110D01*
X20866965Y-16218115D02*
G75*
G03*
X20916965Y-16168110I-5J50005D01*
G01*
X14252640Y-14818110D02*
X14252640Y-14668110D01*
X12300140Y-6216860D02*
X13600140Y-6216860D01*
X15157640Y-7198110D02*
G75*
G03*
X15107640Y-7248110I0J-50000D01*
G01*
X26111390Y-11008110D02*
X27411390Y-11008110D01*
X12726390Y-12358110D02*
G75*
G03*
X12776390Y-12408110I50000J0D01*
G01*
X9442640Y-8598110D02*
X10742640Y-8598110D01*
X8317065Y-14313110D02*
X8317065Y-14463110D01*
X14205140Y-4816860D02*
G75*
G03*
X14155140Y-4866860I0J-50000D01*
G01*
X6982640Y-7248110D02*
G75*
G03*
X6932640Y-7198110I-50000J0D01*
G01*
X17012640Y-6166860D02*
G75*
G03*
X17062640Y-6216860I50000J0D01*
G01*
X32014920Y-10502080D02*
X32014920Y-11007080D01*
X12300140Y-4816860D02*
G75*
G03*
X12250140Y-4866860I0J-50000D01*
G01*
X8317060Y-14463110D02*
G75*
G03*
X8367065Y-14513110I50010J10D01*
G01*
X24870770Y-16168110D02*
G75*
G03*
X24920765Y-16218110I50010J10D01*
G01*
X12776390Y-12408110D02*
X14076390Y-12408110D01*
X20916965Y-16168110D02*
X20916965Y-14668110D01*
X24206390Y-11008110D02*
X25506390Y-11008110D01*
X28442640Y-8548110D02*
G75*
G03*
X28492640Y-8598110I50010J10D01*
G01*
X10871390Y-12408110D02*
X12171390Y-12408110D01*
X34157640Y-14263110D02*
G75*
G03*
X34207640Y-14313110I50010J10D01*
G01*
X25682640Y-14818110D02*
X25682640Y-14668110D01*
X22604565Y-16068110D02*
X22604565Y-14668110D01*
X9840140Y-9153110D02*
X9840140Y-10453110D01*
X9017065Y-14313110D02*
X9313890Y-14313110D01*
X25682640Y-14818110D02*
X26220765Y-14818110D01*
X9840140Y-9153110D02*
G75*
G03*
X9790140Y-9103110I-50000J0D01*
G01*
X6058890Y-9153110D02*
X6058890Y-10453110D01*
X7458890Y-9153110D02*
X7458890Y-10453110D01*
X30918620Y-12407080D02*
X32412420Y-12407080D01*
X5870360Y-12408110D02*
X7647015Y-12408110D01*
X7487640Y-7248110D02*
X7487640Y-8548110D01*
X18967640Y-4816860D02*
G75*
G03*
X18917640Y-4866860I0J-50000D01*
G01*
X21060770Y-16168110D02*
G75*
G03*
X21110765Y-16218110I50010J10D01*
G01*
X6108890Y-10503110D02*
X7408890Y-10503110D01*
X27540140Y-9103110D02*
G75*
G03*
X27490140Y-9153110I0J-50000D01*
G01*
X12221390Y-11058110D02*
X12221390Y-12358110D01*
X7408890Y-10503110D02*
G75*
G03*
X7458890Y-10453110I0J50000D01*
G01*
X21696390Y-12408110D02*
G75*
G03*
X21746390Y-12358110I0J50000D01*
G01*
X28492640Y-7198110D02*
X29792640Y-7198110D01*
X12221390Y-14868110D02*
X12221390Y-16168110D01*
X26270765Y-14868110D02*
X26270765Y-16168110D01*
X5632640Y-6216860D02*
X6932640Y-6216860D01*
X34207640Y-12913110D02*
G75*
G03*
X34157640Y-12963110I0J-50000D01*
G01*
X11773890Y-12963110D02*
X11773890Y-14263110D01*
X13173890Y-12963110D02*
G75*
G03*
X13123890Y-12913110I-50000J0D01*
G01*
X16457640Y-8598110D02*
G75*
G03*
X16507640Y-8548110I0J50000D01*
G01*
X24982640Y-14818110D02*
X24982640Y-14668110D01*
X7697015Y-11058110D02*
X7697015Y-12358110D01*
X15555140Y-9153110D02*
X15555140Y-10453110D01*
X10821390Y-12358110D02*
G75*
G03*
X10871390Y-12408110I50000J0D01*
G01*
X34207640Y-8598110D02*
X35507640Y-8598110D01*
X5870360Y-11008110D02*
G75*
G03*
X5820360Y-11058110I0J-50000D01*
G01*
X22222640Y-4866860D02*
X22222640Y-6166860D01*
X24870765Y-14868110D02*
X24870765Y-16168110D01*
X35557640Y-2639750D02*
G75*
G03*
X35507640Y-2589750I-50010J-10D01*
G01*
X26111390Y-12408110D02*
X27411390Y-12408110D01*
X13123215Y-16218110D02*
X15267015Y-16218110D01*
X10395140Y-6216860D02*
X11695140Y-6216860D01*
X18015140Y-9103110D02*
X19315140Y-9103110D01*
X26985140Y-9153110D02*
G75*
G03*
X26935140Y-9103110I-50010J-10D01*
G01*
D12*
X5013940Y-4556740D02*
G75*
G03*
X4536440Y-5034240I0J-477500D01*
G01*
D10*
X18015140Y-9103110D02*
G75*
G03*
X17965140Y-9153110I0J-50000D01*
G01*
X33596280Y-3989750D02*
G75*
G03*
X33646280Y-3939750I0J50000D01*
G01*
D12*
X27456440Y-1782050D02*
G75*
G03*
X26978940Y-2259550I0J-477500D01*
G01*
D10*
X9868890Y-14263110D02*
G75*
G03*
X9918890Y-14313110I50000J0D01*
G01*
X29842640Y-7248110D02*
X29842640Y-8548110D01*
X20822640Y-4866860D02*
X20822640Y-6166860D01*
X11773890Y-14263110D02*
G75*
G03*
X11823890Y-14313110I50000J0D01*
G01*
X7537640Y-7198110D02*
G75*
G03*
X7487640Y-7248110I0J-50000D01*
G01*
X32246280Y-2639750D02*
X32246280Y-3939750D01*
X15107640Y-7248110D02*
X15107640Y-8548110D01*
X24206390Y-12408110D02*
X25506390Y-12408110D01*
X30456340Y-8748110D02*
G75*
G03*
X30506340Y-8798110I50010J10D01*
G01*
X31776795Y-9152080D02*
X31776795Y-10452080D01*
X13650140Y-4866860D02*
X13650140Y-6166860D01*
X19365140Y-9153110D02*
G75*
G03*
X19315140Y-9103110I-50010J-10D01*
G01*
X23727015Y-14618110D02*
X22654565Y-14618110D01*
X11745140Y-9153110D02*
X11745140Y-10453110D01*
X22777640Y-8598110D02*
X24077640Y-8598110D01*
X35557640Y-11058110D02*
X35557640Y-12358110D01*
X33646280Y-2639750D02*
G75*
G03*
X33596280Y-2589750I-50010J-10D01*
G01*
X22410765Y-16218115D02*
G75*
G03*
X22460765Y-16168110I-5J50005D01*
G01*
X9918890Y-12913110D02*
X11218890Y-12913110D01*
X33176795Y-9910780D02*
X33176795Y-10054580D01*
D11*
X31674020Y-4192250D02*
G75*
G03*
X31749020Y-4117250I0J75000D01*
G01*
D10*
X23730140Y-10503110D02*
X25030140Y-10503110D01*
X8490140Y-4816860D02*
X9790140Y-4816860D01*
X24682640Y-7198110D02*
X25982640Y-7198110D01*
X27013890Y-14868110D02*
X27013890Y-16168110D01*
X23730140Y-9103110D02*
G75*
G03*
X23680140Y-9153110I0J-50000D01*
G01*
X14205140Y-10503110D02*
X15505140Y-10503110D01*
X25158890Y-12913110D02*
X26458890Y-12913110D01*
X26032640Y-7248110D02*
G75*
G03*
X25982640Y-7198110I-50010J-10D01*
G01*
X30397640Y-7198110D02*
X33602640Y-7198110D01*
X25682640Y-14668110D02*
G75*
G03*
X25632640Y-14618110I-50010J-10D01*
G01*
X13728890Y-14313110D02*
X15028890Y-14313110D01*
X25158890Y-12913110D02*
G75*
G03*
X25108890Y-12963110I0J-50000D01*
G01*
X11823890Y-12913110D02*
X13123890Y-12913110D01*
X24682640Y-8598110D02*
X25982640Y-8598110D01*
X11695140Y-10503110D02*
G75*
G03*
X11745140Y-10453110I0J50000D01*
G01*
X28890140Y-9153110D02*
X28890140Y-10453110D01*
X28492640Y-8598110D02*
X29792640Y-8598110D01*
D12*
X4536440Y-16713200D02*
X4536440Y-5034240D01*
D10*
X21348890Y-14313110D02*
X22648890Y-14313110D01*
X26935140Y-10503110D02*
G75*
G03*
X26985140Y-10453110I0J50000D01*
G01*
X35507640Y-6216860D02*
G75*
G03*
X35557640Y-6166860I0J50000D01*
G01*
X20266965Y-14618105D02*
G75*
G03*
X20216965Y-14668110I5J-50005D01*
G01*
X22301390Y-11008110D02*
G75*
G03*
X22251390Y-11058110I0J-50000D01*
G01*
X29683265Y-12913105D02*
G75*
G03*
X29633265Y-12963110I5J-50005D01*
G01*
X8837640Y-8598110D02*
G75*
G03*
X8887640Y-8548110I0J50000D01*
G01*
X9442640Y-7198110D02*
X10742640Y-7198110D01*
X8490140Y-6216860D02*
X9790140Y-6216860D01*
X24920765Y-16218110D02*
X26220765Y-16218110D01*
X14552640Y-8598110D02*
G75*
G03*
X14602640Y-8548110I0J50000D01*
G01*
X16110815Y-16215340D02*
X15510815Y-16215340D01*
X16507640Y-7248110D02*
X16507640Y-8548110D01*
X28652010Y-14868110D02*
G75*
G03*
X28602015Y-14818110I-50010J-10D01*
G01*
D11*
X31749020Y-4117250D02*
X31749020Y-2692250D01*
D10*
X19443890Y-12913110D02*
G75*
G03*
X19393890Y-12963110I0J-50000D01*
G01*
X15317015Y-14868110D02*
X15317015Y-16168110D01*
X34157640Y-9153110D02*
X34157640Y-10453110D01*
X35507640Y-14313110D02*
G75*
G03*
X35557640Y-14263110I0J50000D01*
G01*
X22301390Y-11008110D02*
X23601390Y-11008110D01*
X34207640Y-2589750D02*
X35507640Y-2589750D01*
X10633265Y-16218110D02*
X12171390Y-16218110D01*
X29395140Y-4866860D02*
X29395140Y-6166860D01*
X32302640Y-16218110D02*
X33602640Y-16218110D01*
X29921795Y-11007080D02*
X32014920Y-11007080D01*
X12250140Y-9153110D02*
X12250140Y-10453110D01*
X23253890Y-14313110D02*
X24553890Y-14313110D01*
X20866965Y-14618110D02*
X20266965Y-14618110D01*
X14252640Y-14818110D02*
X15267015Y-14818110D01*
X34157640Y-10453110D02*
G75*
G03*
X34207640Y-10503110I50010J10D01*
G01*
X34157640Y-12963110D02*
X34157640Y-14263110D01*
X30795140Y-4866860D02*
G75*
G03*
X30745140Y-4816860I-50010J-10D01*
G01*
X33374484Y-9210780D02*
X33176795Y-9210780D01*
X31826795Y-9102080D02*
X33126795Y-9102080D01*
X24920765Y-14818105D02*
G75*
G03*
X24870765Y-14868110I5J-50005D01*
G01*
X17062640Y-7198110D02*
X18362640Y-7198110D01*
X34207640Y-14818110D02*
G75*
G03*
X34157640Y-14868110I0J-50000D01*
G01*
X29395140Y-9153110D02*
X29395140Y-10453110D01*
X10821390Y-11058110D02*
X10821390Y-12358110D01*
X15510815Y-14618115D02*
G75*
G03*
X15460815Y-14668110I-5J-49995D01*
G01*
X18967640Y-6216860D02*
X20267640Y-6216860D01*
X24920765Y-14818110D02*
X24982640Y-14818110D01*
X21746390Y-11058110D02*
G75*
G03*
X21696390Y-11008110I-50010J-10D01*
G01*
X29921795Y-12407080D02*
X30218620Y-12407080D01*
X34157640Y-11058110D02*
X34157640Y-12358110D01*
X16536390Y-12358110D02*
G75*
G03*
X16586390Y-12408110I50000J0D01*
G01*
X9790140Y-16218110D02*
G75*
G03*
X9840140Y-16168110I0J50000D01*
G01*
X32296280Y-3989750D02*
X33596280Y-3989750D01*
X10345140Y-10453110D02*
G75*
G03*
X10395140Y-10503110I50000J0D01*
G01*
X11695140Y-6216860D02*
G75*
G03*
X11745140Y-6166860I0J50000D01*
G01*
X24156390Y-11058110D02*
X24156390Y-12358110D01*
X25635140Y-6216860D02*
X26935140Y-6216860D01*
X10395140Y-4816860D02*
G75*
G03*
X10345140Y-4866860I0J-50000D01*
G01*
X23680140Y-9153110D02*
X23680140Y-10453110D01*
X15317020Y-14868110D02*
G75*
G03*
X15267015Y-14818110I-50010J-10D01*
G01*
X15555140Y-4866860D02*
X15555140Y-6166860D01*
X24682640Y-7198110D02*
G75*
G03*
X24632640Y-7248110I0J-50000D01*
G01*
X20793890Y-12963110D02*
G75*
G03*
X20743890Y-12913110I-50010J-10D01*
G01*
X34207640Y-2589750D02*
G75*
G03*
X34157640Y-2639750I0J-50000D01*
G01*
X13650140Y-9153110D02*
G75*
G03*
X13600140Y-9103110I-50000J0D01*
G01*
X20872640Y-8598110D02*
X22172640Y-8598110D01*
X9363890Y-12963110D02*
G75*
G03*
X9313890Y-12913110I-50000J0D01*
G01*
X5820765Y-12963110D02*
X5820765Y-14263110D01*
X10345140Y-4866860D02*
X10345140Y-6166860D01*
X32302640Y-14818110D02*
X33602640Y-14818110D01*
X8490140Y-10503110D02*
X9790140Y-10503110D01*
X20822640Y-7248110D02*
X20822640Y-8548110D01*
X7487640Y-8548110D02*
G75*
G03*
X7537640Y-8598110I50000J0D01*
G01*
X32843940Y-8748110D02*
G75*
G03*
X32893940Y-8798110I50010J10D01*
G01*
X20346390Y-11058110D02*
X20346390Y-12358110D01*
X9313890Y-14313110D02*
G75*
G03*
X9363890Y-14263110I0J50000D01*
G01*
X34207640Y-12408110D02*
X35507640Y-12408110D01*
X26587640Y-7198110D02*
G75*
G03*
X26537640Y-7248110I0J-50000D01*
G01*
X35557640Y-12963110D02*
G75*
G03*
X35507640Y-12913110I-50010J-10D01*
G01*
X20872640Y-7198110D02*
G75*
G03*
X20822640Y-7248110I0J-50000D01*
G01*
X17300765Y-14818115D02*
G75*
G03*
X17250765Y-14868110I-5J-49995D01*
G01*
X27013890Y-16168110D02*
G75*
G03*
X27063890Y-16218110I50010J10D01*
G01*
X20267640Y-6216860D02*
G75*
G03*
X20317640Y-6166860I0J50000D01*
G01*
X23777010Y-14668110D02*
G75*
G03*
X23727015Y-14618110I-50010J-10D01*
G01*
X16586390Y-12408110D02*
X17886390Y-12408110D01*
X26508890Y-12963110D02*
G75*
G03*
X26458890Y-12913110I-50010J-10D01*
G01*
X25108890Y-14263110D02*
G75*
G03*
X25158890Y-14313110I50010J10D01*
G01*
X33493940Y-8798110D02*
G75*
G03*
X33543940Y-8748110I0J50000D01*
G01*
X33652640Y-12963110D02*
X33652640Y-14263110D01*
X33424484Y-9260780D02*
X33424484Y-9860780D01*
X33602640Y-16218110D02*
G75*
G03*
X33652640Y-16168110I0J50000D01*
G01*
X22698890Y-12963110D02*
G75*
G03*
X22648890Y-12913110I-50010J-10D01*
G01*
X32252640Y-14263110D02*
G75*
G03*
X32302640Y-14313110I50010J10D01*
G01*
X15555140Y-4866860D02*
G75*
G03*
X15505140Y-4816860I-50000J0D01*
G01*
X11823890Y-14313110D02*
X13123890Y-14313110D01*
X18967640Y-4816860D02*
X20267640Y-4816860D01*
X25635140Y-10503110D02*
X26935140Y-10503110D01*
X15107640Y-8548110D02*
G75*
G03*
X15157640Y-8598110I50000J0D01*
G01*
X19920140Y-9103110D02*
X21220140Y-9103110D01*
X31747640Y-14868110D02*
X31747640Y-16168110D01*
X34157640Y-3939750D02*
G75*
G03*
X34207640Y-3989750I50010J10D01*
G01*
X27937640Y-7248110D02*
G75*
G03*
X27887640Y-7198110I-50010J-10D01*
G01*
X11218890Y-14313110D02*
G75*
G03*
X11268890Y-14263110I0J50000D01*
G01*
X18917640Y-4866860D02*
X18917640Y-6166860D01*
X34207640Y-3989750D02*
X35507640Y-3989750D01*
X32656220Y-12607080D02*
X33256220Y-12607080D01*
X29445140Y-4816860D02*
X30745140Y-4816860D01*
X35557640Y-14868110D02*
X35557640Y-16168110D01*
X9442640Y-7198110D02*
G75*
G03*
X9392640Y-7248110I0J-50000D01*
G01*
X31156340Y-8598110D02*
X32843940Y-8598110D01*
X35507640Y-12408110D02*
G75*
G03*
X35557640Y-12358110I0J50000D01*
G01*
X28016390Y-11008110D02*
G75*
G03*
X27966390Y-11058110I0J-50000D01*
G01*
X26220765Y-16218115D02*
G75*
G03*
X26270765Y-16168110I-5J50005D01*
G01*
X32296280Y-2589750D02*
G75*
G03*
X32246280Y-2639750I0J-50000D01*
G01*
X13728890Y-12913110D02*
G75*
G03*
X13678890Y-12963110I0J-50000D01*
G01*
X33364920Y-11454580D02*
X33306220Y-11454580D01*
X21348890Y-12913110D02*
X22648890Y-12913110D01*
X22460765Y-14868110D02*
X22460765Y-16168110D01*
X32843940Y-8598110D02*
X32843940Y-8748110D01*
X10395140Y-10503110D02*
X11695140Y-10503110D01*
X20872640Y-4816860D02*
X22172640Y-4816860D01*
D11*
X27749020Y-2717250D02*
X27749020Y-4092250D01*
D10*
X18967640Y-8598110D02*
X20267640Y-8598110D01*
X16031390Y-11058110D02*
X16031390Y-12358110D01*
X22222640Y-7248110D02*
G75*
G03*
X22172640Y-7198110I-50010J-10D01*
G01*
X24156390Y-12358110D02*
G75*
G03*
X24206390Y-12408110I50010J10D01*
G01*
X29366390Y-11058110D02*
G75*
G03*
X29316390Y-11008110I-50010J-10D01*
G01*
X16160815Y-16165340D02*
X16160815Y-14668110D01*
X6108890Y-9103110D02*
X7408890Y-9103110D01*
X5820770Y-14263110D02*
G75*
G03*
X5870765Y-14313110I50000J0D01*
G01*
X12647640Y-8598110D02*
G75*
G03*
X12697640Y-8548110I0J50000D01*
G01*
X31300140Y-6166860D02*
G75*
G03*
X31350140Y-6216860I50010J10D01*
G01*
X17886390Y-12408110D02*
G75*
G03*
X17936390Y-12358110I0J50000D01*
G01*
X11347640Y-7198110D02*
X12647640Y-7198110D01*
X24553890Y-14313110D02*
G75*
G03*
X24603890Y-14263110I0J50000D01*
G01*
X26032640Y-7248110D02*
X26032640Y-8548110D01*
X16983890Y-12963110D02*
G75*
G03*
X16933890Y-12913110I-50000J0D01*
G01*
X33306220Y-11454580D02*
X33306220Y-11598380D01*
X32462420Y-12298380D02*
X32462420Y-12357080D01*
X28890140Y-4866860D02*
X28890140Y-6166860D01*
X20916960Y-14668110D02*
G75*
G03*
X20866965Y-14618110I-50010J-10D01*
G01*
X33374484Y-9910780D02*
X33176795Y-9910780D01*
X8252015Y-14818115D02*
G75*
G03*
X8202015Y-14868110I-5J-49995D01*
G01*
X35557640Y-9153110D02*
X35557640Y-10453110D01*
X22727640Y-7248110D02*
X22727640Y-8548110D01*
X27490140Y-6166860D02*
G75*
G03*
X27540140Y-6216860I50010J10D01*
G01*
X35557640Y-7248110D02*
X35557640Y-8548110D01*
X8202015Y-14868110D02*
X8202015Y-16168110D01*
X33414920Y-10104580D02*
G75*
G03*
X33364920Y-10054580I-50020J-20D01*
G01*
X31350140Y-4816860D02*
X32650140Y-4816860D01*
X13202640Y-8548110D02*
G75*
G03*
X13252640Y-8598110I50000J0D01*
G01*
X10345140Y-6166860D02*
G75*
G03*
X10395140Y-6216860I50000J0D01*
G01*
X27063890Y-16218110D02*
X28602015Y-16218110D01*
X31106340Y-8798110D02*
G75*
G03*
X31156340Y-8748110I0J50000D01*
G01*
X13073215Y-16168110D02*
X13073215Y-14668110D01*
X28840140Y-10503110D02*
G75*
G03*
X28890140Y-10453110I0J50000D01*
G01*
X18967640Y-7198110D02*
G75*
G03*
X18917640Y-7248110I0J-50000D01*
G01*
X10633265Y-14818115D02*
G75*
G03*
X10583265Y-14868110I-5J-49995D01*
G01*
X21775140Y-9153110D02*
X21775140Y-10453110D01*
X12776390Y-11008110D02*
X14076390Y-11008110D01*
X20822640Y-8548110D02*
G75*
G03*
X20872640Y-8598110I50010J10D01*
G01*
X13123215Y-14618115D02*
G75*
G03*
X13073215Y-14668110I-5J-49995D01*
G01*
X9392640Y-8548110D02*
G75*
G03*
X9442640Y-8598110I50000J0D01*
G01*
X23253890Y-12913110D02*
X24553890Y-12913110D01*
X8202010Y-16168110D02*
G75*
G03*
X8252015Y-16218110I50010J10D01*
G01*
X14205140Y-9103110D02*
X15505140Y-9103110D01*
X22604570Y-16068110D02*
G75*
G03*
X22654565Y-16118110I50010J10D01*
G01*
X15583890Y-14263110D02*
G75*
G03*
X15633890Y-14313110I50000J0D01*
G01*
X12221390Y-14868110D02*
G75*
G03*
X12171390Y-14818110I-50000J0D01*
G01*
X34207640Y-7198110D02*
X35507640Y-7198110D01*
X7458890Y-14868110D02*
G75*
G03*
X7408890Y-14818110I-50000J0D01*
G01*
X20396390Y-12408110D02*
X21696390Y-12408110D01*
D13*
X5710000Y-10246250D02*
X5750000Y-10286250D01*
X5750000Y-10246250D02*
X5710000Y-10286250D01*
X16931250Y-15498750D02*
X16971250Y-15538750D01*
X16971250Y-15498750D02*
X16931250Y-15538750D01*
X31495000Y-9768750D02*
X31535000Y-9808750D01*
X31535000Y-9768750D02*
X31495000Y-9808750D01*
D10*
X4776559Y-17510724D02*
X4776559Y-17310724D01*
X4776559Y-17310724D02*
X4824178Y-17310724D01*
X4824178Y-17310724D02*
X4852750Y-17320248D01*
X4852750Y-17320248D02*
X4871797Y-17339295D01*
X4871797Y-17339295D02*
X4881321Y-17358343D01*
X4881321Y-17358343D02*
X4890845Y-17396438D01*
X4890845Y-17396438D02*
X4890845Y-17425010D01*
X4890845Y-17425010D02*
X4881321Y-17463105D01*
X4881321Y-17463105D02*
X4871797Y-17482152D01*
X4871797Y-17482152D02*
X4852750Y-17501200D01*
X4852750Y-17501200D02*
X4824178Y-17510724D01*
X4824178Y-17510724D02*
X4776559Y-17510724D01*
X4976559Y-17510724D02*
X4976559Y-17377390D01*
X4976559Y-17415486D02*
X4986083Y-17396438D01*
X4986083Y-17396438D02*
X4995607Y-17386914D01*
X4995607Y-17386914D02*
X5014654Y-17377390D01*
X5014654Y-17377390D02*
X5033702Y-17377390D01*
X5100369Y-17510724D02*
X5100369Y-17377390D01*
X5100369Y-17310724D02*
X5090845Y-17320248D01*
X5090845Y-17320248D02*
X5100369Y-17329771D01*
X5100369Y-17329771D02*
X5109892Y-17320248D01*
X5109892Y-17320248D02*
X5100369Y-17310724D01*
X5100369Y-17310724D02*
X5100369Y-17329771D01*
X5224178Y-17510724D02*
X5205130Y-17501200D01*
X5205130Y-17501200D02*
X5195607Y-17482152D01*
X5195607Y-17482152D02*
X5195607Y-17310724D01*
X5328940Y-17510724D02*
X5309892Y-17501200D01*
X5309892Y-17501200D02*
X5300369Y-17482152D01*
X5300369Y-17482152D02*
X5300369Y-17310724D01*
X5557511Y-17510724D02*
X5557511Y-17310724D01*
X5557511Y-17310724D02*
X5624178Y-17453581D01*
X5624178Y-17453581D02*
X5690845Y-17310724D01*
X5690845Y-17310724D02*
X5690845Y-17510724D01*
X5871797Y-17510724D02*
X5871797Y-17405962D01*
X5871797Y-17405962D02*
X5862273Y-17386914D01*
X5862273Y-17386914D02*
X5843226Y-17377390D01*
X5843226Y-17377390D02*
X5805130Y-17377390D01*
X5805130Y-17377390D02*
X5786083Y-17386914D01*
X5871797Y-17501200D02*
X5852749Y-17510724D01*
X5852749Y-17510724D02*
X5805130Y-17510724D01*
X5805130Y-17510724D02*
X5786083Y-17501200D01*
X5786083Y-17501200D02*
X5776559Y-17482152D01*
X5776559Y-17482152D02*
X5776559Y-17463105D01*
X5776559Y-17463105D02*
X5786083Y-17444057D01*
X5786083Y-17444057D02*
X5805130Y-17434533D01*
X5805130Y-17434533D02*
X5852749Y-17434533D01*
X5852749Y-17434533D02*
X5871797Y-17425010D01*
X5967035Y-17377390D02*
X5967035Y-17577390D01*
X5967035Y-17386914D02*
X5986083Y-17377390D01*
X5986083Y-17377390D02*
X6024178Y-17377390D01*
X6024178Y-17377390D02*
X6043226Y-17386914D01*
X6043226Y-17386914D02*
X6052749Y-17396438D01*
X6052749Y-17396438D02*
X6062273Y-17415486D01*
X6062273Y-17415486D02*
X6062273Y-17472629D01*
X6062273Y-17472629D02*
X6052749Y-17491676D01*
X6052749Y-17491676D02*
X6043226Y-17501200D01*
X6043226Y-17501200D02*
X6024178Y-17510724D01*
X6024178Y-17510724D02*
X5986083Y-17510724D01*
X5986083Y-17510724D02*
X5967035Y-17501200D01*
X6147988Y-17491676D02*
X6157511Y-17501200D01*
X6157511Y-17501200D02*
X6147988Y-17510724D01*
X6147988Y-17510724D02*
X6138464Y-17501200D01*
X6138464Y-17501200D02*
X6147988Y-17491676D01*
X6147988Y-17491676D02*
X6147988Y-17510724D01*
X6147988Y-17386914D02*
X6157511Y-17396438D01*
X6157511Y-17396438D02*
X6147988Y-17405962D01*
X6147988Y-17405962D02*
X6138464Y-17396438D01*
X6138464Y-17396438D02*
X6147988Y-17386914D01*
X6147988Y-17386914D02*
X6147988Y-17405962D01*
D13*
X4488940Y-17818200D02*
X4528940Y-17858200D01*
X4528940Y-17818200D02*
X4488940Y-17858200D01*
D10*
X4814654Y-17730724D02*
X4833702Y-17730724D01*
X4833702Y-17730724D02*
X4852750Y-17740248D01*
X4852750Y-17740248D02*
X4862273Y-17749771D01*
X4862273Y-17749771D02*
X4871797Y-17768819D01*
X4871797Y-17768819D02*
X4881321Y-17806914D01*
X4881321Y-17806914D02*
X4881321Y-17854533D01*
X4881321Y-17854533D02*
X4871797Y-17892629D01*
X4871797Y-17892629D02*
X4862273Y-17911676D01*
X4862273Y-17911676D02*
X4852750Y-17921200D01*
X4852750Y-17921200D02*
X4833702Y-17930724D01*
X4833702Y-17930724D02*
X4814654Y-17930724D01*
X4814654Y-17930724D02*
X4795607Y-17921200D01*
X4795607Y-17921200D02*
X4786083Y-17911676D01*
X4786083Y-17911676D02*
X4776559Y-17892629D01*
X4776559Y-17892629D02*
X4767035Y-17854533D01*
X4767035Y-17854533D02*
X4767035Y-17806914D01*
X4767035Y-17806914D02*
X4776559Y-17768819D01*
X4776559Y-17768819D02*
X4786083Y-17749771D01*
X4786083Y-17749771D02*
X4795607Y-17740248D01*
X4795607Y-17740248D02*
X4814654Y-17730724D01*
X4967035Y-17911676D02*
X4976559Y-17921200D01*
X4976559Y-17921200D02*
X4967035Y-17930724D01*
X4967035Y-17930724D02*
X4957511Y-17921200D01*
X4957511Y-17921200D02*
X4967035Y-17911676D01*
X4967035Y-17911676D02*
X4967035Y-17930724D01*
X5147988Y-17797390D02*
X5147988Y-17930724D01*
X5100369Y-17721200D02*
X5052750Y-17864057D01*
X5052750Y-17864057D02*
X5176559Y-17864057D01*
X5290845Y-17730724D02*
X5309892Y-17730724D01*
X5309892Y-17730724D02*
X5328940Y-17740248D01*
X5328940Y-17740248D02*
X5338464Y-17749771D01*
X5338464Y-17749771D02*
X5347988Y-17768819D01*
X5347988Y-17768819D02*
X5357511Y-17806914D01*
X5357511Y-17806914D02*
X5357511Y-17854533D01*
X5357511Y-17854533D02*
X5347988Y-17892629D01*
X5347988Y-17892629D02*
X5338464Y-17911676D01*
X5338464Y-17911676D02*
X5328940Y-17921200D01*
X5328940Y-17921200D02*
X5309892Y-17930724D01*
X5309892Y-17930724D02*
X5290845Y-17930724D01*
X5290845Y-17930724D02*
X5271797Y-17921200D01*
X5271797Y-17921200D02*
X5262273Y-17911676D01*
X5262273Y-17911676D02*
X5252750Y-17892629D01*
X5252750Y-17892629D02*
X5243226Y-17854533D01*
X5243226Y-17854533D02*
X5243226Y-17806914D01*
X5243226Y-17806914D02*
X5252750Y-17768819D01*
X5252750Y-17768819D02*
X5262273Y-17749771D01*
X5262273Y-17749771D02*
X5271797Y-17740248D01*
X5271797Y-17740248D02*
X5290845Y-17730724D01*
X5481321Y-17730724D02*
X5500369Y-17730724D01*
X5500369Y-17730724D02*
X5519416Y-17740248D01*
X5519416Y-17740248D02*
X5528940Y-17749771D01*
X5528940Y-17749771D02*
X5538464Y-17768819D01*
X5538464Y-17768819D02*
X5547988Y-17806914D01*
X5547988Y-17806914D02*
X5547988Y-17854533D01*
X5547988Y-17854533D02*
X5538464Y-17892629D01*
X5538464Y-17892629D02*
X5528940Y-17911676D01*
X5528940Y-17911676D02*
X5519416Y-17921200D01*
X5519416Y-17921200D02*
X5500369Y-17930724D01*
X5500369Y-17930724D02*
X5481321Y-17930724D01*
X5481321Y-17930724D02*
X5462273Y-17921200D01*
X5462273Y-17921200D02*
X5452750Y-17911676D01*
X5452750Y-17911676D02*
X5443226Y-17892629D01*
X5443226Y-17892629D02*
X5433702Y-17854533D01*
X5433702Y-17854533D02*
X5433702Y-17806914D01*
X5433702Y-17806914D02*
X5443226Y-17768819D01*
X5443226Y-17768819D02*
X5452750Y-17749771D01*
X5452750Y-17749771D02*
X5462273Y-17740248D01*
X5462273Y-17740248D02*
X5481321Y-17730724D01*
X5633702Y-17930724D02*
X5633702Y-17797390D01*
X5633702Y-17816438D02*
X5643226Y-17806914D01*
X5643226Y-17806914D02*
X5662273Y-17797390D01*
X5662273Y-17797390D02*
X5690845Y-17797390D01*
X5690845Y-17797390D02*
X5709892Y-17806914D01*
X5709892Y-17806914D02*
X5719416Y-17825962D01*
X5719416Y-17825962D02*
X5719416Y-17930724D01*
X5719416Y-17825962D02*
X5728940Y-17806914D01*
X5728940Y-17806914D02*
X5747988Y-17797390D01*
X5747988Y-17797390D02*
X5776559Y-17797390D01*
X5776559Y-17797390D02*
X5795607Y-17806914D01*
X5795607Y-17806914D02*
X5805130Y-17825962D01*
X5805130Y-17825962D02*
X5805130Y-17930724D01*
X5900369Y-17930724D02*
X5900369Y-17797390D01*
X5900369Y-17816438D02*
X5909892Y-17806914D01*
X5909892Y-17806914D02*
X5928940Y-17797390D01*
X5928940Y-17797390D02*
X5957511Y-17797390D01*
X5957511Y-17797390D02*
X5976559Y-17806914D01*
X5976559Y-17806914D02*
X5986083Y-17825962D01*
X5986083Y-17825962D02*
X5986083Y-17930724D01*
X5986083Y-17825962D02*
X5995607Y-17806914D01*
X5995607Y-17806914D02*
X6014654Y-17797390D01*
X6014654Y-17797390D02*
X6043226Y-17797390D01*
X6043226Y-17797390D02*
X6062273Y-17806914D01*
X6062273Y-17806914D02*
X6071797Y-17825962D01*
X6071797Y-17825962D02*
X6071797Y-17930724D01*
X6462273Y-17721200D02*
X6290845Y-17978343D01*
X6719416Y-17730724D02*
X6738464Y-17730724D01*
X6738464Y-17730724D02*
X6757512Y-17740248D01*
X6757512Y-17740248D02*
X6767035Y-17749771D01*
X6767035Y-17749771D02*
X6776559Y-17768819D01*
X6776559Y-17768819D02*
X6786083Y-17806914D01*
X6786083Y-17806914D02*
X6786083Y-17854533D01*
X6786083Y-17854533D02*
X6776559Y-17892629D01*
X6776559Y-17892629D02*
X6767035Y-17911676D01*
X6767035Y-17911676D02*
X6757512Y-17921200D01*
X6757512Y-17921200D02*
X6738464Y-17930724D01*
X6738464Y-17930724D02*
X6719416Y-17930724D01*
X6719416Y-17930724D02*
X6700369Y-17921200D01*
X6700369Y-17921200D02*
X6690845Y-17911676D01*
X6690845Y-17911676D02*
X6681321Y-17892629D01*
X6681321Y-17892629D02*
X6671797Y-17854533D01*
X6671797Y-17854533D02*
X6671797Y-17806914D01*
X6671797Y-17806914D02*
X6681321Y-17768819D01*
X6681321Y-17768819D02*
X6690845Y-17749771D01*
X6690845Y-17749771D02*
X6700369Y-17740248D01*
X6700369Y-17740248D02*
X6719416Y-17730724D01*
X6871797Y-17911676D02*
X6881321Y-17921200D01*
X6881321Y-17921200D02*
X6871797Y-17930724D01*
X6871797Y-17930724D02*
X6862273Y-17921200D01*
X6862273Y-17921200D02*
X6871797Y-17911676D01*
X6871797Y-17911676D02*
X6871797Y-17930724D01*
X7005131Y-17730724D02*
X7024178Y-17730724D01*
X7024178Y-17730724D02*
X7043226Y-17740248D01*
X7043226Y-17740248D02*
X7052750Y-17749771D01*
X7052750Y-17749771D02*
X7062273Y-17768819D01*
X7062273Y-17768819D02*
X7071797Y-17806914D01*
X7071797Y-17806914D02*
X7071797Y-17854533D01*
X7071797Y-17854533D02*
X7062273Y-17892629D01*
X7062273Y-17892629D02*
X7052750Y-17911676D01*
X7052750Y-17911676D02*
X7043226Y-17921200D01*
X7043226Y-17921200D02*
X7024178Y-17930724D01*
X7024178Y-17930724D02*
X7005131Y-17930724D01*
X7005131Y-17930724D02*
X6986083Y-17921200D01*
X6986083Y-17921200D02*
X6976559Y-17911676D01*
X6976559Y-17911676D02*
X6967035Y-17892629D01*
X6967035Y-17892629D02*
X6957512Y-17854533D01*
X6957512Y-17854533D02*
X6957512Y-17806914D01*
X6957512Y-17806914D02*
X6967035Y-17768819D01*
X6967035Y-17768819D02*
X6976559Y-17749771D01*
X6976559Y-17749771D02*
X6986083Y-17740248D01*
X6986083Y-17740248D02*
X7005131Y-17730724D01*
X7262273Y-17930724D02*
X7147988Y-17930724D01*
X7205131Y-17930724D02*
X7205131Y-17730724D01*
X7205131Y-17730724D02*
X7186083Y-17759295D01*
X7186083Y-17759295D02*
X7167035Y-17778343D01*
X7167035Y-17778343D02*
X7147988Y-17787867D01*
X7443226Y-17730724D02*
X7347988Y-17730724D01*
X7347988Y-17730724D02*
X7338464Y-17825962D01*
X7338464Y-17825962D02*
X7347988Y-17816438D01*
X7347988Y-17816438D02*
X7367035Y-17806914D01*
X7367035Y-17806914D02*
X7414654Y-17806914D01*
X7414654Y-17806914D02*
X7433702Y-17816438D01*
X7433702Y-17816438D02*
X7443226Y-17825962D01*
X7443226Y-17825962D02*
X7452750Y-17845010D01*
X7452750Y-17845010D02*
X7452750Y-17892629D01*
X7452750Y-17892629D02*
X7443226Y-17911676D01*
X7443226Y-17911676D02*
X7433702Y-17921200D01*
X7433702Y-17921200D02*
X7414654Y-17930724D01*
X7414654Y-17930724D02*
X7367035Y-17930724D01*
X7367035Y-17930724D02*
X7347988Y-17921200D01*
X7347988Y-17921200D02*
X7338464Y-17911676D01*
X7519416Y-17730724D02*
X7652750Y-17730724D01*
X7652750Y-17730724D02*
X7567035Y-17930724D01*
X7719416Y-17730724D02*
X7719416Y-17768819D01*
X7795607Y-17730724D02*
X7795607Y-17768819D01*
X8090845Y-18006914D02*
X8081321Y-17997390D01*
X8081321Y-17997390D02*
X8062274Y-17968819D01*
X8062274Y-17968819D02*
X8052750Y-17949771D01*
X8052750Y-17949771D02*
X8043226Y-17921200D01*
X8043226Y-17921200D02*
X8033702Y-17873581D01*
X8033702Y-17873581D02*
X8033702Y-17835486D01*
X8033702Y-17835486D02*
X8043226Y-17787867D01*
X8043226Y-17787867D02*
X8052750Y-17759295D01*
X8052750Y-17759295D02*
X8062274Y-17740248D01*
X8062274Y-17740248D02*
X8081321Y-17711676D01*
X8081321Y-17711676D02*
X8090845Y-17702152D01*
X8147988Y-17730724D02*
X8271797Y-17730724D01*
X8271797Y-17730724D02*
X8205131Y-17806914D01*
X8205131Y-17806914D02*
X8233702Y-17806914D01*
X8233702Y-17806914D02*
X8252750Y-17816438D01*
X8252750Y-17816438D02*
X8262274Y-17825962D01*
X8262274Y-17825962D02*
X8271797Y-17845010D01*
X8271797Y-17845010D02*
X8271797Y-17892629D01*
X8271797Y-17892629D02*
X8262274Y-17911676D01*
X8262274Y-17911676D02*
X8252750Y-17921200D01*
X8252750Y-17921200D02*
X8233702Y-17930724D01*
X8233702Y-17930724D02*
X8176559Y-17930724D01*
X8176559Y-17930724D02*
X8157512Y-17921200D01*
X8157512Y-17921200D02*
X8147988Y-17911676D01*
X8509893Y-17930724D02*
X8509893Y-17730724D01*
X8595607Y-17930724D02*
X8595607Y-17825962D01*
X8595607Y-17825962D02*
X8586083Y-17806914D01*
X8586083Y-17806914D02*
X8567036Y-17797390D01*
X8567036Y-17797390D02*
X8538464Y-17797390D01*
X8538464Y-17797390D02*
X8519417Y-17806914D01*
X8519417Y-17806914D02*
X8509893Y-17816438D01*
X8719417Y-17930724D02*
X8700369Y-17921200D01*
X8700369Y-17921200D02*
X8690845Y-17911676D01*
X8690845Y-17911676D02*
X8681321Y-17892629D01*
X8681321Y-17892629D02*
X8681321Y-17835486D01*
X8681321Y-17835486D02*
X8690845Y-17816438D01*
X8690845Y-17816438D02*
X8700369Y-17806914D01*
X8700369Y-17806914D02*
X8719417Y-17797390D01*
X8719417Y-17797390D02*
X8747988Y-17797390D01*
X8747988Y-17797390D02*
X8767036Y-17806914D01*
X8767036Y-17806914D02*
X8776559Y-17816438D01*
X8776559Y-17816438D02*
X8786083Y-17835486D01*
X8786083Y-17835486D02*
X8786083Y-17892629D01*
X8786083Y-17892629D02*
X8776559Y-17911676D01*
X8776559Y-17911676D02*
X8767036Y-17921200D01*
X8767036Y-17921200D02*
X8747988Y-17930724D01*
X8747988Y-17930724D02*
X8719417Y-17930724D01*
X8900369Y-17930724D02*
X8881321Y-17921200D01*
X8881321Y-17921200D02*
X8871798Y-17902152D01*
X8871798Y-17902152D02*
X8871798Y-17730724D01*
X9052750Y-17921200D02*
X9033702Y-17930724D01*
X9033702Y-17930724D02*
X8995607Y-17930724D01*
X8995607Y-17930724D02*
X8976559Y-17921200D01*
X8976559Y-17921200D02*
X8967036Y-17902152D01*
X8967036Y-17902152D02*
X8967036Y-17825962D01*
X8967036Y-17825962D02*
X8976559Y-17806914D01*
X8976559Y-17806914D02*
X8995607Y-17797390D01*
X8995607Y-17797390D02*
X9033702Y-17797390D01*
X9033702Y-17797390D02*
X9052750Y-17806914D01*
X9052750Y-17806914D02*
X9062274Y-17825962D01*
X9062274Y-17825962D02*
X9062274Y-17845010D01*
X9062274Y-17845010D02*
X8967036Y-17864057D01*
X9138464Y-17921200D02*
X9157512Y-17930724D01*
X9157512Y-17930724D02*
X9195607Y-17930724D01*
X9195607Y-17930724D02*
X9214655Y-17921200D01*
X9214655Y-17921200D02*
X9224179Y-17902152D01*
X9224179Y-17902152D02*
X9224179Y-17892629D01*
X9224179Y-17892629D02*
X9214655Y-17873581D01*
X9214655Y-17873581D02*
X9195607Y-17864057D01*
X9195607Y-17864057D02*
X9167036Y-17864057D01*
X9167036Y-17864057D02*
X9147988Y-17854533D01*
X9147988Y-17854533D02*
X9138464Y-17835486D01*
X9138464Y-17835486D02*
X9138464Y-17825962D01*
X9138464Y-17825962D02*
X9147988Y-17806914D01*
X9147988Y-17806914D02*
X9167036Y-17797390D01*
X9167036Y-17797390D02*
X9195607Y-17797390D01*
X9195607Y-17797390D02*
X9214655Y-17806914D01*
X9290845Y-18006914D02*
X9300369Y-17997390D01*
X9300369Y-17997390D02*
X9319417Y-17968819D01*
X9319417Y-17968819D02*
X9328940Y-17949771D01*
X9328940Y-17949771D02*
X9338464Y-17921200D01*
X9338464Y-17921200D02*
X9347988Y-17873581D01*
X9347988Y-17873581D02*
X9347988Y-17835486D01*
X9347988Y-17835486D02*
X9338464Y-17787867D01*
X9338464Y-17787867D02*
X9328940Y-17759295D01*
X9328940Y-17759295D02*
X9319417Y-17740248D01*
X9319417Y-17740248D02*
X9300369Y-17711676D01*
X9300369Y-17711676D02*
X9290845Y-17702152D01*
M02*
