  0
SECTION
  2
HEADER
  9
$ANGBASE
  50
0.0
  9
$ANGDIR
  70
1
  9
$MEASUREMENT
  70
1
  0
ENDSEC
  0
SECTION
  2
TABLES
  0
TABLE
  2
LTYPE
  70
4
  0
LTYPE
  5
40F
  2
CONTINUOUS
  70
0
  3
Solid line
  72
65
  73
0
  40
0.0
  0
LTYPE
  5
410
  2
DASHDOT
 70
0
  3
Dash Dot ____ _ ____ _
 72
65
 73
4
 40
2.0
 49
1.25
 49
-0.25
 49
0.25
 49
-0.25
  0
LTYPE
  5
411
  2
DASHED
 70
0
  3
Dashed __ __ __ __ __
 72
65
 73
2
 40
0.75
 49
0.5
 49
-0.25
  0
LTYPE
  5
43B
  2
DOTTED
 70
0
  3
Dotted .  .  .  .
 72
65
 73
2
 40
0.2
 49
0.0
 49
-0.2
  0
ENDTAB
  0
TABLE
  2
STYLE
  70
4
  0
STYLE
  2
KICAD
  70
0
  40
0
  41
1
  42
1
  50
0
  71
0
  3
isocp.shx
  0
STYLE
  2
KICADB
  70
0
  40
0
  41
1
  42
1
  50
0
  71
0
  3
isocp.shx
  0
STYLE
  2
KICADI
  70
0
  40
0
  41
1
  42
1
  50
15
  71
0
  3
isocp.shx
  0
STYLE
  2
KICADBI
  70
0
  40
0
  41
1
  42
1
  50
15
  71
0
  3
isocp.shx
  0
ENDTAB
  0
TABLE
  2
LAYER
  70
1
  0
LAYER
  2
BLACK
  70
0
  62
7
  6
CONTINUOUS
  0
ENDTAB
  0
ENDSEC
  0
SECTION
  2
ENTITIES
0
LINE
8
BLACK
6
CONTINUOUS
10
238.785
20
-124.289
11
32.2835
21
-124.289
0
ARC
8
BLACK
10
238.785
20
-101.657
40
5.00385
50
0.000572523
51
90
0
ARC
8
BLACK
10
32.2835
20
-119.285
40
5.0038
50
-180
51
-90
0
LINE
8
BLACK
6
CONTINUOUS
10
30.8611
20
-96.6533
11
238.785
21
-96.6533
0
LINE
8
BLACK
6
CONTINUOUS
10
243.789
20
-101.657
11
243.789
21
-119.285
0
ARC
8
BLACK
10
30.8611
20
-100.235
40
3.5814
50
90
51
180
0
ARC
8
BLACK
10
238.785
20
-119.285
40
5.0038
50
-90
51
0.000572523
0
LINE
8
BLACK
6
CONTINUOUS
10
27.2797
20
-119.285
11
27.2797
21
-100.235
0
LINE
8
BLACK
6
CONTINUOUS
10
105.123
20
-116.197
11
107.323
21
-118.397
0
LINE
8
BLACK
6
CONTINUOUS
10
107.323
20
-116.197
11
105.123
21
-118.397
0
LINE
8
BLACK
6
CONTINUOUS
10
126.167
20
-100.322
11
128.367
21
-102.522
0
LINE
8
BLACK
6
CONTINUOUS
10
128.367
20
-100.322
11
126.167
21
-102.522
0
LINE
8
BLACK
6
CONTINUOUS
10
208.31
20
-100.322
11
210.51
21
-102.522
0
LINE
8
BLACK
6
CONTINUOUS
10
210.51
20
-100.322
11
208.31
21
-102.522
0
LINE
8
BLACK
6
CONTINUOUS
10
229.354
20
-116.197
11
231.554
21
-118.397
0
LINE
8
BLACK
6
CONTINUOUS
10
231.554
20
-116.197
11
229.354
21
-118.397
0
LINE
8
BLACK
6
CONTINUOUS
10
29.6809
20
-127.489
11
29.6809
21
-125.489
0
LINE
8
BLACK
6
CONTINUOUS
10
29.6809
20
-125.489
11
30.1571
21
-125.489
0
LINE
8
BLACK
6
CONTINUOUS
10
30.1571
20
-125.489
11
30.4428
21
-125.584
0
LINE
8
BLACK
6
CONTINUOUS
10
30.4428
20
-125.584
11
30.6333
21
-125.775
0
LINE
8
BLACK
6
CONTINUOUS
10
30.6333
20
-125.775
11
30.7285
21
-125.965
0
LINE
8
BLACK
6
CONTINUOUS
10
30.7285
20
-125.965
11
30.8237
21
-126.346
0
LINE
8
BLACK
6
CONTINUOUS
10
30.8237
20
-126.346
11
30.8237
21
-126.632
0
LINE
8
BLACK
6
CONTINUOUS
10
30.8237
20
-126.632
11
30.7285
21
-127.013
0
LINE
8
BLACK
6
CONTINUOUS
10
30.7285
20
-127.013
11
30.6333
21
-127.203
0
LINE
8
BLACK
6
CONTINUOUS
10
30.6333
20
-127.203
11
30.4428
21
-127.394
0
LINE
8
BLACK
6
CONTINUOUS
10
30.4428
20
-127.394
11
30.1571
21
-127.489
0
LINE
8
BLACK
6
CONTINUOUS
10
30.1571
20
-127.489
11
29.6809
21
-127.489
0
LINE
8
BLACK
6
CONTINUOUS
10
31.6809
20
-127.489
11
31.6809
21
-126.155
0
LINE
8
BLACK
6
CONTINUOUS
10
31.6809
20
-126.536
11
31.7761
21
-126.346
0
LINE
8
BLACK
6
CONTINUOUS
10
31.7761
20
-126.346
11
31.8714
21
-126.251
0
LINE
8
BLACK
6
CONTINUOUS
10
31.8714
20
-126.251
11
32.0618
21
-126.155
0
LINE
8
BLACK
6
CONTINUOUS
10
32.0618
20
-126.155
11
32.2523
21
-126.155
0
LINE
8
BLACK
6
CONTINUOUS
10
32.919
20
-127.489
11
32.919
21
-126.155
0
LINE
8
BLACK
6
CONTINUOUS
10
32.919
20
-125.489
11
32.8237
21
-125.584
0
LINE
8
BLACK
6
CONTINUOUS
10
32.8237
20
-125.584
11
32.919
21
-125.679
0
LINE
8
BLACK
6
CONTINUOUS
10
32.919
20
-125.679
11
33.0142
21
-125.584
0
LINE
8
BLACK
6
CONTINUOUS
10
33.0142
20
-125.584
11
32.919
21
-125.489
0
LINE
8
BLACK
6
CONTINUOUS
10
32.919
20
-125.489
11
32.919
21
-125.679
0
LINE
8
BLACK
6
CONTINUOUS
10
34.1571
20
-127.489
11
33.9666
21
-127.394
0
LINE
8
BLACK
6
CONTINUOUS
10
33.9666
20
-127.394
11
33.8714
21
-127.203
0
LINE
8
BLACK
6
CONTINUOUS
10
33.8714
20
-127.203
11
33.8714
21
-125.489
0
LINE
8
BLACK
6
CONTINUOUS
10
35.2047
20
-127.489
11
35.0142
21
-127.394
0
LINE
8
BLACK
6
CONTINUOUS
10
35.0142
20
-127.394
11
34.919
21
-127.203
0
LINE
8
BLACK
6
CONTINUOUS
10
34.919
20
-127.203
11
34.919
21
-125.489
0
LINE
8
BLACK
6
CONTINUOUS
10
37.4904
20
-127.489
11
37.4904
21
-125.489
0
LINE
8
BLACK
6
CONTINUOUS
10
37.4904
20
-125.489
11
38.1571
21
-126.917
0
LINE
8
BLACK
6
CONTINUOUS
10
38.1571
20
-126.917
11
38.8237
21
-125.489
0
LINE
8
BLACK
6
CONTINUOUS
10
38.8237
20
-125.489
11
38.8237
21
-127.489
0
LINE
8
BLACK
6
CONTINUOUS
10
40.6333
20
-127.489
11
40.6333
21
-126.441
0
LINE
8
BLACK
6
CONTINUOUS
10
40.6333
20
-126.441
11
40.538
21
-126.251
0
LINE
8
BLACK
6
CONTINUOUS
10
40.538
20
-126.251
11
40.3476
21
-126.155
0
LINE
8
BLACK
6
CONTINUOUS
10
40.3476
20
-126.155
11
39.9666
21
-126.155
0
LINE
8
BLACK
6
CONTINUOUS
10
39.9666
20
-126.155
11
39.7761
21
-126.251
0
LINE
8
BLACK
6
CONTINUOUS
10
40.6333
20
-127.394
11
40.4428
21
-127.489
0
LINE
8
BLACK
6
CONTINUOUS
10
40.4428
20
-127.489
11
39.9666
21
-127.489
0
LINE
8
BLACK
6
CONTINUOUS
10
39.9666
20
-127.489
11
39.7761
21
-127.394
0
LINE
8
BLACK
6
CONTINUOUS
10
39.7761
20
-127.394
11
39.6809
21
-127.203
0
LINE
8
BLACK
6
CONTINUOUS
10
39.6809
20
-127.203
11
39.6809
21
-127.013
0
LINE
8
BLACK
6
CONTINUOUS
10
39.6809
20
-127.013
11
39.7761
21
-126.822
0
LINE
8
BLACK
6
CONTINUOUS
10
39.7761
20
-126.822
11
39.9666
21
-126.727
0
LINE
8
BLACK
6
CONTINUOUS
10
39.9666
20
-126.727
11
40.4428
21
-126.727
0
LINE
8
BLACK
6
CONTINUOUS
10
40.4428
20
-126.727
11
40.6333
21
-126.632
0
LINE
8
BLACK
6
CONTINUOUS
10
41.5857
20
-126.155
11
41.5857
21
-128.155
0
LINE
8
BLACK
6
CONTINUOUS
10
41.5857
20
-126.251
11
41.7761
21
-126.155
0
LINE
8
BLACK
6
CONTINUOUS
10
41.7761
20
-126.155
11
42.1571
21
-126.155
0
LINE
8
BLACK
6
CONTINUOUS
10
42.1571
20
-126.155
11
42.3476
21
-126.251
0
LINE
8
BLACK
6
CONTINUOUS
10
42.3476
20
-126.251
11
42.4428
21
-126.346
0
LINE
8
BLACK
6
CONTINUOUS
10
42.4428
20
-126.346
11
42.538
21
-126.536
0
LINE
8
BLACK
6
CONTINUOUS
10
42.538
20
-126.536
11
42.538
21
-127.108
0
LINE
8
BLACK
6
CONTINUOUS
10
42.538
20
-127.108
11
42.4428
21
-127.298
0
LINE
8
BLACK
6
CONTINUOUS
10
42.4428
20
-127.298
11
42.3476
21
-127.394
0
LINE
8
BLACK
6
CONTINUOUS
10
42.3476
20
-127.394
11
42.1571
21
-127.489
0
LINE
8
BLACK
6
CONTINUOUS
10
42.1571
20
-127.489
11
41.7761
21
-127.489
0
LINE
8
BLACK
6
CONTINUOUS
10
41.7761
20
-127.489
11
41.5857
21
-127.394
0
LINE
8
BLACK
6
CONTINUOUS
10
43.3952
20
-127.298
11
43.4904
21
-127.394
0
LINE
8
BLACK
6
CONTINUOUS
10
43.4904
20
-127.394
11
43.3952
21
-127.489
0
LINE
8
BLACK
6
CONTINUOUS
10
43.3952
20
-127.489
11
43.2999
21
-127.394
0
LINE
8
BLACK
6
CONTINUOUS
10
43.2999
20
-127.394
11
43.3952
21
-127.298
0
LINE
8
BLACK
6
CONTINUOUS
10
43.3952
20
-127.298
11
43.3952
21
-127.489
0
LINE
8
BLACK
6
CONTINUOUS
10
43.3952
20
-126.251
11
43.4904
21
-126.346
0
LINE
8
BLACK
6
CONTINUOUS
10
43.4904
20
-126.346
11
43.3952
21
-126.441
0
LINE
8
BLACK
6
CONTINUOUS
10
43.3952
20
-126.441
11
43.2999
21
-126.346
0
LINE
8
BLACK
6
CONTINUOUS
10
43.2999
20
-126.346
11
43.3952
21
-126.251
0
LINE
8
BLACK
6
CONTINUOUS
10
43.3952
20
-126.251
11
43.3952
21
-126.441
0
LINE
8
BLACK
6
CONTINUOUS
10
25.2047
20
-129.764
11
27.2047
21
-131.764
0
LINE
8
BLACK
6
CONTINUOUS
10
27.2047
20
-129.764
11
25.2047
21
-131.764
0
LINE
8
BLACK
6
CONTINUOUS
10
29.5857
20
-129.879
11
29.6809
21
-129.784
0
LINE
8
BLACK
6
CONTINUOUS
10
29.6809
20
-129.784
11
29.8714
21
-129.689
0
LINE
8
BLACK
6
CONTINUOUS
10
29.8714
20
-129.689
11
30.3476
21
-129.689
0
LINE
8
BLACK
6
CONTINUOUS
10
30.3476
20
-129.689
11
30.538
21
-129.784
0
LINE
8
BLACK
6
CONTINUOUS
10
30.538
20
-129.784
11
30.6333
21
-129.879
0
LINE
8
BLACK
6
CONTINUOUS
10
30.6333
20
-129.879
11
30.7285
21
-130.07
0
LINE
8
BLACK
6
CONTINUOUS
10
30.7285
20
-130.07
11
30.7285
21
-130.26
0
LINE
8
BLACK
6
CONTINUOUS
10
30.7285
20
-130.26
11
30.6333
21
-130.546
0
LINE
8
BLACK
6
CONTINUOUS
10
30.6333
20
-130.546
11
29.4904
21
-131.689
0
LINE
8
BLACK
6
CONTINUOUS
10
29.4904
20
-131.689
11
30.7285
21
-131.689
0
LINE
8
BLACK
6
CONTINUOUS
10
31.5857
20
-131.498
11
31.6809
21
-131.594
0
LINE
8
BLACK
6
CONTINUOUS
10
31.6809
20
-131.594
11
31.5857
21
-131.689
0
LINE
8
BLACK
6
CONTINUOUS
10
31.5857
20
-131.689
11
31.4904
21
-131.594
0
LINE
8
BLACK
6
CONTINUOUS
10
31.4904
20
-131.594
11
31.5857
21
-131.498
0
LINE
8
BLACK
6
CONTINUOUS
10
31.5857
20
-131.498
11
31.5857
21
-131.689
0
LINE
8
BLACK
6
CONTINUOUS
10
32.4428
20
-129.879
11
32.538
21
-129.784
0
LINE
8
BLACK
6
CONTINUOUS
10
32.538
20
-129.784
11
32.7285
21
-129.689
0
LINE
8
BLACK
6
CONTINUOUS
10
32.7285
20
-129.689
11
33.2047
21
-129.689
0
LINE
8
BLACK
6
CONTINUOUS
10
33.2047
20
-129.689
11
33.3952
21
-129.784
0
LINE
8
BLACK
6
CONTINUOUS
10
33.3952
20
-129.784
11
33.4904
21
-129.879
0
LINE
8
BLACK
6
CONTINUOUS
10
33.4904
20
-129.879
11
33.5857
21
-130.07
0
LINE
8
BLACK
6
CONTINUOUS
10
33.5857
20
-130.07
11
33.5857
21
-130.26
0
LINE
8
BLACK
6
CONTINUOUS
10
33.5857
20
-130.26
11
33.4904
21
-130.546
0
LINE
8
BLACK
6
CONTINUOUS
10
33.4904
20
-130.546
11
32.3476
21
-131.689
0
LINE
8
BLACK
6
CONTINUOUS
10
32.3476
20
-131.689
11
33.5857
21
-131.689
0
LINE
8
BLACK
6
CONTINUOUS
10
34.8237
20
-129.689
11
35.0142
21
-129.689
0
LINE
8
BLACK
6
CONTINUOUS
10
35.0142
20
-129.689
11
35.2047
21
-129.784
0
LINE
8
BLACK
6
CONTINUOUS
10
35.2047
20
-129.784
11
35.2999
21
-129.879
0
LINE
8
BLACK
6
CONTINUOUS
10
35.2999
20
-129.879
11
35.3952
21
-130.07
0
LINE
8
BLACK
6
CONTINUOUS
10
35.3952
20
-130.07
11
35.4904
21
-130.451
0
LINE
8
BLACK
6
CONTINUOUS
10
35.4904
20
-130.451
11
35.4904
21
-130.927
0
LINE
8
BLACK
6
CONTINUOUS
10
35.4904
20
-130.927
11
35.3952
21
-131.308
0
LINE
8
BLACK
6
CONTINUOUS
10
35.3952
20
-131.308
11
35.2999
21
-131.498
0
LINE
8
BLACK
6
CONTINUOUS
10
35.2999
20
-131.498
11
35.2047
21
-131.594
0
LINE
8
BLACK
6
CONTINUOUS
10
35.2047
20
-131.594
11
35.0142
21
-131.689
0
LINE
8
BLACK
6
CONTINUOUS
10
35.0142
20
-131.689
11
34.8237
21
-131.689
0
LINE
8
BLACK
6
CONTINUOUS
10
34.8237
20
-131.689
11
34.6333
21
-131.594
0
LINE
8
BLACK
6
CONTINUOUS
10
34.6333
20
-131.594
11
34.538
21
-131.498
0
LINE
8
BLACK
6
CONTINUOUS
10
34.538
20
-131.498
11
34.4428
21
-131.308
0
LINE
8
BLACK
6
CONTINUOUS
10
34.4428
20
-131.308
11
34.3476
21
-130.927
0
LINE
8
BLACK
6
CONTINUOUS
10
34.3476
20
-130.927
11
34.3476
21
-130.451
0
LINE
8
BLACK
6
CONTINUOUS
10
34.3476
20
-130.451
11
34.4428
21
-130.07
0
LINE
8
BLACK
6
CONTINUOUS
10
34.4428
20
-130.07
11
34.538
21
-129.879
0
LINE
8
BLACK
6
CONTINUOUS
10
34.538
20
-129.879
11
34.6333
21
-129.784
0
LINE
8
BLACK
6
CONTINUOUS
10
34.6333
20
-129.784
11
34.8237
21
-129.689
0
LINE
8
BLACK
6
CONTINUOUS
10
36.7285
20
-129.689
11
36.919
21
-129.689
0
LINE
8
BLACK
6
CONTINUOUS
10
36.919
20
-129.689
11
37.1095
21
-129.784
0
LINE
8
BLACK
6
CONTINUOUS
10
37.1095
20
-129.784
11
37.2047
21
-129.879
0
LINE
8
BLACK
6
CONTINUOUS
10
37.2047
20
-129.879
11
37.2999
21
-130.07
0
LINE
8
BLACK
6
CONTINUOUS
10
37.2999
20
-130.07
11
37.3952
21
-130.451
0
LINE
8
BLACK
6
CONTINUOUS
10
37.3952
20
-130.451
11
37.3952
21
-130.927
0
LINE
8
BLACK
6
CONTINUOUS
10
37.3952
20
-130.927
11
37.2999
21
-131.308
0
LINE
8
BLACK
6
CONTINUOUS
10
37.2999
20
-131.308
11
37.2047
21
-131.498
0
LINE
8
BLACK
6
CONTINUOUS
10
37.2047
20
-131.498
11
37.1095
21
-131.594
0
LINE
8
BLACK
6
CONTINUOUS
10
37.1095
20
-131.594
11
36.919
21
-131.689
0
LINE
8
BLACK
6
CONTINUOUS
10
36.919
20
-131.689
11
36.7285
21
-131.689
0
LINE
8
BLACK
6
CONTINUOUS
10
36.7285
20
-131.689
11
36.538
21
-131.594
0
LINE
8
BLACK
6
CONTINUOUS
10
36.538
20
-131.594
11
36.4428
21
-131.498
0
LINE
8
BLACK
6
CONTINUOUS
10
36.4428
20
-131.498
11
36.3476
21
-131.308
0
LINE
8
BLACK
6
CONTINUOUS
10
36.3476
20
-131.308
11
36.2523
21
-130.927
0
LINE
8
BLACK
6
CONTINUOUS
10
36.2523
20
-130.927
11
36.2523
21
-130.451
0
LINE
8
BLACK
6
CONTINUOUS
10
36.2523
20
-130.451
11
36.3476
21
-130.07
0
LINE
8
BLACK
6
CONTINUOUS
10
36.3476
20
-130.07
11
36.4428
21
-129.879
0
LINE
8
BLACK
6
CONTINUOUS
10
36.4428
20
-129.879
11
36.538
21
-129.784
0
LINE
8
BLACK
6
CONTINUOUS
10
36.538
20
-129.784
11
36.7285
21
-129.689
0
LINE
8
BLACK
6
CONTINUOUS
10
38.2523
20
-131.689
11
38.2523
21
-130.355
0
LINE
8
BLACK
6
CONTINUOUS
10
38.2523
20
-130.546
11
38.3476
21
-130.451
0
LINE
8
BLACK
6
CONTINUOUS
10
38.3476
20
-130.451
11
38.538
21
-130.355
0
LINE
8
BLACK
6
CONTINUOUS
10
38.538
20
-130.355
11
38.8237
21
-130.355
0
LINE
8
BLACK
6
CONTINUOUS
10
38.8237
20
-130.355
11
39.0142
21
-130.451
0
LINE
8
BLACK
6
CONTINUOUS
10
39.0142
20
-130.451
11
39.1095
21
-130.641
0
LINE
8
BLACK
6
CONTINUOUS
10
39.1095
20
-130.641
11
39.1095
21
-131.689
0
LINE
8
BLACK
6
CONTINUOUS
10
39.1095
20
-130.641
11
39.2047
21
-130.451
0
LINE
8
BLACK
6
CONTINUOUS
10
39.2047
20
-130.451
11
39.3952
21
-130.355
0
LINE
8
BLACK
6
CONTINUOUS
10
39.3952
20
-130.355
11
39.6809
21
-130.355
0
LINE
8
BLACK
6
CONTINUOUS
10
39.6809
20
-130.355
11
39.8714
21
-130.451
0
LINE
8
BLACK
6
CONTINUOUS
10
39.8714
20
-130.451
11
39.9666
21
-130.641
0
LINE
8
BLACK
6
CONTINUOUS
10
39.9666
20
-130.641
11
39.9666
21
-131.689
0
LINE
8
BLACK
6
CONTINUOUS
10
40.919
20
-131.689
11
40.919
21
-130.355
0
LINE
8
BLACK
6
CONTINUOUS
10
40.919
20
-130.546
11
41.0142
21
-130.451
0
LINE
8
BLACK
6
CONTINUOUS
10
41.0142
20
-130.451
11
41.2047
21
-130.355
0
LINE
8
BLACK
6
CONTINUOUS
10
41.2047
20
-130.355
11
41.4904
21
-130.355
0
LINE
8
BLACK
6
CONTINUOUS
10
41.4904
20
-130.355
11
41.6809
21
-130.451
0
LINE
8
BLACK
6
CONTINUOUS
10
41.6809
20
-130.451
11
41.7761
21
-130.641
0
LINE
8
BLACK
6
CONTINUOUS
10
41.7761
20
-130.641
11
41.7761
21
-131.689
0
LINE
8
BLACK
6
CONTINUOUS
10
41.7761
20
-130.641
11
41.8714
21
-130.451
0
LINE
8
BLACK
6
CONTINUOUS
10
41.8714
20
-130.451
11
42.0618
21
-130.355
0
LINE
8
BLACK
6
CONTINUOUS
10
42.0618
20
-130.355
11
42.3476
21
-130.355
0
LINE
8
BLACK
6
CONTINUOUS
10
42.3476
20
-130.355
11
42.538
21
-130.451
0
LINE
8
BLACK
6
CONTINUOUS
10
42.538
20
-130.451
11
42.6333
21
-130.641
0
LINE
8
BLACK
6
CONTINUOUS
10
42.6333
20
-130.641
11
42.6333
21
-131.689
0
LINE
8
BLACK
6
CONTINUOUS
10
46.538
20
-129.594
11
44.8237
21
-132.165
0
LINE
8
BLACK
6
CONTINUOUS
10
49.1095
20
-129.689
11
49.2999
21
-129.689
0
LINE
8
BLACK
6
CONTINUOUS
10
49.2999
20
-129.689
11
49.4904
21
-129.784
0
LINE
8
BLACK
6
CONTINUOUS
10
49.4904
20
-129.784
11
49.5857
21
-129.879
0
LINE
8
BLACK
6
CONTINUOUS
10
49.5857
20
-129.879
11
49.6809
21
-130.07
0
LINE
8
BLACK
6
CONTINUOUS
10
49.6809
20
-130.07
11
49.7761
21
-130.451
0
LINE
8
BLACK
6
CONTINUOUS
10
49.7761
20
-130.451
11
49.7761
21
-130.927
0
LINE
8
BLACK
6
CONTINUOUS
10
49.7761
20
-130.927
11
49.6809
21
-131.308
0
LINE
8
BLACK
6
CONTINUOUS
10
49.6809
20
-131.308
11
49.5857
21
-131.498
0
LINE
8
BLACK
6
CONTINUOUS
10
49.5857
20
-131.498
11
49.4904
21
-131.594
0
LINE
8
BLACK
6
CONTINUOUS
10
49.4904
20
-131.594
11
49.2999
21
-131.689
0
LINE
8
BLACK
6
CONTINUOUS
10
49.2999
20
-131.689
11
49.1095
21
-131.689
0
LINE
8
BLACK
6
CONTINUOUS
10
49.1095
20
-131.689
11
48.919
21
-131.594
0
LINE
8
BLACK
6
CONTINUOUS
10
48.919
20
-131.594
11
48.8237
21
-131.498
0
LINE
8
BLACK
6
CONTINUOUS
10
48.8237
20
-131.498
11
48.7285
21
-131.308
0
LINE
8
BLACK
6
CONTINUOUS
10
48.7285
20
-131.308
11
48.6333
21
-130.927
0
LINE
8
BLACK
6
CONTINUOUS
10
48.6333
20
-130.927
11
48.6333
21
-130.451
0
LINE
8
BLACK
6
CONTINUOUS
10
48.6333
20
-130.451
11
48.7285
21
-130.07
0
LINE
8
BLACK
6
CONTINUOUS
10
48.7285
20
-130.07
11
48.8237
21
-129.879
0
LINE
8
BLACK
6
CONTINUOUS
10
48.8237
20
-129.879
11
48.919
21
-129.784
0
LINE
8
BLACK
6
CONTINUOUS
10
48.919
20
-129.784
11
49.1095
21
-129.689
0
LINE
8
BLACK
6
CONTINUOUS
10
50.6333
20
-131.498
11
50.7285
21
-131.594
0
LINE
8
BLACK
6
CONTINUOUS
10
50.7285
20
-131.594
11
50.6333
21
-131.689
0
LINE
8
BLACK
6
CONTINUOUS
10
50.6333
20
-131.689
11
50.538
21
-131.594
0
LINE
8
BLACK
6
CONTINUOUS
10
50.538
20
-131.594
11
50.6333
21
-131.498
0
LINE
8
BLACK
6
CONTINUOUS
10
50.6333
20
-131.498
11
50.6333
21
-131.689
0
LINE
8
BLACK
6
CONTINUOUS
10
51.9666
20
-129.689
11
52.1571
21
-129.689
0
LINE
8
BLACK
6
CONTINUOUS
10
52.1571
20
-129.689
11
52.3476
21
-129.784
0
LINE
8
BLACK
6
CONTINUOUS
10
52.3476
20
-129.784
11
52.4428
21
-129.879
0
LINE
8
BLACK
6
CONTINUOUS
10
52.4428
20
-129.879
11
52.538
21
-130.07
0
LINE
8
BLACK
6
CONTINUOUS
10
52.538
20
-130.07
11
52.6333
21
-130.451
0
LINE
8
BLACK
6
CONTINUOUS
10
52.6333
20
-130.451
11
52.6333
21
-130.927
0
LINE
8
BLACK
6
CONTINUOUS
10
52.6333
20
-130.927
11
52.538
21
-131.308
0
LINE
8
BLACK
6
CONTINUOUS
10
52.538
20
-131.308
11
52.4428
21
-131.498
0
LINE
8
BLACK
6
CONTINUOUS
10
52.4428
20
-131.498
11
52.3476
21
-131.594
0
LINE
8
BLACK
6
CONTINUOUS
10
52.3476
20
-131.594
11
52.1571
21
-131.689
0
LINE
8
BLACK
6
CONTINUOUS
10
52.1571
20
-131.689
11
51.9666
21
-131.689
0
LINE
8
BLACK
6
CONTINUOUS
10
51.9666
20
-131.689
11
51.7761
21
-131.594
0
LINE
8
BLACK
6
CONTINUOUS
10
51.7761
20
-131.594
11
51.6809
21
-131.498
0
LINE
8
BLACK
6
CONTINUOUS
10
51.6809
20
-131.498
11
51.5857
21
-131.308
0
LINE
8
BLACK
6
CONTINUOUS
10
51.5857
20
-131.308
11
51.4904
21
-130.927
0
LINE
8
BLACK
6
CONTINUOUS
10
51.4904
20
-130.927
11
51.4904
21
-130.451
0
LINE
8
BLACK
6
CONTINUOUS
10
51.4904
20
-130.451
11
51.5857
21
-130.07
0
LINE
8
BLACK
6
CONTINUOUS
10
51.5857
20
-130.07
11
51.6809
21
-129.879
0
LINE
8
BLACK
6
CONTINUOUS
10
51.6809
20
-129.879
11
51.7761
21
-129.784
0
LINE
8
BLACK
6
CONTINUOUS
10
51.7761
20
-129.784
11
51.9666
21
-129.689
0
LINE
8
BLACK
6
CONTINUOUS
10
53.7761
20
-130.546
11
53.5857
21
-130.451
0
LINE
8
BLACK
6
CONTINUOUS
10
53.5857
20
-130.451
11
53.4904
21
-130.355
0
LINE
8
BLACK
6
CONTINUOUS
10
53.4904
20
-130.355
11
53.3952
21
-130.165
0
LINE
8
BLACK
6
CONTINUOUS
10
53.3952
20
-130.165
11
53.3952
21
-130.07
0
LINE
8
BLACK
6
CONTINUOUS
10
53.3952
20
-130.07
11
53.4904
21
-129.879
0
LINE
8
BLACK
6
CONTINUOUS
10
53.4904
20
-129.879
11
53.5857
21
-129.784
0
LINE
8
BLACK
6
CONTINUOUS
10
53.5857
20
-129.784
11
53.7761
21
-129.689
0
LINE
8
BLACK
6
CONTINUOUS
10
53.7761
20
-129.689
11
54.1571
21
-129.689
0
LINE
8
BLACK
6
CONTINUOUS
10
54.1571
20
-129.689
11
54.3476
21
-129.784
0
LINE
8
BLACK
6
CONTINUOUS
10
54.3476
20
-129.784
11
54.4428
21
-129.879
0
LINE
8
BLACK
6
CONTINUOUS
10
54.4428
20
-129.879
11
54.538
21
-130.07
0
LINE
8
BLACK
6
CONTINUOUS
10
54.538
20
-130.07
11
54.538
21
-130.165
0
LINE
8
BLACK
6
CONTINUOUS
10
54.538
20
-130.165
11
54.4428
21
-130.355
0
LINE
8
BLACK
6
CONTINUOUS
10
54.4428
20
-130.355
11
54.3476
21
-130.451
0
LINE
8
BLACK
6
CONTINUOUS
10
54.3476
20
-130.451
11
54.1571
21
-130.546
0
LINE
8
BLACK
6
CONTINUOUS
10
54.1571
20
-130.546
11
53.7761
21
-130.546
0
LINE
8
BLACK
6
CONTINUOUS
10
53.7761
20
-130.546
11
53.5857
21
-130.641
0
LINE
8
BLACK
6
CONTINUOUS
10
53.5857
20
-130.641
11
53.4904
21
-130.736
0
LINE
8
BLACK
6
CONTINUOUS
10
53.4904
20
-130.736
11
53.3952
21
-130.927
0
LINE
8
BLACK
6
CONTINUOUS
10
53.3952
20
-130.927
11
53.3952
21
-131.308
0
LINE
8
BLACK
6
CONTINUOUS
10
53.3952
20
-131.308
11
53.4904
21
-131.498
0
LINE
8
BLACK
6
CONTINUOUS
10
53.4904
20
-131.498
11
53.5857
21
-131.594
0
LINE
8
BLACK
6
CONTINUOUS
10
53.5857
20
-131.594
11
53.7761
21
-131.689
0
LINE
8
BLACK
6
CONTINUOUS
10
53.7761
20
-131.689
11
54.1571
21
-131.689
0
LINE
8
BLACK
6
CONTINUOUS
10
54.1571
20
-131.689
11
54.3476
21
-131.594
0
LINE
8
BLACK
6
CONTINUOUS
10
54.3476
20
-131.594
11
54.4428
21
-131.498
0
LINE
8
BLACK
6
CONTINUOUS
10
54.4428
20
-131.498
11
54.538
21
-131.308
0
LINE
8
BLACK
6
CONTINUOUS
10
54.538
20
-131.308
11
54.538
21
-130.927
0
LINE
8
BLACK
6
CONTINUOUS
10
54.538
20
-130.927
11
54.4428
21
-130.736
0
LINE
8
BLACK
6
CONTINUOUS
10
54.4428
20
-130.736
11
54.3476
21
-130.641
0
LINE
8
BLACK
6
CONTINUOUS
10
54.3476
20
-130.641
11
54.1571
21
-130.546
0
LINE
8
BLACK
6
CONTINUOUS
10
56.2523
20
-129.689
11
55.8714
21
-129.689
0
LINE
8
BLACK
6
CONTINUOUS
10
55.8714
20
-129.689
11
55.6809
21
-129.784
0
LINE
8
BLACK
6
CONTINUOUS
10
55.6809
20
-129.784
11
55.5857
21
-129.879
0
LINE
8
BLACK
6
CONTINUOUS
10
55.5857
20
-129.879
11
55.3952
21
-130.165
0
LINE
8
BLACK
6
CONTINUOUS
10
55.3952
20
-130.165
11
55.2999
21
-130.546
0
LINE
8
BLACK
6
CONTINUOUS
10
55.2999
20
-130.546
11
55.2999
21
-131.308
0
LINE
8
BLACK
6
CONTINUOUS
10
55.2999
20
-131.308
11
55.3952
21
-131.498
0
LINE
8
BLACK
6
CONTINUOUS
10
55.3952
20
-131.498
11
55.4904
21
-131.594
0
LINE
8
BLACK
6
CONTINUOUS
10
55.4904
20
-131.594
11
55.6809
21
-131.689
0
LINE
8
BLACK
6
CONTINUOUS
10
55.6809
20
-131.689
11
56.0618
21
-131.689
0
LINE
8
BLACK
6
CONTINUOUS
10
56.0618
20
-131.689
11
56.2523
21
-131.594
0
LINE
8
BLACK
6
CONTINUOUS
10
56.2523
20
-131.594
11
56.3476
21
-131.498
0
LINE
8
BLACK
6
CONTINUOUS
10
56.3476
20
-131.498
11
56.4428
21
-131.308
0
LINE
8
BLACK
6
CONTINUOUS
10
56.4428
20
-131.308
11
56.4428
21
-130.832
0
LINE
8
BLACK
6
CONTINUOUS
10
56.4428
20
-130.832
11
56.3476
21
-130.641
0
LINE
8
BLACK
6
CONTINUOUS
10
56.3476
20
-130.641
11
56.2523
21
-130.546
0
LINE
8
BLACK
6
CONTINUOUS
10
56.2523
20
-130.546
11
56.0618
21
-130.451
0
LINE
8
BLACK
6
CONTINUOUS
10
56.0618
20
-130.451
11
55.6809
21
-130.451
0
LINE
8
BLACK
6
CONTINUOUS
10
55.6809
20
-130.451
11
55.4904
21
-130.546
0
LINE
8
BLACK
6
CONTINUOUS
10
55.4904
20
-130.546
11
55.3952
21
-130.641
0
LINE
8
BLACK
6
CONTINUOUS
10
55.3952
20
-130.641
11
55.2999
21
-130.832
0
LINE
8
BLACK
6
CONTINUOUS
10
58.1571
20
-129.689
11
57.7761
21
-129.689
0
LINE
8
BLACK
6
CONTINUOUS
10
57.7761
20
-129.689
11
57.5857
21
-129.784
0
LINE
8
BLACK
6
CONTINUOUS
10
57.5857
20
-129.784
11
57.4904
21
-129.879
0
LINE
8
BLACK
6
CONTINUOUS
10
57.4904
20
-129.879
11
57.2999
21
-130.165
0
LINE
8
BLACK
6
CONTINUOUS
10
57.2999
20
-130.165
11
57.2047
21
-130.546
0
LINE
8
BLACK
6
CONTINUOUS
10
57.2047
20
-130.546
11
57.2047
21
-131.308
0
LINE
8
BLACK
6
CONTINUOUS
10
57.2047
20
-131.308
11
57.2999
21
-131.498
0
LINE
8
BLACK
6
CONTINUOUS
10
57.2999
20
-131.498
11
57.3952
21
-131.594
0
LINE
8
BLACK
6
CONTINUOUS
10
57.3952
20
-131.594
11
57.5857
21
-131.689
0
LINE
8
BLACK
6
CONTINUOUS
10
57.5857
20
-131.689
11
57.9666
21
-131.689
0
LINE
8
BLACK
6
CONTINUOUS
10
57.9666
20
-131.689
11
58.1571
21
-131.594
0
LINE
8
BLACK
6
CONTINUOUS
10
58.1571
20
-131.594
11
58.2523
21
-131.498
0
LINE
8
BLACK
6
CONTINUOUS
10
58.2523
20
-131.498
11
58.3476
21
-131.308
0
LINE
8
BLACK
6
CONTINUOUS
10
58.3476
20
-131.308
11
58.3476
21
-130.832
0
LINE
8
BLACK
6
CONTINUOUS
10
58.3476
20
-130.832
11
58.2523
21
-130.641
0
LINE
8
BLACK
6
CONTINUOUS
10
58.2523
20
-130.641
11
58.1571
21
-130.546
0
LINE
8
BLACK
6
CONTINUOUS
10
58.1571
20
-130.546
11
57.9666
21
-130.451
0
LINE
8
BLACK
6
CONTINUOUS
10
57.9666
20
-130.451
11
57.5857
21
-130.451
0
LINE
8
BLACK
6
CONTINUOUS
10
57.5857
20
-130.451
11
57.3952
21
-130.546
0
LINE
8
BLACK
6
CONTINUOUS
10
57.3952
20
-130.546
11
57.2999
21
-130.641
0
LINE
8
BLACK
6
CONTINUOUS
10
57.2999
20
-130.641
11
57.2047
21
-130.832
0
LINE
8
BLACK
6
CONTINUOUS
10
59.1095
20
-129.689
11
59.1095
21
-130.07
0
LINE
8
BLACK
6
CONTINUOUS
10
59.8714
20
-129.689
11
59.8714
21
-130.07
0
LINE
8
BLACK
6
CONTINUOUS
10
62.8238
20
-132.451
11
62.7285
21
-132.355
0
LINE
8
BLACK
6
CONTINUOUS
10
62.7285
20
-132.355
11
62.538
21
-132.07
0
LINE
8
BLACK
6
CONTINUOUS
10
62.538
20
-132.07
11
62.4428
21
-131.879
0
LINE
8
BLACK
6
CONTINUOUS
10
62.4428
20
-131.879
11
62.3476
21
-131.594
0
LINE
8
BLACK
6
CONTINUOUS
10
62.3476
20
-131.594
11
62.2523
21
-131.117
0
LINE
8
BLACK
6
CONTINUOUS
10
62.2523
20
-131.117
11
62.2523
21
-130.736
0
LINE
8
BLACK
6
CONTINUOUS
10
62.2523
20
-130.736
11
62.3476
21
-130.26
0
LINE
8
BLACK
6
CONTINUOUS
10
62.3476
20
-130.26
11
62.4428
21
-129.975
0
LINE
8
BLACK
6
CONTINUOUS
10
62.4428
20
-129.975
11
62.538
21
-129.784
0
LINE
8
BLACK
6
CONTINUOUS
10
62.538
20
-129.784
11
62.7285
21
-129.498
0
LINE
8
BLACK
6
CONTINUOUS
10
62.7285
20
-129.498
11
62.8238
21
-129.403
0
LINE
8
BLACK
6
CONTINUOUS
10
64.4428
20
-130.355
11
64.4428
21
-131.689
0
LINE
8
BLACK
6
CONTINUOUS
10
63.9666
20
-129.594
11
63.4904
21
-131.022
0
LINE
8
BLACK
6
CONTINUOUS
10
63.4904
20
-131.022
11
64.7285
21
-131.022
0
LINE
8
BLACK
6
CONTINUOUS
10
67.0142
20
-131.689
11
67.0142
21
-129.689
0
LINE
8
BLACK
6
CONTINUOUS
10
67.8714
20
-131.689
11
67.8714
21
-130.641
0
LINE
8
BLACK
6
CONTINUOUS
10
67.8714
20
-130.641
11
67.7761
21
-130.451
0
LINE
8
BLACK
6
CONTINUOUS
10
67.7761
20
-130.451
11
67.5857
21
-130.355
0
LINE
8
BLACK
6
CONTINUOUS
10
67.5857
20
-130.355
11
67.2999
21
-130.355
0
LINE
8
BLACK
6
CONTINUOUS
10
67.2999
20
-130.355
11
67.1095
21
-130.451
0
LINE
8
BLACK
6
CONTINUOUS
10
67.1095
20
-130.451
11
67.0142
21
-130.546
0
LINE
8
BLACK
6
CONTINUOUS
10
69.1095
20
-131.689
11
68.919
21
-131.594
0
LINE
8
BLACK
6
CONTINUOUS
10
68.919
20
-131.594
11
68.8238
21
-131.498
0
LINE
8
BLACK
6
CONTINUOUS
10
68.8238
20
-131.498
11
68.7285
21
-131.308
0
LINE
8
BLACK
6
CONTINUOUS
10
68.7285
20
-131.308
11
68.7285
21
-130.736
0
LINE
8
BLACK
6
CONTINUOUS
10
68.7285
20
-130.736
11
68.8238
21
-130.546
0
LINE
8
BLACK
6
CONTINUOUS
10
68.8238
20
-130.546
11
68.919
21
-130.451
0
LINE
8
BLACK
6
CONTINUOUS
10
68.919
20
-130.451
11
69.1095
21
-130.355
0
LINE
8
BLACK
6
CONTINUOUS
10
69.1095
20
-130.355
11
69.3952
21
-130.355
0
LINE
8
BLACK
6
CONTINUOUS
10
69.3952
20
-130.355
11
69.5857
21
-130.451
0
LINE
8
BLACK
6
CONTINUOUS
10
69.5857
20
-130.451
11
69.6809
21
-130.546
0
LINE
8
BLACK
6
CONTINUOUS
10
69.6809
20
-130.546
11
69.7761
21
-130.736
0
LINE
8
BLACK
6
CONTINUOUS
10
69.7761
20
-130.736
11
69.7761
21
-131.308
0
LINE
8
BLACK
6
CONTINUOUS
10
69.7761
20
-131.308
11
69.6809
21
-131.498
0
LINE
8
BLACK
6
CONTINUOUS
10
69.6809
20
-131.498
11
69.5857
21
-131.594
0
LINE
8
BLACK
6
CONTINUOUS
10
69.5857
20
-131.594
11
69.3952
21
-131.689
0
LINE
8
BLACK
6
CONTINUOUS
10
69.3952
20
-131.689
11
69.1095
21
-131.689
0
LINE
8
BLACK
6
CONTINUOUS
10
70.919
20
-131.689
11
70.7285
21
-131.594
0
LINE
8
BLACK
6
CONTINUOUS
10
70.7285
20
-131.594
11
70.6333
21
-131.403
0
LINE
8
BLACK
6
CONTINUOUS
10
70.6333
20
-131.403
11
70.6333
21
-129.689
0
LINE
8
BLACK
6
CONTINUOUS
10
72.4428
20
-131.594
11
72.2523
21
-131.689
0
LINE
8
BLACK
6
CONTINUOUS
10
72.2523
20
-131.689
11
71.8714
21
-131.689
0
LINE
8
BLACK
6
CONTINUOUS
10
71.8714
20
-131.689
11
71.6809
21
-131.594
0
LINE
8
BLACK
6
CONTINUOUS
10
71.6809
20
-131.594
11
71.5857
21
-131.403
0
LINE
8
BLACK
6
CONTINUOUS
10
71.5857
20
-131.403
11
71.5857
21
-130.641
0
LINE
8
BLACK
6
CONTINUOUS
10
71.5857
20
-130.641
11
71.6809
21
-130.451
0
LINE
8
BLACK
6
CONTINUOUS
10
71.6809
20
-130.451
11
71.8714
21
-130.355
0
LINE
8
BLACK
6
CONTINUOUS
10
71.8714
20
-130.355
11
72.2523
21
-130.355
0
LINE
8
BLACK
6
CONTINUOUS
10
72.2523
20
-130.355
11
72.4428
21
-130.451
0
LINE
8
BLACK
6
CONTINUOUS
10
72.4428
20
-130.451
11
72.538
21
-130.641
0
LINE
8
BLACK
6
CONTINUOUS
10
72.538
20
-130.641
11
72.538
21
-130.832
0
LINE
8
BLACK
6
CONTINUOUS
10
72.538
20
-130.832
11
71.5857
21
-131.022
0
LINE
8
BLACK
6
CONTINUOUS
10
73.2999
20
-131.594
11
73.4904
21
-131.689
0
LINE
8
BLACK
6
CONTINUOUS
10
73.4904
20
-131.689
11
73.8714
21
-131.689
0
LINE
8
BLACK
6
CONTINUOUS
10
73.8714
20
-131.689
11
74.0618
21
-131.594
0
LINE
8
BLACK
6
CONTINUOUS
10
74.0618
20
-131.594
11
74.1571
21
-131.403
0
LINE
8
BLACK
6
CONTINUOUS
10
74.1571
20
-131.403
11
74.1571
21
-131.308
0
LINE
8
BLACK
6
CONTINUOUS
10
74.1571
20
-131.308
11
74.0618
21
-131.117
0
LINE
8
BLACK
6
CONTINUOUS
10
74.0618
20
-131.117
11
73.8714
21
-131.022
0
LINE
8
BLACK
6
CONTINUOUS
10
73.8714
20
-131.022
11
73.5857
21
-131.022
0
LINE
8
BLACK
6
CONTINUOUS
10
73.5857
20
-131.022
11
73.3952
21
-130.927
0
LINE
8
BLACK
6
CONTINUOUS
10
73.3952
20
-130.927
11
73.2999
21
-130.736
0
LINE
8
BLACK
6
CONTINUOUS
10
73.2999
20
-130.736
11
73.2999
21
-130.641
0
LINE
8
BLACK
6
CONTINUOUS
10
73.2999
20
-130.641
11
73.3952
21
-130.451
0
LINE
8
BLACK
6
CONTINUOUS
10
73.3952
20
-130.451
11
73.5857
21
-130.355
0
LINE
8
BLACK
6
CONTINUOUS
10
73.5857
20
-130.355
11
73.8714
21
-130.355
0
LINE
8
BLACK
6
CONTINUOUS
10
73.8714
20
-130.355
11
74.0618
21
-130.451
0
LINE
8
BLACK
6
CONTINUOUS
10
74.8238
20
-132.451
11
74.919
21
-132.355
0
LINE
8
BLACK
6
CONTINUOUS
10
74.919
20
-132.355
11
75.1095
21
-132.07
0
LINE
8
BLACK
6
CONTINUOUS
10
75.1095
20
-132.07
11
75.2047
21
-131.879
0
LINE
8
BLACK
6
CONTINUOUS
10
75.2047
20
-131.879
11
75.2999
21
-131.594
0
LINE
8
BLACK
6
CONTINUOUS
10
75.2999
20
-131.594
11
75.3952
21
-131.117
0
LINE
8
BLACK
6
CONTINUOUS
10
75.3952
20
-131.117
11
75.3952
21
-130.736
0
LINE
8
BLACK
6
CONTINUOUS
10
75.3952
20
-130.736
11
75.2999
21
-130.26
0
LINE
8
BLACK
6
CONTINUOUS
10
75.2999
20
-130.26
11
75.2047
21
-129.975
0
LINE
8
BLACK
6
CONTINUOUS
10
75.2047
20
-129.975
11
75.1095
21
-129.784
0
LINE
8
BLACK
6
CONTINUOUS
10
75.1095
20
-129.784
11
74.919
21
-129.498
0
LINE
8
BLACK
6
CONTINUOUS
10
74.919
20
-129.498
11
74.8238
21
-129.403
0
LINE
8
BLACK
6
CONTINUOUS
10
78.4428
20
-132.451
11
78.3476
21
-132.355
0
LINE
8
BLACK
6
CONTINUOUS
10
78.3476
20
-132.355
11
78.1571
21
-132.07
0
LINE
8
BLACK
6
CONTINUOUS
10
78.1571
20
-132.07
11
78.0618
21
-131.879
0
LINE
8
BLACK
6
CONTINUOUS
10
78.0618
20
-131.879
11
77.9666
21
-131.594
0
LINE
8
BLACK
6
CONTINUOUS
10
77.9666
20
-131.594
11
77.8714
21
-131.117
0
LINE
8
BLACK
6
CONTINUOUS
10
77.8714
20
-131.117
11
77.8714
21
-130.736
0
LINE
8
BLACK
6
CONTINUOUS
10
77.8714
20
-130.736
11
77.9666
21
-130.26
0
LINE
8
BLACK
6
CONTINUOUS
10
77.9666
20
-130.26
11
78.0618
21
-129.975
0
LINE
8
BLACK
6
CONTINUOUS
10
78.0618
20
-129.975
11
78.1571
21
-129.784
0
LINE
8
BLACK
6
CONTINUOUS
10
78.1571
20
-129.784
11
78.3476
21
-129.498
0
LINE
8
BLACK
6
CONTINUOUS
10
78.3476
20
-129.498
11
78.4428
21
-129.403
0
LINE
8
BLACK
6
CONTINUOUS
10
79.2047
20
-130.355
11
79.2047
21
-131.689
0
LINE
8
BLACK
6
CONTINUOUS
10
79.2047
20
-130.546
11
79.2999
21
-130.451
0
LINE
8
BLACK
6
CONTINUOUS
10
79.2999
20
-130.451
11
79.4904
21
-130.355
0
LINE
8
BLACK
6
CONTINUOUS
10
79.4904
20
-130.355
11
79.7761
21
-130.355
0
LINE
8
BLACK
6
CONTINUOUS
10
79.7761
20
-130.355
11
79.9666
21
-130.451
0
LINE
8
BLACK
6
CONTINUOUS
10
79.9666
20
-130.451
11
80.0618
21
-130.641
0
LINE
8
BLACK
6
CONTINUOUS
10
80.0618
20
-130.641
11
80.0618
21
-131.689
0
LINE
8
BLACK
6
CONTINUOUS
10
81.2999
20
-131.689
11
81.1095
21
-131.594
0
LINE
8
BLACK
6
CONTINUOUS
10
81.1095
20
-131.594
11
81.0142
21
-131.498
0
LINE
8
BLACK
6
CONTINUOUS
10
81.0142
20
-131.498
11
80.919
21
-131.308
0
LINE
8
BLACK
6
CONTINUOUS
10
80.919
20
-131.308
11
80.919
21
-130.736
0
LINE
8
BLACK
6
CONTINUOUS
10
80.919
20
-130.736
11
81.0142
21
-130.546
0
LINE
8
BLACK
6
CONTINUOUS
10
81.0142
20
-130.546
11
81.1095
21
-130.451
0
LINE
8
BLACK
6
CONTINUOUS
10
81.1095
20
-130.451
11
81.2999
21
-130.355
0
LINE
8
BLACK
6
CONTINUOUS
10
81.2999
20
-130.355
11
81.5857
21
-130.355
0
LINE
8
BLACK
6
CONTINUOUS
10
81.5857
20
-130.355
11
81.7761
21
-130.451
0
LINE
8
BLACK
6
CONTINUOUS
10
81.7761
20
-130.451
11
81.8714
21
-130.546
0
LINE
8
BLACK
6
CONTINUOUS
10
81.8714
20
-130.546
11
81.9666
21
-130.736
0
LINE
8
BLACK
6
CONTINUOUS
10
81.9666
20
-130.736
11
81.9666
21
-131.308
0
LINE
8
BLACK
6
CONTINUOUS
10
81.9666
20
-131.308
11
81.8714
21
-131.498
0
LINE
8
BLACK
6
CONTINUOUS
10
81.8714
20
-131.498
11
81.7761
21
-131.594
0
LINE
8
BLACK
6
CONTINUOUS
10
81.7761
20
-131.594
11
81.5857
21
-131.689
0
LINE
8
BLACK
6
CONTINUOUS
10
81.5857
20
-131.689
11
81.2999
21
-131.689
0
LINE
8
BLACK
6
CONTINUOUS
10
82.538
20
-130.355
11
83.2999
21
-130.355
0
LINE
8
BLACK
6
CONTINUOUS
10
82.8238
20
-129.689
11
82.8238
21
-131.403
0
LINE
8
BLACK
6
CONTINUOUS
10
82.8238
20
-131.403
11
82.919
21
-131.594
0
LINE
8
BLACK
6
CONTINUOUS
10
82.919
20
-131.594
11
83.1095
21
-131.689
0
LINE
8
BLACK
6
CONTINUOUS
10
83.1095
20
-131.689
11
83.2999
21
-131.689
0
LINE
8
BLACK
6
CONTINUOUS
10
85.4904
20
-130.355
11
85.4904
21
-132.355
0
LINE
8
BLACK
6
CONTINUOUS
10
85.4904
20
-130.451
11
85.6809
21
-130.355
0
LINE
8
BLACK
6
CONTINUOUS
10
85.6809
20
-130.355
11
86.0618
21
-130.355
0
LINE
8
BLACK
6
CONTINUOUS
10
86.0618
20
-130.355
11
86.2523
21
-130.451
0
LINE
8
BLACK
6
CONTINUOUS
10
86.2523
20
-130.451
11
86.3476
21
-130.546
0
LINE
8
BLACK
6
CONTINUOUS
10
86.3476
20
-130.546
11
86.4428
21
-130.736
0
LINE
8
BLACK
6
CONTINUOUS
10
86.4428
20
-130.736
11
86.4428
21
-131.308
0
LINE
8
BLACK
6
CONTINUOUS
10
86.4428
20
-131.308
11
86.3476
21
-131.498
0
LINE
8
BLACK
6
CONTINUOUS
10
86.3476
20
-131.498
11
86.2523
21
-131.594
0
LINE
8
BLACK
6
CONTINUOUS
10
86.2523
20
-131.594
11
86.0618
21
-131.689
0
LINE
8
BLACK
6
CONTINUOUS
10
86.0618
20
-131.689
11
85.6809
21
-131.689
0
LINE
8
BLACK
6
CONTINUOUS
10
85.6809
20
-131.689
11
85.4904
21
-131.594
0
LINE
8
BLACK
6
CONTINUOUS
10
87.5857
20
-131.689
11
87.3952
21
-131.594
0
LINE
8
BLACK
6
CONTINUOUS
10
87.3952
20
-131.594
11
87.2999
21
-131.403
0
LINE
8
BLACK
6
CONTINUOUS
10
87.2999
20
-131.403
11
87.2999
21
-129.689
0
LINE
8
BLACK
6
CONTINUOUS
10
89.2047
20
-131.689
11
89.2047
21
-130.641
0
LINE
8
BLACK
6
CONTINUOUS
10
89.2047
20
-130.641
11
89.1095
21
-130.451
0
LINE
8
BLACK
6
CONTINUOUS
10
89.1095
20
-130.451
11
88.919
21
-130.355
0
LINE
8
BLACK
6
CONTINUOUS
10
88.919
20
-130.355
11
88.538
21
-130.355
0
LINE
8
BLACK
6
CONTINUOUS
10
88.538
20
-130.355
11
88.3476
21
-130.451
0
LINE
8
BLACK
6
CONTINUOUS
10
89.2047
20
-131.594
11
89.0142
21
-131.689
0
LINE
8
BLACK
6
CONTINUOUS
10
89.0142
20
-131.689
11
88.538
21
-131.689
0
LINE
8
BLACK
6
CONTINUOUS
10
88.538
20
-131.689
11
88.3476
21
-131.594
0
LINE
8
BLACK
6
CONTINUOUS
10
88.3476
20
-131.594
11
88.2523
21
-131.403
0
LINE
8
BLACK
6
CONTINUOUS
10
88.2523
20
-131.403
11
88.2523
21
-131.213
0
LINE
8
BLACK
6
CONTINUOUS
10
88.2523
20
-131.213
11
88.3476
21
-131.022
0
LINE
8
BLACK
6
CONTINUOUS
10
88.3476
20
-131.022
11
88.538
21
-130.927
0
LINE
8
BLACK
6
CONTINUOUS
10
88.538
20
-130.927
11
89.0142
21
-130.927
0
LINE
8
BLACK
6
CONTINUOUS
10
89.0142
20
-130.927
11
89.2047
21
-130.832
0
LINE
8
BLACK
6
CONTINUOUS
10
89.8714
20
-130.355
11
90.6333
21
-130.355
0
LINE
8
BLACK
6
CONTINUOUS
10
90.1571
20
-129.689
11
90.1571
21
-131.403
0
LINE
8
BLACK
6
CONTINUOUS
10
90.1571
20
-131.403
11
90.2523
21
-131.594
0
LINE
8
BLACK
6
CONTINUOUS
10
90.2523
20
-131.594
11
90.4428
21
-131.689
0
LINE
8
BLACK
6
CONTINUOUS
10
90.4428
20
-131.689
11
90.6333
21
-131.689
0
LINE
8
BLACK
6
CONTINUOUS
10
92.0618
20
-131.594
11
91.8714
21
-131.689
0
LINE
8
BLACK
6
CONTINUOUS
10
91.8714
20
-131.689
11
91.4904
21
-131.689
0
LINE
8
BLACK
6
CONTINUOUS
10
91.4904
20
-131.689
11
91.2999
21
-131.594
0
LINE
8
BLACK
6
CONTINUOUS
10
91.2999
20
-131.594
11
91.2047
21
-131.403
0
LINE
8
BLACK
6
CONTINUOUS
10
91.2047
20
-131.403
11
91.2047
21
-130.641
0
LINE
8
BLACK
6
CONTINUOUS
10
91.2047
20
-130.641
11
91.2999
21
-130.451
0
LINE
8
BLACK
6
CONTINUOUS
10
91.2999
20
-130.451
11
91.4904
21
-130.355
0
LINE
8
BLACK
6
CONTINUOUS
10
91.4904
20
-130.355
11
91.8714
21
-130.355
0
LINE
8
BLACK
6
CONTINUOUS
10
91.8714
20
-130.355
11
92.0618
21
-130.451
0
LINE
8
BLACK
6
CONTINUOUS
10
92.0618
20
-130.451
11
92.1571
21
-130.641
0
LINE
8
BLACK
6
CONTINUOUS
10
92.1571
20
-130.641
11
92.1571
21
-130.832
0
LINE
8
BLACK
6
CONTINUOUS
10
92.1571
20
-130.832
11
91.2047
21
-131.022
0
LINE
8
BLACK
6
CONTINUOUS
10
93.8714
20
-131.689
11
93.8714
21
-129.689
0
LINE
8
BLACK
6
CONTINUOUS
10
93.8714
20
-131.594
11
93.6809
21
-131.689
0
LINE
8
BLACK
6
CONTINUOUS
10
93.6809
20
-131.689
11
93.2999
21
-131.689
0
LINE
8
BLACK
6
CONTINUOUS
10
93.2999
20
-131.689
11
93.1095
21
-131.594
0
LINE
8
BLACK
6
CONTINUOUS
10
93.1095
20
-131.594
11
93.0142
21
-131.498
0
LINE
8
BLACK
6
CONTINUOUS
10
93.0142
20
-131.498
11
92.919
21
-131.308
0
LINE
8
BLACK
6
CONTINUOUS
10
92.919
20
-131.308
11
92.919
21
-130.736
0
LINE
8
BLACK
6
CONTINUOUS
10
92.919
20
-130.736
11
93.0142
21
-130.546
0
LINE
8
BLACK
6
CONTINUOUS
10
93.0142
20
-130.546
11
93.1095
21
-130.451
0
LINE
8
BLACK
6
CONTINUOUS
10
93.1095
20
-130.451
11
93.2999
21
-130.355
0
LINE
8
BLACK
6
CONTINUOUS
10
93.2999
20
-130.355
11
93.6809
21
-130.355
0
LINE
8
BLACK
6
CONTINUOUS
10
93.6809
20
-130.355
11
93.8714
21
-130.451
0
LINE
8
BLACK
6
CONTINUOUS
10
94.6333
20
-132.451
11
94.7285
21
-132.355
0
LINE
8
BLACK
6
CONTINUOUS
10
94.7285
20
-132.355
11
94.919
21
-132.07
0
LINE
8
BLACK
6
CONTINUOUS
10
94.919
20
-132.07
11
95.0142
21
-131.879
0
LINE
8
BLACK
6
CONTINUOUS
10
95.0142
20
-131.879
11
95.1095
21
-131.594
0
LINE
8
BLACK
6
CONTINUOUS
10
95.1095
20
-131.594
11
95.2047
21
-131.117
0
LINE
8
BLACK
6
CONTINUOUS
10
95.2047
20
-131.117
11
95.2047
21
-130.736
0
LINE
8
BLACK
6
CONTINUOUS
10
95.2047
20
-130.736
11
95.1095
21
-130.26
0
LINE
8
BLACK
6
CONTINUOUS
10
95.1095
20
-130.26
11
95.0142
21
-129.975
0
LINE
8
BLACK
6
CONTINUOUS
10
95.0142
20
-129.975
11
94.919
21
-129.784
0
LINE
8
BLACK
6
CONTINUOUS
10
94.919
20
-129.784
11
94.7285
21
-129.498
0
LINE
8
BLACK
6
CONTINUOUS
10
94.7285
20
-129.498
11
94.6333
21
-129.403
  0
ENDSEC
  0
EOF
