  0
SECTION
  2
HEADER
  9
$ANGBASE
  50
0.0
  9
$ANGDIR
  70
1
  9
$MEASUREMENT
  70
1
  0
ENDSEC
  0
SECTION
  2
TABLES
  0
TABLE
  2
LTYPE
  70
4
  0
LTYPE
  5
40F
  2
CONTINUOUS
  70
0
  3
Solid line
  72
65
  73
0
  40
0.0
  0
LTYPE
  5
410
  2
DASHDOT
 70
0
  3
Dash Dot ____ _ ____ _
 72
65
 73
4
 40
2.0
 49
1.25
 49
-0.25
 49
0.25
 49
-0.25
  0
LTYPE
  5
411
  2
DASHED
 70
0
  3
Dashed __ __ __ __ __
 72
65
 73
2
 40
0.75
 49
0.5
 49
-0.25
  0
LTYPE
  5
43B
  2
DOTTED
 70
0
  3
Dotted .  .  .  .
 72
65
 73
2
 40
0.2
 49
0.0
 49
-0.2
  0
ENDTAB
  0
TABLE
  2
STYLE
  70
4
  0
STYLE
  2
KICAD
  70
0
  40
0
  41
1
  42
1
  50
0
  71
0
  3
isocp.shx
  0
STYLE
  2
KICADB
  70
0
  40
0
  41
1
  42
1
  50
0
  71
0
  3
isocp.shx
  0
STYLE
  2
KICADI
  70
0
  40
0
  41
1
  42
1
  50
15
  71
0
  3
isocp.shx
  0
STYLE
  2
KICADBI
  70
0
  40
0
  41
1
  42
1
  50
15
  71
0
  3
isocp.shx
  0
ENDTAB
  0
TABLE
  2
LAYER
  70
1
  0
LAYER
  2
BLACK
  70
0
  62
7
  6
CONTINUOUS
  0
ENDTAB
  0
ENDSEC
  0
SECTION
  2
ENTITIES
0
LINE
8
BLACK
6
CONTINUOUS
10
238.785
20
-96.5784
11
239.205
21
-96.5957
0
LINE
8
BLACK
6
CONTINUOUS
10
239.205
20
-96.5957
11
239.621
21
-96.6476
0
LINE
8
BLACK
6
CONTINUOUS
10
239.621
20
-96.6476
11
240.032
21
-96.7338
0
LINE
8
BLACK
6
CONTINUOUS
10
240.032
20
-96.7338
11
240.435
21
-96.8535
0
LINE
8
BLACK
6
CONTINUOUS
10
240.435
20
-96.8535
11
240.826
21
-97.0061
0
LINE
8
BLACK
6
CONTINUOUS
10
240.826
20
-97.0061
11
241.203
21
-97.1905
0
LINE
8
BLACK
6
CONTINUOUS
10
241.203
20
-97.1905
11
241.563
21
-97.4053
0
LINE
8
BLACK
6
CONTINUOUS
10
241.563
20
-97.4053
11
241.905
21
-97.6493
0
LINE
8
BLACK
6
CONTINUOUS
10
241.905
20
-97.6493
11
242.225
21
-97.9206
0
LINE
8
BLACK
6
CONTINUOUS
10
242.225
20
-97.9206
11
242.522
21
-98.2174
0
LINE
8
BLACK
6
CONTINUOUS
10
242.522
20
-98.2174
11
242.793
21
-98.5377
0
LINE
8
BLACK
6
CONTINUOUS
10
242.793
20
-98.5377
11
243.037
21
-98.8793
0
LINE
8
BLACK
6
CONTINUOUS
10
243.037
20
-98.8793
11
243.252
21
-99.2399
0
LINE
8
BLACK
6
CONTINUOUS
10
243.252
20
-99.2399
11
243.437
21
-99.617
0
LINE
8
BLACK
6
CONTINUOUS
10
243.437
20
-99.617
11
243.589
21
-100.008
0
LINE
8
BLACK
6
CONTINUOUS
10
243.589
20
-100.008
11
243.709
21
-100.41
0
LINE
8
BLACK
6
CONTINUOUS
10
243.709
20
-100.41
11
243.795
21
-100.821
0
LINE
8
BLACK
6
CONTINUOUS
10
243.795
20
-100.821
11
243.847
21
-101.238
0
LINE
8
BLACK
6
CONTINUOUS
10
243.847
20
-101.238
11
243.864
21
-101.657
0
LINE
8
BLACK
6
CONTINUOUS
10
243.864
20
-101.657
11
243.864
21
-101.657
0
LINE
8
BLACK
6
CONTINUOUS
10
243.864
20
-101.657
11
243.864
21
-101.657
0
LINE
8
BLACK
6
CONTINUOUS
10
243.864
20
-101.657
11
243.864
21
-119.285
0
LINE
8
BLACK
6
CONTINUOUS
10
243.864
20
-119.285
11
243.847
21
-119.704
0
LINE
8
BLACK
6
CONTINUOUS
10
243.847
20
-119.704
11
243.795
21
-120.121
0
LINE
8
BLACK
6
CONTINUOUS
10
243.795
20
-120.121
11
243.709
21
-120.532
0
LINE
8
BLACK
6
CONTINUOUS
10
243.709
20
-120.532
11
243.589
21
-120.934
0
LINE
8
BLACK
6
CONTINUOUS
10
243.589
20
-120.934
11
243.437
21
-121.325
0
LINE
8
BLACK
6
CONTINUOUS
10
243.437
20
-121.325
11
243.252
21
-121.702
0
LINE
8
BLACK
6
CONTINUOUS
10
243.252
20
-121.702
11
243.037
21
-122.063
0
LINE
8
BLACK
6
CONTINUOUS
10
243.037
20
-122.063
11
242.793
21
-122.404
0
LINE
8
BLACK
6
CONTINUOUS
10
242.793
20
-122.404
11
242.522
21
-122.725
0
LINE
8
BLACK
6
CONTINUOUS
10
242.522
20
-122.725
11
242.225
21
-123.021
0
LINE
8
BLACK
6
CONTINUOUS
10
242.225
20
-123.021
11
241.905
21
-123.293
0
LINE
8
BLACK
6
CONTINUOUS
10
241.905
20
-123.293
11
241.563
21
-123.537
0
LINE
8
BLACK
6
CONTINUOUS
10
241.563
20
-123.537
11
241.203
21
-123.751
0
LINE
8
BLACK
6
CONTINUOUS
10
241.203
20
-123.751
11
240.826
21
-123.936
0
LINE
8
BLACK
6
CONTINUOUS
10
240.826
20
-123.936
11
240.435
21
-124.088
0
LINE
8
BLACK
6
CONTINUOUS
10
240.435
20
-124.088
11
240.032
21
-124.208
0
LINE
8
BLACK
6
CONTINUOUS
10
240.032
20
-124.208
11
239.621
21
-124.294
0
LINE
8
BLACK
6
CONTINUOUS
10
239.621
20
-124.294
11
239.205
21
-124.346
0
LINE
8
BLACK
6
CONTINUOUS
10
239.205
20
-124.346
11
238.785
21
-124.364
0
LINE
8
BLACK
6
CONTINUOUS
10
238.785
20
-124.364
11
238.785
21
-124.364
0
LINE
8
BLACK
6
CONTINUOUS
10
238.785
20
-124.364
11
32.2835
21
-124.364
0
LINE
8
BLACK
6
CONTINUOUS
10
32.2835
20
-124.364
11
31.8641
21
-124.346
0
LINE
8
BLACK
6
CONTINUOUS
10
31.8641
20
-124.346
11
31.4476
21
-124.294
0
LINE
8
BLACK
6
CONTINUOUS
10
31.4476
20
-124.294
11
31.0367
21
-124.208
0
LINE
8
BLACK
6
CONTINUOUS
10
31.0367
20
-124.208
11
30.6344
21
-124.088
0
LINE
8
BLACK
6
CONTINUOUS
10
30.6344
20
-124.088
11
30.2434
21
-123.936
0
LINE
8
BLACK
6
CONTINUOUS
10
30.2434
20
-123.936
11
29.8663
21
-123.751
0
LINE
8
BLACK
6
CONTINUOUS
10
29.8663
20
-123.751
11
29.5057
21
-123.537
0
LINE
8
BLACK
6
CONTINUOUS
10
29.5057
20
-123.537
11
29.164
21
-123.293
0
LINE
8
BLACK
6
CONTINUOUS
10
29.164
20
-123.293
11
28.8437
21
-123.021
0
LINE
8
BLACK
6
CONTINUOUS
10
28.8437
20
-123.021
11
28.5469
21
-122.725
0
LINE
8
BLACK
6
CONTINUOUS
10
28.5469
20
-122.725
11
28.2756
21
-122.404
0
LINE
8
BLACK
6
CONTINUOUS
10
28.2756
20
-122.404
11
28.0317
21
-122.063
0
LINE
8
BLACK
6
CONTINUOUS
10
28.0317
20
-122.063
11
27.8168
21
-121.702
0
LINE
8
BLACK
6
CONTINUOUS
10
27.8168
20
-121.702
11
27.6325
21
-121.325
0
LINE
8
BLACK
6
CONTINUOUS
10
27.6325
20
-121.325
11
27.4799
21
-120.934
0
LINE
8
BLACK
6
CONTINUOUS
10
27.4799
20
-120.934
11
27.3601
21
-120.532
0
LINE
8
BLACK
6
CONTINUOUS
10
27.3601
20
-120.532
11
27.274
21
-120.121
0
LINE
8
BLACK
6
CONTINUOUS
10
27.274
20
-120.121
11
27.222
21
-119.704
0
LINE
8
BLACK
6
CONTINUOUS
10
27.222
20
-119.704
11
27.2047
21
-119.285
0
LINE
8
BLACK
6
CONTINUOUS
10
27.2047
20
-119.285
11
27.2047
21
-119.285
0
LINE
8
BLACK
6
CONTINUOUS
10
27.2047
20
-119.285
11
27.2047
21
-100.235
0
LINE
8
BLACK
6
CONTINUOUS
10
27.2047
20
-100.235
11
27.2223
21
-99.8764
0
LINE
8
BLACK
6
CONTINUOUS
10
27.2223
20
-99.8764
11
27.275
21
-99.5214
0
LINE
8
BLACK
6
CONTINUOUS
10
27.275
20
-99.5214
11
27.3621
21
-99.1734
0
LINE
8
BLACK
6
CONTINUOUS
10
27.3621
20
-99.1734
11
27.483
21
-98.8355
0
LINE
8
BLACK
6
CONTINUOUS
10
27.483
20
-98.8355
11
27.6364
21
-98.5111
0
LINE
8
BLACK
6
CONTINUOUS
10
27.6364
20
-98.5111
11
27.8209
21
-98.2034
0
LINE
8
BLACK
6
CONTINUOUS
10
27.8209
20
-98.2034
11
28.0347
21
-97.9152
0
LINE
8
BLACK
6
CONTINUOUS
10
28.0347
20
-97.9152
11
28.2756
21
-97.6493
0
LINE
8
BLACK
6
CONTINUOUS
10
28.2756
20
-97.6493
11
28.5415
21
-97.4083
0
LINE
8
BLACK
6
CONTINUOUS
10
28.5415
20
-97.4083
11
28.8297
21
-97.1946
0
LINE
8
BLACK
6
CONTINUOUS
10
28.8297
20
-97.1946
11
29.1375
21
-97.0101
0
LINE
8
BLACK
6
CONTINUOUS
10
29.1375
20
-97.0101
11
29.4619
21
-96.8567
0
LINE
8
BLACK
6
CONTINUOUS
10
29.4619
20
-96.8567
11
29.7997
21
-96.7358
0
LINE
8
BLACK
6
CONTINUOUS
10
29.7997
20
-96.7358
11
30.1478
21
-96.6486
0
LINE
8
BLACK
6
CONTINUOUS
10
30.1478
20
-96.6486
11
30.5027
21
-96.596
0
LINE
8
BLACK
6
CONTINUOUS
10
30.5027
20
-96.596
11
30.8611
21
-96.5784
0
LINE
8
BLACK
6
CONTINUOUS
10
30.8611
20
-96.5784
11
238.785
21
-96.5784
0
LINE
8
BLACK
6
CONTINUOUS
10
30.8611
20
-96.7283
11
30.6888
21
-96.7283
0
LINE
8
BLACK
6
CONTINUOUS
10
30.6888
20
-96.7283
11
30.346
21
-96.7621
0
LINE
8
BLACK
6
CONTINUOUS
10
30.346
20
-96.7621
11
30.0081
21
-96.8293
0
LINE
8
BLACK
6
CONTINUOUS
10
30.0081
20
-96.8293
11
29.6784
21
-96.9293
0
LINE
8
BLACK
6
CONTINUOUS
10
29.6784
20
-96.9293
11
29.3601
21
-97.0612
0
LINE
8
BLACK
6
CONTINUOUS
10
29.3601
20
-97.0612
11
29.0563
21
-97.2236
0
LINE
8
BLACK
6
CONTINUOUS
10
29.0563
20
-97.2236
11
28.7698
21
-97.415
0
LINE
8
BLACK
6
CONTINUOUS
10
28.7698
20
-97.415
11
28.5035
21
-97.6335
0
LINE
8
BLACK
6
CONTINUOUS
10
28.5035
20
-97.6335
11
28.2599
21
-97.8772
0
LINE
8
BLACK
6
CONTINUOUS
10
28.2599
20
-97.8772
11
28.0413
21
-98.1435
0
LINE
8
BLACK
6
CONTINUOUS
10
28.0413
20
-98.1435
11
27.8499
21
-98.4299
0
LINE
8
BLACK
6
CONTINUOUS
10
27.8499
20
-98.4299
11
27.6875
21
-98.7338
0
LINE
8
BLACK
6
CONTINUOUS
10
27.6875
20
-98.7338
11
27.5557
21
-99.0521
0
LINE
8
BLACK
6
CONTINUOUS
10
27.5557
20
-99.0521
11
27.4557
21
-99.3817
0
LINE
8
BLACK
6
CONTINUOUS
10
27.4557
20
-99.3817
11
27.3885
21
-99.7196
0
LINE
8
BLACK
6
CONTINUOUS
10
27.3885
20
-99.7196
11
27.3547
21
-100.062
0
LINE
8
BLACK
6
CONTINUOUS
10
27.3547
20
-100.062
11
27.3547
21
-100.235
0
LINE
8
BLACK
6
CONTINUOUS
10
27.3547
20
-100.235
11
27.3547
21
-100.235
0
LINE
8
BLACK
6
CONTINUOUS
10
27.3547
20
-100.235
11
27.3547
21
-119.285
0
LINE
8
BLACK
6
CONTINUOUS
10
27.3547
20
-119.285
11
27.3547
21
-119.285
0
LINE
8
BLACK
6
CONTINUOUS
10
27.3547
20
-119.285
11
27.3547
21
-119.5
0
LINE
8
BLACK
6
CONTINUOUS
10
27.3547
20
-119.5
11
27.3922
21
-119.929
0
LINE
8
BLACK
6
CONTINUOUS
10
27.3922
20
-119.929
11
27.4669
21
-120.353
0
LINE
8
BLACK
6
CONTINUOUS
10
27.4669
20
-120.353
11
27.5783
21
-120.768
0
LINE
8
BLACK
6
CONTINUOUS
10
27.5783
20
-120.768
11
27.7255
21
-121.173
0
LINE
8
BLACK
6
CONTINUOUS
10
27.7255
20
-121.173
11
27.9074
21
-121.563
0
LINE
8
BLACK
6
CONTINUOUS
10
27.9074
20
-121.563
11
28.1226
21
-121.936
0
LINE
8
BLACK
6
CONTINUOUS
10
28.1226
20
-121.936
11
28.3695
21
-122.288
0
LINE
8
BLACK
6
CONTINUOUS
10
28.3695
20
-122.288
11
28.6461
21
-122.618
0
LINE
8
BLACK
6
CONTINUOUS
10
28.6461
20
-122.618
11
28.9505
21
-122.922
0
LINE
8
BLACK
6
CONTINUOUS
10
28.9505
20
-122.922
11
29.2802
21
-123.199
0
LINE
8
BLACK
6
CONTINUOUS
10
29.2802
20
-123.199
11
29.6327
21
-123.446
0
LINE
8
BLACK
6
CONTINUOUS
10
29.6327
20
-123.446
11
30.0055
21
-123.661
0
LINE
8
BLACK
6
CONTINUOUS
10
30.0055
20
-123.661
11
30.3955
21
-123.843
0
LINE
8
BLACK
6
CONTINUOUS
10
30.3955
20
-123.843
11
30.8
21
-123.99
0
LINE
8
BLACK
6
CONTINUOUS
10
30.8
20
-123.99
11
31.2157
21
-124.101
0
LINE
8
BLACK
6
CONTINUOUS
10
31.2157
20
-124.101
11
31.6395
21
-124.176
0
LINE
8
BLACK
6
CONTINUOUS
10
31.6395
20
-124.176
11
32.0683
21
-124.214
0
LINE
8
BLACK
6
CONTINUOUS
10
32.0683
20
-124.214
11
32.2835
21
-124.214
0
LINE
8
BLACK
6
CONTINUOUS
10
32.2835
20
-124.214
11
238.785
21
-124.214
0
LINE
8
BLACK
6
CONTINUOUS
10
238.785
20
-124.214
11
238.786
21
-124.214
0
LINE
8
BLACK
6
CONTINUOUS
10
238.786
20
-124.214
11
239.001
21
-124.214
0
LINE
8
BLACK
6
CONTINUOUS
10
239.001
20
-124.214
11
239.429
21
-124.176
0
LINE
8
BLACK
6
CONTINUOUS
10
239.429
20
-124.176
11
239.853
21
-124.101
0
LINE
8
BLACK
6
CONTINUOUS
10
239.853
20
-124.101
11
240.269
21
-123.99
0
LINE
8
BLACK
6
CONTINUOUS
10
240.269
20
-123.99
11
240.673
21
-123.843
0
LINE
8
BLACK
6
CONTINUOUS
10
240.673
20
-123.843
11
241.064
21
-123.661
0
LINE
8
BLACK
6
CONTINUOUS
10
241.064
20
-123.661
11
241.436
21
-123.446
0
LINE
8
BLACK
6
CONTINUOUS
10
241.436
20
-123.446
11
241.789
21
-123.199
0
LINE
8
BLACK
6
CONTINUOUS
10
241.789
20
-123.199
11
242.119
21
-122.922
0
LINE
8
BLACK
6
CONTINUOUS
10
242.119
20
-122.922
11
242.423
21
-122.618
0
LINE
8
BLACK
6
CONTINUOUS
10
242.423
20
-122.618
11
242.7
21
-122.288
0
LINE
8
BLACK
6
CONTINUOUS
10
242.7
20
-122.288
11
242.946
21
-121.936
0
LINE
8
BLACK
6
CONTINUOUS
10
242.946
20
-121.936
11
243.162
21
-121.563
0
LINE
8
BLACK
6
CONTINUOUS
10
243.162
20
-121.563
11
243.343
21
-121.173
0
LINE
8
BLACK
6
CONTINUOUS
10
243.343
20
-121.173
11
243.491
21
-120.768
0
LINE
8
BLACK
6
CONTINUOUS
10
243.491
20
-120.768
11
243.602
21
-120.353
0
LINE
8
BLACK
6
CONTINUOUS
10
243.602
20
-120.353
11
243.677
21
-119.929
0
LINE
8
BLACK
6
CONTINUOUS
10
243.677
20
-119.929
11
243.714
21
-119.5
0
LINE
8
BLACK
6
CONTINUOUS
10
243.714
20
-119.5
11
243.714
21
-119.285
0
LINE
8
BLACK
6
CONTINUOUS
10
243.714
20
-119.285
11
243.714
21
-119.285
0
LINE
8
BLACK
6
CONTINUOUS
10
243.714
20
-119.285
11
243.714
21
-101.657
0
LINE
8
BLACK
6
CONTINUOUS
10
243.714
20
-101.657
11
243.714
21
-101.657
0
LINE
8
BLACK
6
CONTINUOUS
10
243.714
20
-101.657
11
243.714
21
-101.442
0
LINE
8
BLACK
6
CONTINUOUS
10
243.714
20
-101.442
11
243.677
21
-101.013
0
LINE
8
BLACK
6
CONTINUOUS
10
243.677
20
-101.013
11
243.602
21
-100.589
0
LINE
8
BLACK
6
CONTINUOUS
10
243.602
20
-100.589
11
243.491
21
-100.174
0
LINE
8
BLACK
6
CONTINUOUS
10
243.491
20
-100.174
11
243.343
21
-99.7692
0
LINE
8
BLACK
6
CONTINUOUS
10
243.343
20
-99.7692
11
243.162
21
-99.3791
0
LINE
8
BLACK
6
CONTINUOUS
10
243.162
20
-99.3791
11
242.946
21
-99.0064
0
LINE
8
BLACK
6
CONTINUOUS
10
242.946
20
-99.0064
11
242.7
21
-98.6538
0
LINE
8
BLACK
6
CONTINUOUS
10
242.7
20
-98.6538
11
242.423
21
-98.3241
0
LINE
8
BLACK
6
CONTINUOUS
10
242.423
20
-98.3241
11
242.119
21
-98.0198
0
LINE
8
BLACK
6
CONTINUOUS
10
242.119
20
-98.0198
11
241.789
21
-97.7431
0
LINE
8
BLACK
6
CONTINUOUS
10
241.789
20
-97.7431
11
241.436
21
-97.4963
0
LINE
8
BLACK
6
CONTINUOUS
10
241.436
20
-97.4963
11
241.064
21
-97.2811
0
LINE
8
BLACK
6
CONTINUOUS
10
241.064
20
-97.2811
11
240.673
21
-97.0992
0
LINE
8
BLACK
6
CONTINUOUS
10
240.673
20
-97.0992
11
240.269
21
-96.952
0
LINE
8
BLACK
6
CONTINUOUS
10
240.269
20
-96.952
11
239.853
21
-96.8406
0
LINE
8
BLACK
6
CONTINUOUS
10
239.853
20
-96.8406
11
239.429
21
-96.7659
0
LINE
8
BLACK
6
CONTINUOUS
10
239.429
20
-96.7659
11
239.001
21
-96.7283
0
LINE
8
BLACK
6
CONTINUOUS
10
239.001
20
-96.7283
11
238.785
21
-96.7283
0
LINE
8
BLACK
6
CONTINUOUS
10
238.785
20
-96.7283
11
30.8611
21
-96.7283
  0
ENDSEC
  0
EOF
