  0
SECTION
  2
HEADER
  9
$ANGBASE
  50
0.0
  9
$ANGDIR
  70
1
  9
$MEASUREMENT
  70
1
  0
ENDSEC
  0
SECTION
  2
TABLES
  0
TABLE
  2
LTYPE
  70
4
  0
LTYPE
  5
40F
  2
CONTINUOUS
  70
0
  3
Solid line
  72
65
  73
0
  40
0.0
  0
LTYPE
  5
410
  2
DASHDOT
 70
0
  3
Dash Dot ____ _ ____ _
 72
65
 73
4
 40
2.0
 49
1.25
 49
-0.25
 49
0.25
 49
-0.25
  0
LTYPE
  5
411
  2
DASHED
 70
0
  3
Dashed __ __ __ __ __
 72
65
 73
2
 40
0.75
 49
0.5
 49
-0.25
  0
LTYPE
  5
43B
  2
DOTTED
 70
0
  3
Dotted .  .  .  .
 72
65
 73
2
 40
0.2
 49
0.0
 49
-0.2
  0
ENDTAB
  0
TABLE
  2
STYLE
  70
4
  0
STYLE
  2
KICAD
  70
0
  40
0
  41
1
  42
1
  50
0
  71
0
  3
isocp.shx
  0
STYLE
  2
KICADB
  70
0
  40
0
  41
1
  42
1
  50
0
  71
0
  3
isocp.shx
  0
STYLE
  2
KICADI
  70
0
  40
0
  41
1
  42
1
  50
15
  71
0
  3
isocp.shx
  0
STYLE
  2
KICADBI
  70
0
  40
0
  41
1
  42
1
  50
15
  71
0
  3
isocp.shx
  0
ENDTAB
  0
TABLE
  2
LAYER
  70
1
  0
LAYER
  2
BLACK
  70
0
  62
7
  6
CONTINUOUS
  0
ENDTAB
  0
ENDSEC
  0
SECTION
  2
ENTITIES
0
LINE
8
BLACK
6
CONTINUOUS
10
238.785
20
-124.289
11
32.2835
21
-124.289
0
ARC
8
BLACK
10
238.785
20
-101.657
40
5.00385
50
0.000572523
51
90
0
ARC
8
BLACK
10
32.2835
20
-119.285
40
5.0038
50
-180
51
-90
0
LINE
8
BLACK
6
CONTINUOUS
10
30.8611
20
-96.6533
11
238.785
21
-96.6533
0
LINE
8
BLACK
6
CONTINUOUS
10
243.789
20
-101.657
11
243.789
21
-119.285
0
ARC
8
BLACK
10
30.8611
20
-100.235
40
3.5814
50
90
51
180
0
ARC
8
BLACK
10
238.785
20
-119.285
40
5.0038
50
-90
51
0.000572523
0
LINE
8
BLACK
6
CONTINUOUS
10
27.2797
20
-119.285
11
27.2797
21
-100.235
0
LINE
8
BLACK
6
CONTINUOUS
10
29.6809
20
-127.489
11
29.6809
21
-125.489
0
LINE
8
BLACK
6
CONTINUOUS
10
29.6809
20
-125.489
11
30.1571
21
-125.489
0
LINE
8
BLACK
6
CONTINUOUS
10
30.1571
20
-125.489
11
30.4428
21
-125.584
0
LINE
8
BLACK
6
CONTINUOUS
10
30.4428
20
-125.584
11
30.6333
21
-125.775
0
LINE
8
BLACK
6
CONTINUOUS
10
30.6333
20
-125.775
11
30.7285
21
-125.965
0
LINE
8
BLACK
6
CONTINUOUS
10
30.7285
20
-125.965
11
30.8237
21
-126.346
0
LINE
8
BLACK
6
CONTINUOUS
10
30.8237
20
-126.346
11
30.8237
21
-126.632
0
LINE
8
BLACK
6
CONTINUOUS
10
30.8237
20
-126.632
11
30.7285
21
-127.013
0
LINE
8
BLACK
6
CONTINUOUS
10
30.7285
20
-127.013
11
30.6333
21
-127.203
0
LINE
8
BLACK
6
CONTINUOUS
10
30.6333
20
-127.203
11
30.4428
21
-127.394
0
LINE
8
BLACK
6
CONTINUOUS
10
30.4428
20
-127.394
11
30.1571
21
-127.489
0
LINE
8
BLACK
6
CONTINUOUS
10
30.1571
20
-127.489
11
29.6809
21
-127.489
0
LINE
8
BLACK
6
CONTINUOUS
10
31.6809
20
-127.489
11
31.6809
21
-126.155
0
LINE
8
BLACK
6
CONTINUOUS
10
31.6809
20
-126.536
11
31.7761
21
-126.346
0
LINE
8
BLACK
6
CONTINUOUS
10
31.7761
20
-126.346
11
31.8714
21
-126.251
0
LINE
8
BLACK
6
CONTINUOUS
10
31.8714
20
-126.251
11
32.0618
21
-126.155
0
LINE
8
BLACK
6
CONTINUOUS
10
32.0618
20
-126.155
11
32.2523
21
-126.155
0
LINE
8
BLACK
6
CONTINUOUS
10
32.919
20
-127.489
11
32.919
21
-126.155
0
LINE
8
BLACK
6
CONTINUOUS
10
32.919
20
-125.489
11
32.8237
21
-125.584
0
LINE
8
BLACK
6
CONTINUOUS
10
32.8237
20
-125.584
11
32.919
21
-125.679
0
LINE
8
BLACK
6
CONTINUOUS
10
32.919
20
-125.679
11
33.0142
21
-125.584
0
LINE
8
BLACK
6
CONTINUOUS
10
33.0142
20
-125.584
11
32.919
21
-125.489
0
LINE
8
BLACK
6
CONTINUOUS
10
32.919
20
-125.489
11
32.919
21
-125.679
0
LINE
8
BLACK
6
CONTINUOUS
10
34.1571
20
-127.489
11
33.9666
21
-127.394
0
LINE
8
BLACK
6
CONTINUOUS
10
33.9666
20
-127.394
11
33.8714
21
-127.203
0
LINE
8
BLACK
6
CONTINUOUS
10
33.8714
20
-127.203
11
33.8714
21
-125.489
0
LINE
8
BLACK
6
CONTINUOUS
10
35.2047
20
-127.489
11
35.0142
21
-127.394
0
LINE
8
BLACK
6
CONTINUOUS
10
35.0142
20
-127.394
11
34.919
21
-127.203
0
LINE
8
BLACK
6
CONTINUOUS
10
34.919
20
-127.203
11
34.919
21
-125.489
0
LINE
8
BLACK
6
CONTINUOUS
10
37.4904
20
-127.489
11
37.4904
21
-125.489
0
LINE
8
BLACK
6
CONTINUOUS
10
37.4904
20
-125.489
11
38.1571
21
-126.917
0
LINE
8
BLACK
6
CONTINUOUS
10
38.1571
20
-126.917
11
38.8237
21
-125.489
0
LINE
8
BLACK
6
CONTINUOUS
10
38.8237
20
-125.489
11
38.8237
21
-127.489
0
LINE
8
BLACK
6
CONTINUOUS
10
40.6333
20
-127.489
11
40.6333
21
-126.441
0
LINE
8
BLACK
6
CONTINUOUS
10
40.6333
20
-126.441
11
40.538
21
-126.251
0
LINE
8
BLACK
6
CONTINUOUS
10
40.538
20
-126.251
11
40.3476
21
-126.155
0
LINE
8
BLACK
6
CONTINUOUS
10
40.3476
20
-126.155
11
39.9666
21
-126.155
0
LINE
8
BLACK
6
CONTINUOUS
10
39.9666
20
-126.155
11
39.7761
21
-126.251
0
LINE
8
BLACK
6
CONTINUOUS
10
40.6333
20
-127.394
11
40.4428
21
-127.489
0
LINE
8
BLACK
6
CONTINUOUS
10
40.4428
20
-127.489
11
39.9666
21
-127.489
0
LINE
8
BLACK
6
CONTINUOUS
10
39.9666
20
-127.489
11
39.7761
21
-127.394
0
LINE
8
BLACK
6
CONTINUOUS
10
39.7761
20
-127.394
11
39.6809
21
-127.203
0
LINE
8
BLACK
6
CONTINUOUS
10
39.6809
20
-127.203
11
39.6809
21
-127.013
0
LINE
8
BLACK
6
CONTINUOUS
10
39.6809
20
-127.013
11
39.7761
21
-126.822
0
LINE
8
BLACK
6
CONTINUOUS
10
39.7761
20
-126.822
11
39.9666
21
-126.727
0
LINE
8
BLACK
6
CONTINUOUS
10
39.9666
20
-126.727
11
40.4428
21
-126.727
0
LINE
8
BLACK
6
CONTINUOUS
10
40.4428
20
-126.727
11
40.6333
21
-126.632
0
LINE
8
BLACK
6
CONTINUOUS
10
41.5857
20
-126.155
11
41.5857
21
-128.155
0
LINE
8
BLACK
6
CONTINUOUS
10
41.5857
20
-126.251
11
41.7761
21
-126.155
0
LINE
8
BLACK
6
CONTINUOUS
10
41.7761
20
-126.155
11
42.1571
21
-126.155
0
LINE
8
BLACK
6
CONTINUOUS
10
42.1571
20
-126.155
11
42.3476
21
-126.251
0
LINE
8
BLACK
6
CONTINUOUS
10
42.3476
20
-126.251
11
42.4428
21
-126.346
0
LINE
8
BLACK
6
CONTINUOUS
10
42.4428
20
-126.346
11
42.538
21
-126.536
0
LINE
8
BLACK
6
CONTINUOUS
10
42.538
20
-126.536
11
42.538
21
-127.108
0
LINE
8
BLACK
6
CONTINUOUS
10
42.538
20
-127.108
11
42.4428
21
-127.298
0
LINE
8
BLACK
6
CONTINUOUS
10
42.4428
20
-127.298
11
42.3476
21
-127.394
0
LINE
8
BLACK
6
CONTINUOUS
10
42.3476
20
-127.394
11
42.1571
21
-127.489
0
LINE
8
BLACK
6
CONTINUOUS
10
42.1571
20
-127.489
11
41.7761
21
-127.489
0
LINE
8
BLACK
6
CONTINUOUS
10
41.7761
20
-127.489
11
41.5857
21
-127.394
0
LINE
8
BLACK
6
CONTINUOUS
10
43.3952
20
-127.298
11
43.4904
21
-127.394
0
LINE
8
BLACK
6
CONTINUOUS
10
43.4904
20
-127.394
11
43.3952
21
-127.489
0
LINE
8
BLACK
6
CONTINUOUS
10
43.3952
20
-127.489
11
43.2999
21
-127.394
0
LINE
8
BLACK
6
CONTINUOUS
10
43.2999
20
-127.394
11
43.3952
21
-127.298
0
LINE
8
BLACK
6
CONTINUOUS
10
43.3952
20
-127.298
11
43.3952
21
-127.489
0
LINE
8
BLACK
6
CONTINUOUS
10
43.3952
20
-126.251
11
43.4904
21
-126.346
0
LINE
8
BLACK
6
CONTINUOUS
10
43.4904
20
-126.346
11
43.3952
21
-126.441
0
LINE
8
BLACK
6
CONTINUOUS
10
43.3952
20
-126.441
11
43.2999
21
-126.346
0
LINE
8
BLACK
6
CONTINUOUS
10
43.2999
20
-126.346
11
43.3952
21
-126.251
0
LINE
8
BLACK
6
CONTINUOUS
10
43.3952
20
-126.251
11
43.3952
21
-126.441
  0
ENDSEC
  0
EOF
