%TF.GenerationSoftware,KiCad,Pcbnew,7.0.2-0*%
%TF.CreationDate,2023-09-13T20:40:29+02:00*%
%TF.ProjectId,storre_base,73746f72-7265-45f6-9261-73652e6b6963,rev?*%
%TF.SameCoordinates,Original*%
%TF.FileFunction,Drillmap*%
%TF.FilePolarity,Positive*%
%FSLAX45Y45*%
G04 Gerber Fmt 4.5, Leading zero omitted, Abs format (unit mm)*
G04 Created by KiCad (PCBNEW 7.0.2-0) date 2023-09-13 20:40:29*
%MOMM*%
%LPD*%
G01*
G04 APERTURE LIST*
%ADD10C,0.150000*%
%ADD11C,0.200000*%
G04 APERTURE END LIST*
D10*
X36767700Y-4169630D02*
G75*
G03*
X36290200Y-3692130I-477500J0D01*
G01*
X5252700Y-3692120D02*
G75*
G03*
X4775200Y-4169630I0J-477500D01*
G01*
X36290200Y-19100780D02*
G75*
G03*
X36767700Y-18623280I10J477490D01*
G01*
X36290200Y-3692130D02*
X5252700Y-3692120D01*
X36767700Y-18623280D02*
X36767700Y-4169630D01*
X4775200Y-18623280D02*
X4775200Y-4169630D01*
X4775200Y-18623280D02*
G75*
G03*
X5252700Y-19100780I477500J0D01*
G01*
X36290200Y-19100780D02*
X5252700Y-19100780D01*
D11*
X5015319Y-19420804D02*
X5015319Y-19220804D01*
X5015319Y-19220804D02*
X5062938Y-19220804D01*
X5062938Y-19220804D02*
X5091510Y-19230328D01*
X5091510Y-19230328D02*
X5110557Y-19249375D01*
X5110557Y-19249375D02*
X5120081Y-19268423D01*
X5120081Y-19268423D02*
X5129605Y-19306518D01*
X5129605Y-19306518D02*
X5129605Y-19335090D01*
X5129605Y-19335090D02*
X5120081Y-19373185D01*
X5120081Y-19373185D02*
X5110557Y-19392232D01*
X5110557Y-19392232D02*
X5091510Y-19411280D01*
X5091510Y-19411280D02*
X5062938Y-19420804D01*
X5062938Y-19420804D02*
X5015319Y-19420804D01*
X5215319Y-19420804D02*
X5215319Y-19287470D01*
X5215319Y-19325566D02*
X5224843Y-19306518D01*
X5224843Y-19306518D02*
X5234367Y-19296994D01*
X5234367Y-19296994D02*
X5253414Y-19287470D01*
X5253414Y-19287470D02*
X5272462Y-19287470D01*
X5339129Y-19420804D02*
X5339129Y-19287470D01*
X5339129Y-19220804D02*
X5329605Y-19230328D01*
X5329605Y-19230328D02*
X5339129Y-19239851D01*
X5339129Y-19239851D02*
X5348652Y-19230328D01*
X5348652Y-19230328D02*
X5339129Y-19220804D01*
X5339129Y-19220804D02*
X5339129Y-19239851D01*
X5462938Y-19420804D02*
X5443890Y-19411280D01*
X5443890Y-19411280D02*
X5434367Y-19392232D01*
X5434367Y-19392232D02*
X5434367Y-19220804D01*
X5567700Y-19420804D02*
X5548652Y-19411280D01*
X5548652Y-19411280D02*
X5539129Y-19392232D01*
X5539129Y-19392232D02*
X5539129Y-19220804D01*
X5796271Y-19420804D02*
X5796271Y-19220804D01*
X5796271Y-19220804D02*
X5862938Y-19363661D01*
X5862938Y-19363661D02*
X5929605Y-19220804D01*
X5929605Y-19220804D02*
X5929605Y-19420804D01*
X6110557Y-19420804D02*
X6110557Y-19316042D01*
X6110557Y-19316042D02*
X6101033Y-19296994D01*
X6101033Y-19296994D02*
X6081986Y-19287470D01*
X6081986Y-19287470D02*
X6043890Y-19287470D01*
X6043890Y-19287470D02*
X6024843Y-19296994D01*
X6110557Y-19411280D02*
X6091509Y-19420804D01*
X6091509Y-19420804D02*
X6043890Y-19420804D01*
X6043890Y-19420804D02*
X6024843Y-19411280D01*
X6024843Y-19411280D02*
X6015319Y-19392232D01*
X6015319Y-19392232D02*
X6015319Y-19373185D01*
X6015319Y-19373185D02*
X6024843Y-19354137D01*
X6024843Y-19354137D02*
X6043890Y-19344613D01*
X6043890Y-19344613D02*
X6091509Y-19344613D01*
X6091509Y-19344613D02*
X6110557Y-19335090D01*
X6205795Y-19287470D02*
X6205795Y-19487470D01*
X6205795Y-19296994D02*
X6224843Y-19287470D01*
X6224843Y-19287470D02*
X6262938Y-19287470D01*
X6262938Y-19287470D02*
X6281986Y-19296994D01*
X6281986Y-19296994D02*
X6291509Y-19306518D01*
X6291509Y-19306518D02*
X6301033Y-19325566D01*
X6301033Y-19325566D02*
X6301033Y-19382709D01*
X6301033Y-19382709D02*
X6291509Y-19401756D01*
X6291509Y-19401756D02*
X6281986Y-19411280D01*
X6281986Y-19411280D02*
X6262938Y-19420804D01*
X6262938Y-19420804D02*
X6224843Y-19420804D01*
X6224843Y-19420804D02*
X6205795Y-19411280D01*
X6386748Y-19401756D02*
X6396271Y-19411280D01*
X6396271Y-19411280D02*
X6386748Y-19420804D01*
X6386748Y-19420804D02*
X6377224Y-19411280D01*
X6377224Y-19411280D02*
X6386748Y-19401756D01*
X6386748Y-19401756D02*
X6386748Y-19420804D01*
X6386748Y-19296994D02*
X6396271Y-19306518D01*
X6396271Y-19306518D02*
X6386748Y-19316042D01*
X6386748Y-19316042D02*
X6377224Y-19306518D01*
X6377224Y-19306518D02*
X6386748Y-19296994D01*
X6386748Y-19296994D02*
X6386748Y-19316042D01*
M02*
